<svg width="54" height="54" viewBox="0 0 54 54" fill="none" xmlns="http://www.w3.org/2000/svg">
<path d="M27 54C23.2846 54 19.7846 53.2894 16.5 51.8683C13.2154 50.4471 10.3548 48.5183 7.91827 46.0817C5.48172 43.6452 3.55288 40.7846 2.13173 37.5C0.710575 34.2154 0 30.7154 0 27C0 23.273 0.710575 19.7702 2.13173 16.4914C3.55288 13.2125 5.48172 10.3548 7.91827 7.91828C10.3548 5.48173 13.2154 3.55287 16.5 2.13172C19.7846 0.710573 23.2846 0 27 0C30.7269 0 34.2298 0.710573 37.5086 2.13172C40.7875 3.55287 43.6452 5.48173 46.0817 7.91828C48.5183 10.3548 50.4471 13.2125 51.8683 16.4914C53.2894 19.7702 54 23.273 54 27C54 30.7154 53.2894 34.2154 51.8683 37.5C50.4471 40.7846 48.5183 43.6452 46.0817 46.0817C43.6452 48.5183 40.7875 50.4471 37.5086 51.8683C34.2298 53.2894 30.7269 54 27 54ZM27 51.0231C28.7615 48.7615 30.2135 46.5404 31.3558 44.3596C32.4981 42.1789 33.4269 39.7384 34.1423 37.0384H19.8577C20.65 39.8923 21.598 42.4096 22.7019 44.5904C23.8057 46.7712 25.2384 48.9154 27 51.0231ZM23.1808 50.5731C21.7808 48.9231 20.5029 46.8837 19.3471 44.4548C18.1913 42.026 17.3307 39.5538 16.7653 37.0384H5.26155C6.9808 40.7692 9.4183 43.8289 12.574 46.2173C15.7298 48.6058 19.2654 50.0577 23.1808 50.5731ZM30.8192 50.5731C34.7346 50.0577 38.2702 48.6058 41.4259 46.2173C44.5817 43.8289 47.0192 40.7692 48.7384 37.0384H37.2346C36.4769 39.5923 35.5202 42.0836 34.3645 44.5125C33.2087 46.9413 32.0269 48.9615 30.8192 50.5731ZM4.03845 34.0384H16.1423C15.9154 32.8077 15.7548 31.6087 15.6606 30.4414C15.5663 29.274 15.5192 28.1269 15.5192 27C15.5192 25.8731 15.5663 24.726 15.6606 23.5586C15.7548 22.3913 15.9154 21.1923 16.1423 19.9615H4.03845C3.71155 21 3.45675 22.1317 3.27405 23.3567C3.09135 24.5817 3 25.7961 3 27C3 28.2038 3.09135 29.4183 3.27405 30.6433C3.45675 31.8683 3.71155 33 4.03845 34.0384ZM19.1423 34.0384H34.8577C35.0846 32.8077 35.2452 31.6279 35.3394 30.499C35.4336 29.3702 35.4808 28.2038 35.4808 27C35.4808 25.7961 35.4336 24.6298 35.3394 23.5009C35.2452 22.3721 35.0846 21.1923 34.8577 19.9615H19.1423C18.9154 21.1923 18.7548 22.3721 18.6606 23.5009C18.5664 24.6298 18.5192 25.7961 18.5192 27C18.5192 28.2038 18.5664 29.3702 18.6606 30.499C18.7548 31.6279 18.9154 32.8077 19.1423 34.0384ZM37.8577 34.0384H49.9615C50.2884 33 50.5433 31.8683 50.7259 30.6433C50.9086 29.4183 51 28.2038 51 27C51 25.7961 50.9086 24.5817 50.7259 23.3567C50.5433 22.1317 50.2884 21 49.9615 19.9615H37.8577C38.0846 21.1923 38.2452 22.3913 38.3395 23.5586C38.4337 24.726 38.4808 25.8731 38.4808 27C38.4808 28.1269 38.4337 29.274 38.3395 30.4414C38.2452 31.6087 38.0846 32.8077 37.8577 34.0384ZM37.2346 16.9615H48.7384C46.9808 13.1538 44.5721 10.0942 41.5125 7.78267C38.4529 5.47117 34.8885 4.00002 30.8192 3.36922C32.2192 5.21152 33.4779 7.31825 34.5952 9.6894C35.7125 12.0606 36.5923 14.4846 37.2346 16.9615ZM19.8577 16.9615H34.1423C33.35 14.1461 32.3731 11.6 31.2115 9.3231C30.05 7.04615 28.6461 4.93075 27 2.9769C25.3538 4.93075 23.95 7.04615 22.7885 9.3231C21.6269 11.6 20.65 14.1461 19.8577 16.9615ZM5.26155 16.9615H16.7653C17.4076 14.4846 18.2875 12.0606 19.4048 9.6894C20.5221 7.31825 21.7808 5.21152 23.1808 3.36922C19.0731 4.00002 15.499 5.4808 12.4586 7.81155C9.41827 10.1423 7.01925 13.1923 5.26155 16.9615Z" fill="#5577E8"/>
</svg>
