<svg width="84" height="85" viewBox="0 0 84 85" fill="none" xmlns="http://www.w3.org/2000/svg">
<path d="M36.1666 61.6554L65.5416 32.2804L59.7082 26.447L36.1666 49.9887L24.2916 38.1137L18.4583 43.947L36.1666 61.6554ZM41.9999 84.1554C36.236 84.1554 30.8194 83.0616 25.7499 80.8741C20.6805 78.6866 16.2708 75.7179 12.5208 71.9679C8.77075 68.2179 5.802 63.8081 3.6145 58.7387C1.427 53.6692 0.333252 48.2526 0.333252 42.4887C0.333252 36.7248 1.427 31.3081 3.6145 26.2387C5.802 21.1692 8.77075 16.7595 12.5208 13.0095C16.2708 9.25952 20.6805 6.29077 25.7499 4.10327C30.8194 1.91577 36.236 0.822021 41.9999 0.822021C47.7638 0.822021 53.1805 1.91577 58.2499 4.10327C63.3194 6.29077 67.7291 9.25952 71.4791 13.0095C75.2291 16.7595 78.1978 21.1692 80.3853 26.2387C82.5728 31.3081 83.6666 36.7248 83.6666 42.4887C83.6666 48.2526 82.5728 53.6692 80.3853 58.7387C78.1978 63.8081 75.2291 68.2179 71.4791 71.9679C67.7291 75.7179 63.3194 78.6866 58.2499 80.8741C53.1805 83.0616 47.7638 84.1554 41.9999 84.1554Z" fill="#199B26"/>
</svg>
