<svg width="84" height="85" viewBox="0 0 84 85" fill="none" xmlns="http://www.w3.org/2000/svg">
<path d="M84 42.4888C84 65.6847 65.196 84.4888 42 84.4888C18.804 84.4888 0 65.6847 0 42.4888C0 19.2928 18.804 0.48877 42 0.48877C65.196 0.48877 84 19.2928 84 42.4888ZM8.4 42.4888C8.4 61.0455 23.4432 76.0888 42 76.0888C60.5568 76.0888 75.6 61.0455 75.6 42.4888C75.6 23.932 60.5568 8.88877 42 8.88877C23.4432 8.88877 8.4 23.932 8.4 42.4888Z" fill="#F0F5FF"/>
<path opacity="0.6" d="M42 4.68877C42 2.36917 43.8851 0.46701 46.1931 0.698584C52.4671 1.32809 58.538 3.3645 63.9449 6.67788C70.5493 10.725 75.9058 16.5197 79.4223 23.4212C82.9388 30.3227 84.4782 38.0622 83.8705 45.784C83.2628 53.5059 80.5315 60.9093 75.9787 67.1758C71.4259 73.4422 65.2288 78.3275 58.0727 81.2917C50.9166 84.2559 43.0801 85.1834 35.4298 83.9717C27.7794 82.76 20.6131 79.4563 14.7232 74.4258C9.90114 70.3074 6.08839 65.1629 3.55091 59.3905C2.61746 57.267 3.844 54.8864 6.05006 54.1696C8.25613 53.4528 10.6021 54.6754 11.5883 56.7749C13.612 61.0827 16.5351 64.9267 20.1785 68.0384C24.8905 72.0628 30.6235 74.7057 36.7438 75.6751C42.8641 76.6445 49.1333 75.9025 54.8582 73.5311C60.5831 71.1598 65.5407 67.2515 69.183 62.2384C72.8252 57.2252 75.0102 51.3025 75.4964 45.125C75.9826 38.9475 74.751 32.7559 71.9378 27.2347C69.1246 21.7135 64.8394 17.0778 59.556 13.8401C55.4706 11.3366 50.9115 9.74432 46.1892 9.15092C43.8877 8.86172 42 7.00836 42 4.68877Z" fill="#5577E8"/>
</svg>
