<svg width="41" height="41" viewBox="0 0 41 41" fill="none" xmlns="http://www.w3.org/2000/svg">
<path d="M20.1923 40.9773C16.1256 40.9773 12.4808 39.8965 9.2577 37.735C6.0346 35.5735 3.61537 32.6658 2 29.0119V35.5927H0V25.5927H10V27.5927H3.58845C4.88078 31.0183 7.04682 33.7722 10.0865 35.8542C13.1263 37.9363 16.4949 38.9773 20.1923 38.9773C22.5897 38.9773 24.8416 38.5472 26.948 37.6869C29.0545 36.8267 30.9096 35.6395 32.5134 34.1253C34.1173 32.6112 35.4199 30.8138 36.4211 28.733C37.4224 26.6523 38 24.4004 38.1538 21.9773H40.1538C40.0256 24.626 39.4122 27.1042 38.3134 29.4119C37.2147 31.7196 35.7744 33.7324 33.9923 35.4504C32.2103 37.1683 30.1333 38.519 27.7615 39.5023C25.3897 40.4856 22.8667 40.9773 20.1923 40.9773ZM19.1615 34.208V31.7619C17.8 31.4465 16.6404 30.9061 15.6827 30.1407C14.725 29.3754 13.9615 28.3081 13.3923 26.9388L15.1538 26.1773C15.7077 27.4158 16.4481 28.3702 17.375 29.0407C18.3019 29.7113 19.341 30.0465 20.4923 30.0465C21.6692 30.0465 22.7711 29.7369 23.798 29.1177C24.825 28.4985 25.3384 27.485 25.3384 26.0773C25.3384 24.9568 24.9686 24.0773 24.2288 23.4388C23.4891 22.8004 22.0436 22.085 19.8923 21.2927C17.7461 20.5158 16.2211 19.6952 15.3173 18.8311C14.4135 17.967 13.9615 16.8158 13.9615 15.3773C13.9615 14.1645 14.4173 13.0446 15.3288 12.0177C16.2404 10.9908 17.5513 10.3491 19.2615 10.0927V7.74654H21.223V10.0927C22.2692 10.167 23.2455 10.5286 24.1519 11.1773C25.0583 11.826 25.7462 12.6312 26.2154 13.5927L24.4769 14.2773C24.0564 13.5619 23.5077 12.9715 22.8307 12.5061C22.1538 12.0407 21.3077 11.808 20.2923 11.808C18.9718 11.808 17.9135 12.1478 17.1173 12.8273C16.3211 13.5068 15.923 14.3568 15.923 15.3773C15.923 16.3978 16.2295 17.1837 16.8423 17.735C17.4551 18.2863 18.8641 18.9465 21.0692 19.7157C23.4692 20.5824 25.0949 21.5093 25.9461 22.4965C26.7974 23.4837 27.223 24.6773 27.223 26.0773C27.223 27.0183 27.0372 27.8427 26.6654 28.5504C26.2936 29.2581 25.8135 29.8446 25.225 30.31C24.6365 30.7754 23.982 31.1343 23.2615 31.3869C22.541 31.6395 21.8282 31.7978 21.123 31.8619V34.208H19.1615ZM0.23075 19.9773C0.41025 17.2004 1.06217 14.6516 2.1865 12.3311C3.31087 10.0106 4.7769 8.0042 6.5846 6.3119C8.3923 4.6196 10.4628 3.30741 12.7961 2.37534C15.1295 1.44331 17.5949 0.977295 20.1923 0.977295C24.182 0.977295 27.8269 2.06446 31.1269 4.23879C34.4269 6.41316 36.8461 9.36573 38.3846 13.0965V6.3619H40.3846V16.3619H30.3846V14.3619H36.7961C35.5807 11.0388 33.4468 8.31063 30.3942 6.17729C27.3416 4.04396 23.941 2.97729 20.1923 2.97729C17.8974 2.97729 15.7032 3.3946 13.6096 4.2292C11.516 5.06383 9.65447 6.22538 8.025 7.71384C6.3955 9.20231 5.06088 10.9869 4.02115 13.0677C2.98142 15.1485 2.38462 17.4517 2.23075 19.9773H0.23075Z" fill="#5577E8"/>
</svg>
