<svg width="41" height="37" viewBox="0 0 41 37" fill="none" xmlns="http://www.w3.org/2000/svg">
<path d="M19.4056 34.9003C19.6671 34.9003 19.9351 34.8414 20.2094 34.7234C20.4838 34.6055 20.7056 34.4619 20.8748 34.2927L36.4671 18.7003C36.9697 18.1978 37.3575 17.6837 37.6306 17.158C37.9036 16.6324 38.0402 16.0555 38.0402 15.4273C38.0402 14.7914 37.9036 14.1741 37.6306 13.5753C37.3575 12.9766 36.9697 12.4299 36.4671 11.935L28.9671 4.43499C28.4722 3.93243 27.9639 3.56383 27.4421 3.32919C26.9203 3.09459 26.3415 2.97729 25.7056 2.97729C25.0774 2.97729 24.4941 3.09459 23.9556 3.32919C23.4171 3.56383 22.9094 3.93243 22.4325 4.43499L20.6902 6.17729L24.3902 9.88879C24.7876 10.2786 25.0838 10.7222 25.2787 11.2196C25.4735 11.717 25.571 12.2222 25.571 12.735C25.571 13.776 25.2306 14.6369 24.5498 15.3176C23.8691 15.9984 23.0082 16.3388 21.9671 16.3388C21.4543 16.3388 20.9536 16.2606 20.4652 16.1042C19.9767 15.9478 19.5376 15.6747 19.1479 15.285L15.321 11.4696L6.68633 20.1042C6.48377 20.3068 6.33185 20.5369 6.23058 20.7946C6.12928 21.0523 6.07863 21.3119 6.07863 21.5734C6.07863 22.0452 6.22992 22.4343 6.53248 22.7407C6.83505 23.0471 7.22223 23.2003 7.69403 23.2003C7.95557 23.2003 8.22352 23.1414 8.49788 23.0234C8.77225 22.9055 8.99405 22.7619 9.16328 22.5926L15.5017 16.2542L16.9171 17.6696L10.5902 24.008C10.3876 24.2106 10.2357 24.4407 10.1344 24.6984C10.0331 24.9561 9.98248 25.2158 9.98248 25.4773C9.98248 25.9234 10.1402 26.3042 10.4556 26.6196C10.7709 26.935 11.1517 27.0926 11.5979 27.0926C11.8594 27.0926 12.1274 27.0337 12.4017 26.9157C12.6761 26.7978 12.8979 26.6542 13.0671 26.485L19.8671 19.6965L21.2825 21.1119L14.494 27.9119C14.3171 28.0811 14.1716 28.3029 14.0575 28.5773C13.9434 28.8517 13.8863 29.1196 13.8863 29.3811C13.8863 29.8273 14.044 30.208 14.3594 30.5234C14.6748 30.8388 15.0556 30.9965 15.5017 30.9965C15.7633 30.9965 16.0229 30.9459 16.2806 30.8446C16.5383 30.7433 16.7684 30.5914 16.971 30.3888L23.771 23.6003L25.1863 25.0157L18.3863 31.8157C18.1838 32.0183 18.0319 32.2613 17.9306 32.5446C17.8293 32.8279 17.7787 33.0875 17.7787 33.3234C17.7787 33.7952 17.9447 34.176 18.2767 34.4657C18.6088 34.7555 18.9851 34.9003 19.4056 34.9003ZM19.394 36.9004C18.3658 36.9004 17.4857 36.5241 16.7536 35.7715C16.0216 35.019 15.7005 34.0901 15.7902 32.985C14.6569 32.9978 13.7133 32.6593 12.9594 31.9696C12.2056 31.2799 11.8479 30.317 11.8863 29.0811C10.6504 29.0939 9.67672 28.7407 8.96518 28.0215C8.25365 27.3023 7.92993 26.3542 7.99403 25.1773C6.8812 25.1901 5.95043 24.8773 5.20173 24.2388C4.453 23.6004 4.07863 22.7119 4.07863 21.5734C4.07863 21.0606 4.178 20.5471 4.37673 20.033C4.57543 19.5189 4.86967 19.067 5.25943 18.6773L15.321 8.62724L20.4863 13.7926C20.6556 13.9696 20.8645 14.1151 21.1133 14.2292C21.362 14.3433 21.6428 14.4003 21.9556 14.4003C22.3838 14.4003 22.762 14.251 23.0902 13.9523C23.4184 13.6536 23.5825 13.2645 23.5825 12.785C23.5825 12.4722 23.5254 12.1914 23.4113 11.9426C23.2972 11.6939 23.1517 11.485 22.9748 11.3157L16.094 4.43499C15.5992 3.93243 15.0844 3.56383 14.5498 3.32919C14.0152 3.09459 13.4299 2.97729 12.794 2.97729C12.1658 2.97729 11.5953 3.09459 11.0825 3.32919C10.5697 3.56383 10.062 3.93243 9.55943 4.43499L3.47098 10.535C3.04275 10.9632 2.69658 11.4734 2.43248 12.0657C2.16838 12.658 2.02865 13.2696 2.01328 13.9003C1.99788 14.3516 2.03633 14.7856 2.12863 15.2023C2.22097 15.619 2.36713 16.0106 2.56713 16.3773L1.05173 17.8927C0.715834 17.3568 0.453001 16.7395 0.263234 16.0407C0.073501 15.342 -0.0136658 14.6285 0.00173419 13.9003C0.0171009 12.9926 0.199151 12.1228 0.547884 11.2907C0.896584 10.4587 1.3953 9.71829 2.04403 9.06959L8.09403 3.0196C8.79147 2.32983 9.52928 1.81699 10.3075 1.48109C11.0857 1.14523 11.9274 0.977295 12.8325 0.977295C13.7376 0.977295 14.5729 1.14523 15.3383 1.48109C16.1036 1.81699 16.8312 2.32983 17.521 3.0196L19.2633 4.76189L21.0056 3.0196C21.703 2.32983 22.4344 1.81699 23.1998 1.48109C23.9652 1.14523 24.8004 0.977295 25.7056 0.977295C26.6107 0.977295 27.4524 1.14523 28.2306 1.48109C29.0088 1.81699 29.7427 2.32983 30.4325 3.0196L37.8825 10.4696C38.5723 11.1593 39.1043 11.9337 39.4787 12.7926C39.853 13.6516 40.0402 14.5337 40.0402 15.4388C40.0402 16.3439 39.853 17.1792 39.4787 17.9446C39.1043 18.71 38.5723 19.4376 37.8825 20.1273L22.2902 35.708C21.8748 36.1234 21.4229 36.426 20.9344 36.6157C20.446 36.8055 19.9325 36.9004 19.394 36.9004Z" fill="#5577E8"/>
</svg>
