<svg width="643" height="412" viewBox="0 0 643 412" fill="none" xmlns="http://www.w3.org/2000/svg">
<path d="M398.357 90.5634C398.703 87.5052 398.88 84.4301 398.886 81.3523C398.886 79.6928 398.838 78.0815 398.742 76.4461L383.518 71.5399C382.593 65.2315 380.779 59.0859 378.131 53.286L388.208 40.8762C385.884 36.7826 383.213 32.8962 380.223 29.2601L365 34.2384C360.554 29.6827 355.485 25.7799 349.944 22.6463L350.81 6.65309C346.517 4.7111 342.068 3.13426 337.51 1.9393L328.107 14.9263C324.389 14.2876 320.624 13.9658 316.852 13.9643C314.264 13.9705 311.678 14.1231 309.107 14.4212L300.425 0.977295C295.811 1.90572 291.288 3.24172 286.909 4.96959V20.9869C281.21 23.8152 275.939 27.4344 271.253 31.7372L256.318 25.9893C253.15 29.4716 250.278 33.2124 247.732 37.1725L257.16 50.1114C254.182 55.7427 252.043 61.7788 250.81 68.0286L235.346 72.1412C234.999 75.1994 234.823 78.2745 234.817 81.3523C234.817 82.9877 234.889 84.6231 234.985 86.2344L250.185 91.1647C251.111 97.4653 252.924 103.603 255.572 109.395L245.495 121.804C247.819 125.906 250.49 129.8 253.48 133.445L268.704 128.466C273.158 133.022 278.235 136.925 283.783 140.058L282.917 156.052C287.197 158 291.639 159.569 296.193 160.741L305.596 147.778C309.315 148.408 313.08 148.722 316.852 148.716C319.439 148.718 322.024 148.573 324.596 148.283L333.302 161.727C337.915 160.792 342.437 159.456 346.818 157.735V141.718C352.509 138.879 357.772 135.252 362.45 130.943L377.385 136.715C380.568 133.245 383.441 129.503 385.971 125.532L376.568 112.593C379.521 106.951 381.659 100.919 382.917 94.676L398.357 90.5634ZM316.852 113.531C310.487 113.531 304.266 111.644 298.974 108.108C293.682 104.572 289.558 99.5465 287.122 93.6666C284.687 87.7867 284.049 81.3166 285.291 75.0745C286.533 68.8324 289.597 63.0987 294.098 58.5984C298.598 54.0981 304.332 51.0334 310.574 49.7917C316.816 48.5501 323.286 49.1874 329.166 51.6229C335.046 54.0584 340.071 58.1829 343.607 63.4747C347.143 68.7665 349.03 74.9879 349.03 81.3523C349.03 85.5781 348.198 89.7625 346.581 93.6666C344.964 97.5707 342.594 101.118 339.605 104.106C336.617 107.094 333.07 109.465 329.166 111.082C325.262 112.699 321.077 113.531 316.852 113.531Z" fill="#5577E8"/>
<path d="M360.743 118.052C360.459 118.056 360.184 117.953 359.973 117.764C359.729 117.562 359.574 117.272 359.543 116.957C359.511 116.641 359.605 116.326 359.805 116.08C365.772 108.901 369.79 100.306 371.471 91.1228C373.151 81.9398 372.438 72.4788 369.401 63.6513C369.349 63.5013 369.327 63.3425 369.336 63.1839C369.345 63.0254 369.386 62.8702 369.455 62.7273C369.524 62.5844 369.621 62.4565 369.739 62.3509C369.858 62.2454 369.996 62.1642 370.146 62.1121C370.296 62.06 370.455 62.038 370.614 62.0472C370.772 62.0565 370.927 62.0969 371.07 62.1661C371.213 62.2353 371.341 62.3321 371.447 62.4507C371.552 62.5694 371.633 62.7077 371.686 62.8577C374.85 72.0755 375.589 81.9524 373.833 91.5387C372.077 101.125 367.883 110.098 361.657 117.595C361.547 117.734 361.409 117.847 361.251 117.926C361.093 118.005 360.919 118.048 360.743 118.052Z" fill="white"/>
<path d="M356.077 42.1035C355.924 42.1081 355.773 42.0805 355.632 42.0224C355.491 41.9644 355.364 41.8773 355.259 41.7668C349.867 36.6984 343.501 32.779 336.548 30.2468C336.257 30.1321 336.022 29.9083 335.893 29.623C335.764 29.3377 335.752 29.0134 335.858 28.719C335.965 28.4247 336.182 28.1834 336.463 28.0466C336.745 27.9097 337.068 27.888 337.366 27.9861C344.631 30.6248 351.277 34.7257 356.894 40.0352C357.009 40.1416 357.102 40.2701 357.167 40.4129C357.232 40.5557 357.268 40.71 357.272 40.8668C357.277 41.0236 357.25 41.1797 357.193 41.326C357.137 41.4723 357.051 41.6058 356.942 41.7187C356.836 41.8429 356.703 41.9419 356.553 42.0084C356.403 42.075 356.24 42.1074 356.077 42.1035Z" fill="white"/>
<path d="M304.369 28.7068C304.104 28.6999 303.848 28.6071 303.64 28.4423C303.432 28.2775 303.282 28.0496 303.215 27.7929C303.175 27.6397 303.166 27.4802 303.188 27.3235C303.21 27.1667 303.263 27.0159 303.343 26.8796C303.424 26.7433 303.53 26.6242 303.657 26.5292C303.783 26.4342 303.927 26.3651 304.081 26.3258C308.634 25.1823 313.311 24.6008 318.006 24.5942C318.324 24.5942 318.63 24.7209 318.856 24.9464C319.081 25.172 319.208 25.4778 319.208 25.7967C319.208 26.1157 319.081 26.4215 318.856 26.647C318.63 26.8725 318.324 26.9992 318.006 26.9992C313.513 26.9951 309.037 27.5526 304.682 28.6587L304.369 28.7068Z" fill="white"/>
<path d="M139.772 294.266C140.014 292.15 140.134 290.023 140.132 287.893C140.132 286.763 140.108 285.632 140.036 284.502L129.502 281.087C128.866 276.722 127.61 272.471 125.775 268.461L132.749 259.851C131.142 257.017 129.292 254.33 127.218 251.818L116.684 255.257C113.597 252.105 110.084 249.401 106.246 247.224L106.847 236.161C103.878 234.804 100.796 233.71 97.6362 232.891L91.1186 241.885C88.5449 241.441 85.9382 241.216 83.3264 241.212C81.5344 241.219 79.744 241.323 77.9633 241.525L71.9508 232.217C68.749 232.861 65.6103 233.787 62.5713 234.983V246.07C58.6239 248.034 54.9726 250.544 51.7248 253.526L41.3833 249.557C39.1687 251.948 37.1726 254.531 35.4189 257.277L41.9605 266.248C39.9051 270.152 38.4228 274.331 37.5593 278.658L26.833 281.52C26.611 283.637 26.4987 285.764 26.4963 287.893C26.4963 289.023 26.5204 290.154 26.5925 291.284L37.1264 294.699C37.7666 299.063 39.0217 303.314 40.8542 307.325L33.8797 315.911C35.4804 318.756 37.3315 321.452 39.4112 323.968L49.9451 320.529C53.0322 323.674 56.5457 326.37 60.3828 328.537L59.7815 339.624C62.7532 340.975 65.8348 342.069 68.9926 342.895L75.5102 333.901C78.0845 334.338 80.6913 334.555 83.3024 334.55C85.0948 334.555 86.8858 334.451 88.6655 334.237L94.678 343.569C97.877 342.913 101.015 341.988 104.057 340.803V329.716C108.011 327.752 111.663 325.233 114.904 322.236L125.246 326.229C127.446 323.818 129.441 321.227 131.21 318.485L124.668 309.538C126.724 305.634 128.206 301.455 129.069 297.128L139.772 294.266ZM83.3264 310.163C78.916 310.163 74.6047 308.855 70.9379 306.404C67.2711 303.954 64.4136 300.47 62.7269 296.395C61.0402 292.32 60.6001 287.836 61.4623 283.511C62.3244 279.185 64.4502 275.213 67.5705 272.096C70.6908 268.979 74.6655 266.858 78.9918 266C83.318 265.143 87.8014 265.587 91.8748 267.279C95.9481 268.97 99.4283 271.831 101.875 275.5C104.322 279.17 105.625 283.483 105.621 287.893C105.621 290.82 105.044 293.717 103.923 296.421C102.803 299.125 101.16 301.581 99.0894 303.649C97.0189 305.717 94.561 307.357 91.8563 308.475C89.1515 309.593 86.253 310.166 83.3264 310.163Z" fill="#5577E8"/>
<path d="M113.725 313.675C113.442 313.679 113.167 313.576 112.956 313.387C112.711 313.185 112.557 312.895 112.525 312.58C112.494 312.264 112.588 311.95 112.787 311.703C116.877 306.778 119.631 300.884 120.785 294.588C121.939 288.291 121.454 281.804 119.377 275.749C119.276 275.445 119.298 275.115 119.437 274.828C119.576 274.54 119.822 274.318 120.122 274.209C120.422 274.11 120.749 274.132 121.033 274.272C121.316 274.411 121.534 274.657 121.638 274.955C123.858 281.401 124.381 288.309 123.155 295.016C121.929 301.722 118.996 307.999 114.639 313.243C114.528 313.378 114.389 313.487 114.231 313.562C114.073 313.637 113.9 313.676 113.725 313.675Z" fill="white"/>
<path d="M110.503 261.077C110.347 261.082 110.191 261.055 110.047 260.997C109.902 260.939 109.77 260.852 109.661 260.741C105.97 257.266 101.608 254.582 96.8422 252.852C96.6896 252.802 96.5485 252.721 96.4275 252.616C96.3065 252.51 96.2079 252.381 96.1376 252.236C96.0673 252.091 96.0267 251.934 96.0183 251.774C96.0098 251.613 96.0336 251.452 96.0883 251.301C96.143 251.15 96.2274 251.011 96.3367 250.893C96.4459 250.775 96.5776 250.681 96.7242 250.614C96.8707 250.548 97.029 250.512 97.1897 250.508C97.3505 250.504 97.5104 250.533 97.6599 250.592C102.744 252.427 107.395 255.292 111.32 259.009C111.435 259.115 111.528 259.244 111.593 259.387C111.658 259.53 111.694 259.684 111.698 259.841C111.703 259.997 111.676 260.154 111.619 260.3C111.563 260.446 111.477 260.58 111.368 260.693C111.26 260.814 111.126 260.912 110.977 260.978C110.828 261.044 110.666 261.078 110.503 261.077Z" fill="white"/>
<path d="M74.6917 251.795C74.3851 251.818 74.0812 251.723 73.8425 251.529C73.6038 251.336 73.4485 251.058 73.4084 250.753C73.3684 250.448 73.4467 250.139 73.6272 249.89C73.8078 249.641 74.0768 249.471 74.3791 249.414C77.5645 248.617 80.8356 248.213 84.1193 248.212C84.4382 248.212 84.7441 248.338 84.9696 248.564C85.1951 248.789 85.3218 249.095 85.3218 249.414C85.3218 249.733 85.1951 250.039 84.9696 250.264C84.7441 250.49 84.4382 250.617 84.1193 250.617C81.0381 250.616 77.9685 250.996 74.9803 251.747L74.6917 251.795Z" fill="white"/>
<path d="M447.491 151.818C447.491 151.217 447.467 150.592 447.442 149.967L455.331 143.641C454.717 140.515 453.757 137.466 452.469 134.551L442.272 133.781C439.95 130.131 436.955 126.956 433.445 124.426L433.397 114.252C430.528 112.744 427.493 111.574 424.355 110.765L417.404 118.269C416.202 118.148 414.975 118.076 413.724 118.076C410.735 118.074 407.759 118.47 404.874 119.255L396.865 112.93C393.869 114.228 391.035 115.875 388.424 117.836L389.939 127.913C386.93 130.894 384.514 134.42 382.82 138.302L372.864 140.587C372.008 143.719 371.515 146.939 371.396 150.183L380.151 155.234C380.587 159.566 381.862 163.773 383.902 167.619L379.525 176.806C381.398 179.379 383.56 181.728 385.971 183.805L395.35 180.125C399.109 182.578 403.32 184.254 407.736 185.055L412.161 194.17H413.749C416.355 194.174 418.956 193.933 421.517 193.449L424.499 183.805C428.795 182.361 432.755 180.062 436.139 177.047L446.024 179.259C448.051 176.87 449.809 174.265 451.266 171.491L445.543 163.098C446.828 159.476 447.487 155.662 447.491 151.818ZM413.364 166.705C410.553 166.705 407.804 165.872 405.467 164.31C403.13 162.748 401.308 160.528 400.232 157.931C399.156 155.334 398.875 152.476 399.423 149.719C399.972 146.962 401.325 144.429 403.313 142.441C405.301 140.454 407.834 139.1 410.591 138.551C413.348 138.003 416.206 138.284 418.803 139.36C421.4 140.436 423.62 142.258 425.182 144.595C426.744 146.933 427.577 149.681 427.577 152.492C427.571 156.26 426.071 159.871 423.407 162.535C420.743 165.199 417.131 166.699 413.364 166.705Z" fill="#5577E8"/>
<path d="M619.279 385.464C569.255 383.011 399.102 387.147 347.371 388.758C295.639 390.37 235.538 386.642 204.345 381.135C173.153 375.627 -7.2222 381.592 0.978835 396.406C9.17987 411.221 81.3298 403.02 163.172 408.984C245.014 414.949 429.092 408.239 470.603 408.984C512.113 409.73 550.208 407.493 603.719 404.511C657.23 401.529 648.26 386.883 619.279 385.464Z" fill="#EBEBEB"/>
<path d="M108.025 75.7727H3.48022V247.146H108.025V75.7727Z" fill="#4790F7"/>
<path d="M104.61 79.2598H8.96362V240.609H104.61V79.2598Z" fill="#FAFAFA"/>
<path d="M37.5593 143.955C41.1668 136.211 47.2515 133.733 57.2563 133.733C69.185 133.733 75.3659 138.062 77.1215 144.339C55.7892 144.628 37.5593 143.955 37.5593 143.955Z" fill="#9BD6E8"/>
<path d="M53.0953 96.0709C48.0689 97.4899 48.2853 100.328 46.6018 102.949C44.9183 105.571 41.2627 107.326 40.8298 109.082C40.3969 110.838 41.9602 114.493 40.1083 116.537C38.2565 118.582 37.6071 119.616 38.3527 121.66C39.0982 123.704 40.6855 126.927 40.8298 127.36C40.9741 127.793 43.0184 130.871 45.4955 131.304C47.9727 131.737 52.6624 132.483 54.9953 133.493C57.3281 134.503 64.8557 132.194 69.0404 132.338C73.2251 132.483 76.039 129.404 75.7504 127.36C75.4618 125.316 78.8288 121.227 78.8288 117.716C78.8288 114.205 74.4276 111.126 73.2732 108.649C72.1188 106.172 73.4175 101.795 69.0404 99.1974C66.2506 97.538 64.3507 97.7063 62.1622 96.9608C59.9736 96.2152 56.318 95.1811 53.0953 96.0709Z" fill="#3A384D"/>
<path d="M59.2277 139.914C58.0974 141.597 57.2556 141.67 56.0291 139.914C55.043 138.519 53.095 135.369 53.095 133.757V117.716C53.095 117.331 53.1709 116.949 53.3183 116.593C53.4658 116.237 53.6819 115.914 53.9543 115.641C54.2268 115.369 54.5503 115.153 54.9062 115.005C55.2622 114.858 55.6438 114.782 56.0291 114.782H59.2277C60.0059 114.782 60.7522 115.091 61.3024 115.641C61.8527 116.191 62.1618 116.938 62.1618 117.716V133.757C62.1618 135.369 60.2619 138.423 59.2277 139.914Z" fill="#F09959"/>
<path d="M59.2277 114.782H56.0291C55.2509 114.782 54.5046 115.091 53.9543 115.641C53.4041 116.191 53.095 116.938 53.095 117.716V132.026C56.7025 133.18 59.9973 130.895 62.1618 128.322V117.716C62.1618 116.938 61.8527 116.191 61.3024 115.641C60.7522 115.091 60.0059 114.782 59.2277 114.782Z" fill="#E38540"/>
<path d="M57.6407 128.202C63.0068 128.202 67.3569 122.269 67.3569 114.951C67.3569 107.632 63.0068 101.699 57.6407 101.699C52.2746 101.699 47.9246 107.632 47.9246 114.951C47.9246 122.269 52.2746 128.202 57.6407 128.202Z" fill="#F09959"/>
<path d="M62.1622 104.416C56.0295 114.781 46.9626 113.771 46.9626 113.771C46.9626 113.771 47.1791 100.039 54.37 99.2933C61.561 98.5477 65.8178 101.458 67.2849 106.22C68.7519 110.982 67.2849 114.132 67.2849 114.132C65.7521 112.857 64.548 111.232 63.7736 109.394C63.1072 107.779 62.5684 106.115 62.1622 104.416Z" fill="#3A384D"/>
<path d="M48.2381 119.308C49.51 118.704 49.8066 116.668 48.9008 114.76C47.9949 112.852 46.2295 111.795 44.9577 112.399C43.6858 113.003 43.3891 115.039 44.295 116.947C45.2009 118.855 46.9663 119.912 48.2381 119.308Z" fill="#F09959"/>
<path d="M65.9135 114.758C64.9996 116.658 65.3122 118.702 66.5869 119.303C67.8615 119.905 69.6172 118.846 70.5311 116.946C71.445 115.046 71.1564 112.978 69.8817 112.377C68.6071 111.776 66.8274 112.834 65.9135 114.758Z" fill="#F09959"/>
<path d="M69.2084 164.974H44.6533C43.9427 164.909 43.2821 164.58 42.8011 164.053C42.3201 163.526 42.0535 162.838 42.0535 162.124C42.0535 161.41 42.3201 160.723 42.8011 160.195C43.2821 159.668 43.9427 159.34 44.6533 159.274H69.2084C69.919 159.34 70.5796 159.668 71.0606 160.195C71.5416 160.723 71.8082 161.41 71.8082 162.124C71.8082 162.838 71.5416 163.526 71.0606 164.053C70.5796 164.58 69.919 164.909 69.2084 164.974Z" fill="#5577E8"/>
<path d="M73.6824 173.728H40.1568C39.4461 173.663 38.7855 173.334 38.3045 172.807C37.8235 172.28 37.5569 171.592 37.5569 170.878C37.5569 170.164 37.8235 169.476 38.3045 168.949C38.7855 168.422 39.4461 168.093 40.1568 168.028H73.6824C74.0787 167.992 74.4782 168.038 74.8554 168.165C75.2327 168.292 75.5793 168.496 75.8733 168.764C76.1673 169.032 76.4021 169.358 76.5628 169.723C76.7235 170.087 76.8064 170.48 76.8064 170.878C76.8064 171.276 76.7235 171.67 76.5628 172.034C76.4021 172.398 76.1673 172.724 75.8733 172.992C75.5793 173.261 75.2327 173.465 74.8554 173.591C74.4782 173.718 74.0787 173.764 73.6824 173.728Z" fill="#5577E8"/>
<path d="M97.7075 205.258H16.154C15.921 205.286 15.6846 205.265 15.4605 205.195C15.2364 205.125 15.0297 205.008 14.854 204.853C14.6783 204.697 14.5376 204.506 14.4413 204.292C14.345 204.077 14.2952 203.845 14.2952 203.611C14.2952 203.376 14.345 203.144 14.4413 202.93C14.5376 202.716 14.6783 202.524 14.854 202.369C15.0297 202.213 15.2364 202.096 15.4605 202.026C15.6846 201.957 15.921 201.935 16.154 201.963H97.7075C97.9405 201.935 98.1769 201.957 98.401 202.026C98.6251 202.096 98.8318 202.213 99.0075 202.369C99.1832 202.524 99.3239 202.716 99.4202 202.93C99.5165 203.144 99.5663 203.376 99.5663 203.611C99.5663 203.845 99.5165 204.077 99.4202 204.292C99.3239 204.506 99.1832 204.697 99.0075 204.853C98.8318 205.008 98.6251 205.125 98.401 205.195C98.1769 205.265 97.9405 205.286 97.7075 205.258Z" fill="#5577E8"/>
<path d="M97.7075 212.953H16.154C15.921 212.982 15.6846 212.96 15.4605 212.89C15.2364 212.82 15.0297 212.704 14.854 212.548C14.6783 212.392 14.5376 212.201 14.4413 211.987C14.345 211.773 14.2952 211.541 14.2952 211.306C14.2952 211.071 14.345 210.839 14.4413 210.625C14.5376 210.411 14.6783 210.22 14.854 210.064C15.0297 209.908 15.2364 209.792 15.4605 209.722C15.6846 209.652 15.921 209.63 16.154 209.659H97.7075C97.9405 209.63 98.1769 209.652 98.401 209.722C98.6251 209.792 98.8318 209.908 99.0075 210.064C99.1832 210.22 99.3239 210.411 99.4202 210.625C99.5165 210.839 99.5663 211.071 99.5663 211.306C99.5663 211.541 99.5165 211.773 99.4202 211.987C99.3239 212.201 99.1832 212.392 99.0075 212.548C98.8318 212.704 98.6251 212.82 98.401 212.89C98.1769 212.96 97.9405 212.982 97.7075 212.953Z" fill="#5577E8"/>
<path d="M97.7075 220.649H16.1541C15.714 220.649 15.2919 220.475 14.9807 220.163C14.6695 219.852 14.4946 219.43 14.4946 218.99C14.4946 218.55 14.6695 218.128 14.9807 217.817C15.2919 217.505 15.714 217.331 16.1541 217.331H97.7075C98.1476 217.331 98.5697 217.505 98.8809 217.817C99.1921 218.128 99.367 218.55 99.367 218.99C99.367 219.43 99.1921 219.852 98.8809 220.163C98.5697 220.475 98.1476 220.649 97.7075 220.649Z" fill="#5577E8"/>
<path d="M86.3084 145.878H27.5543C26.7717 145.872 26.023 145.558 25.4696 145.005C24.9162 144.452 24.6025 143.703 24.5962 142.92V88.7838C24.5962 88.3954 24.6727 88.0107 24.8214 87.6518C24.97 87.2929 25.1879 86.9668 25.4626 86.6921C25.7373 86.4174 26.0634 86.1995 26.4223 86.0509C26.7812 85.9022 27.1659 85.8257 27.5543 85.8257H86.3084C87.0888 85.832 87.835 86.1465 88.3846 86.7006C88.9342 87.2546 89.2425 88.0034 89.2425 88.7838V142.92C89.2425 143.701 88.9342 144.449 88.3846 145.004C87.835 145.558 87.0888 145.872 86.3084 145.878ZM27.5543 88.2307C27.4076 88.2307 27.2669 88.289 27.1632 88.3927C27.0595 88.4964 27.0012 88.6371 27.0012 88.7838V142.92C27.0071 143.065 27.0673 143.202 27.1698 143.305C27.2722 143.407 27.4095 143.468 27.5543 143.473H86.3084C86.4509 143.467 86.5855 143.406 86.6841 143.303C86.7827 143.2 86.8376 143.063 86.8375 142.92V88.7838C86.8408 88.7124 86.8295 88.641 86.8043 88.574C86.7792 88.507 86.7408 88.4458 86.6913 88.3941C86.6418 88.3423 86.5824 88.3012 86.5166 88.2731C86.4508 88.2451 86.38 88.2306 86.3084 88.2307H27.5543Z" fill="#C6C6C6"/>
<path d="M36.0436 181.184L37.7271 184.623L41.527 185.176L38.7853 187.87L39.4346 191.646L36.0436 189.866L32.6285 191.646L33.2778 187.87L30.5361 185.176L34.336 184.623L36.0436 181.184Z" fill="#5577E8"/>
<path d="M49.9689 181.184L51.6764 184.623L55.4763 185.176L52.7106 187.87L53.3599 191.646L49.9689 189.866L46.5538 191.646L47.2031 187.87L44.4614 185.176L48.2613 184.623L49.9689 181.184Z" fill="#5577E8"/>
<path d="M63.8937 181.184L65.6012 184.623L69.4011 185.176L66.6354 187.87L67.2847 191.646L63.8937 189.866L60.5026 191.646L61.152 187.87L58.3862 185.176L62.1861 184.623L63.8937 181.184Z" fill="#5577E8"/>
<path d="M77.8187 181.184L79.5263 184.623L83.3262 185.176L80.5845 187.87L81.2338 191.646L77.8187 189.866L74.4277 191.646L75.077 187.87L72.3113 185.176L76.1112 184.623L77.8187 181.184Z" fill="#5577E8"/>
<path d="M341.118 75.7727H236.573V247.146H341.118V75.7727Z" fill="#4790F7"/>
<path d="M337.702 79.2598H242.056V240.609H337.702V79.2598Z" fill="#FAFAFA"/>
<path d="M275.196 114.085C275.196 121.757 279.814 134.143 290.733 133.734C301.651 133.325 304.032 121.54 304.465 118.197C304.898 114.855 275.196 114.085 275.196 114.085Z" fill="#7A4E34"/>
<path d="M270.651 143.955C274.259 136.211 280.343 133.733 290.348 133.733C302.277 133.733 308.458 138.062 310.213 144.339C288.881 144.628 270.651 143.955 270.651 143.955Z" fill="#D54A41"/>
<path d="M292.344 139.914C291.19 141.597 290.348 141.67 289.122 139.914C288.136 138.519 286.188 135.369 286.188 133.757V117.716C286.187 117.331 286.263 116.949 286.411 116.593C286.558 116.237 286.774 115.914 287.047 115.641C287.319 115.369 287.643 115.153 287.999 115.005C288.355 114.858 288.736 114.782 289.122 114.782H292.344C293.118 114.788 293.858 115.1 294.403 115.65C294.949 116.199 295.254 116.942 295.254 117.716V133.757C295.254 135.369 293.354 138.423 292.344 139.914Z" fill="#F09959"/>
<path d="M292.344 114.782H289.122C288.736 114.782 288.355 114.858 287.999 115.005C287.643 115.153 287.319 115.369 287.047 115.641C286.774 115.914 286.558 116.237 286.411 116.593C286.263 116.949 286.187 117.331 286.188 117.716V132.026C289.795 133.18 293.09 130.895 295.254 128.322V117.716C295.254 116.942 294.949 116.199 294.403 115.65C293.858 115.1 293.118 114.788 292.344 114.782Z" fill="#E38540"/>
<path d="M290.733 128.202C296.099 128.202 300.449 122.269 300.449 114.951C300.449 107.632 296.099 101.699 290.733 101.699C285.366 101.699 281.016 107.632 281.016 114.951C281.016 122.269 285.366 128.202 290.733 128.202Z" fill="#F09959"/>
<path d="M296.072 104.897C294.918 108.962 292.392 108.914 288.857 110.26C285.322 111.607 283.638 112.93 282.484 115.527C281.017 118.87 283.157 128.538 283.157 128.538C283.157 128.538 274.211 121.852 275.245 111.343C276.279 100.833 282.484 96.7683 288.328 96.7683C294.172 96.7683 296.361 100.304 296.361 100.304C296.361 100.304 299.487 100.328 302.421 103.815C306.365 108.481 305.163 119.856 302.421 123.921C299.68 127.985 297.852 129.284 297.924 129.091C297.996 128.899 300.473 119.568 299.126 113.772C297.78 107.976 296.072 104.897 296.072 104.897Z" fill="#7A4E34"/>
<path d="M302.301 164.974H277.746C277.035 164.909 276.375 164.58 275.894 164.053C275.413 163.526 275.146 162.838 275.146 162.124C275.146 161.41 275.413 160.723 275.894 160.195C276.375 159.668 277.035 159.34 277.746 159.274H302.301C303.012 159.34 303.672 159.668 304.153 160.195C304.634 160.723 304.901 161.41 304.901 162.124C304.901 162.838 304.634 163.526 304.153 164.053C303.672 164.58 303.012 164.909 302.301 164.974Z" fill="#5577E8"/>
<path d="M306.798 173.728H273.273C272.876 173.764 272.477 173.718 272.1 173.591C271.722 173.465 271.376 173.261 271.082 172.992C270.788 172.724 270.553 172.398 270.392 172.034C270.232 171.67 270.149 171.276 270.149 170.878C270.149 170.48 270.232 170.087 270.392 169.723C270.553 169.358 270.788 169.032 271.082 168.764C271.376 168.496 271.722 168.292 272.1 168.165C272.477 168.038 272.876 167.992 273.273 168.028H306.798C307.509 168.093 308.17 168.422 308.651 168.949C309.132 169.476 309.398 170.164 309.398 170.878C309.398 171.592 309.132 172.28 308.651 172.807C308.17 173.334 307.509 173.663 306.798 173.728Z" fill="#5577E8"/>
<path d="M330.8 205.258H249.246C249.013 205.286 248.777 205.265 248.553 205.195C248.329 205.125 248.122 205.008 247.946 204.853C247.771 204.697 247.63 204.506 247.534 204.292C247.437 204.077 247.387 203.845 247.387 203.611C247.387 203.376 247.437 203.144 247.534 202.93C247.63 202.716 247.771 202.524 247.946 202.369C248.122 202.213 248.329 202.096 248.553 202.026C248.777 201.957 249.013 201.935 249.246 201.963H330.8C331.033 201.935 331.269 201.957 331.493 202.026C331.717 202.096 331.924 202.213 332.1 202.369C332.276 202.524 332.416 202.716 332.512 202.93C332.609 203.144 332.659 203.376 332.659 203.611C332.659 203.845 332.609 204.077 332.512 204.292C332.416 204.506 332.276 204.697 332.1 204.853C331.924 205.008 331.717 205.125 331.493 205.195C331.269 205.265 331.033 205.286 330.8 205.258Z" fill="#5577E8"/>
<path d="M330.8 212.953H249.246C249.013 212.982 248.777 212.96 248.553 212.89C248.329 212.82 248.122 212.704 247.946 212.548C247.771 212.392 247.63 212.201 247.534 211.987C247.437 211.773 247.387 211.541 247.387 211.306C247.387 211.071 247.437 210.839 247.534 210.625C247.63 210.411 247.771 210.22 247.946 210.064C248.122 209.908 248.329 209.792 248.553 209.722C248.777 209.652 249.013 209.63 249.246 209.659H330.8C331.033 209.63 331.269 209.652 331.493 209.722C331.717 209.792 331.924 209.908 332.1 210.064C332.276 210.22 332.416 210.411 332.512 210.625C332.609 210.839 332.659 211.071 332.659 211.306C332.659 211.541 332.609 211.773 332.512 211.987C332.416 212.201 332.276 212.392 332.1 212.548C331.924 212.704 331.717 212.82 331.493 212.89C331.269 212.96 331.033 212.982 330.8 212.953Z" fill="#5577E8"/>
<path d="M330.8 220.649H249.247C248.807 220.649 248.385 220.475 248.073 220.163C247.762 219.852 247.587 219.43 247.587 218.99C247.587 218.55 247.762 218.128 248.073 217.817C248.385 217.505 248.807 217.331 249.247 217.331H330.8C331.24 217.331 331.662 217.505 331.974 217.817C332.285 218.128 332.46 218.55 332.46 218.99C332.46 219.43 332.285 219.852 331.974 220.163C331.662 220.475 331.24 220.649 330.8 220.649Z" fill="#5577E8"/>
<path d="M319.4 145.878H260.646C259.864 145.872 259.115 145.558 258.562 145.005C258.008 144.452 257.695 143.703 257.688 142.92V88.7838C257.695 88.0012 258.008 87.2525 258.562 86.6991C259.115 86.1456 259.864 85.832 260.646 85.8257H319.4C320.183 85.832 320.932 86.1456 321.485 86.6991C322.039 87.2525 322.352 88.0012 322.359 88.7838V142.92C322.352 143.703 322.039 144.452 321.485 145.005C320.932 145.558 320.183 145.872 319.4 145.878ZM260.646 88.2307C260.5 88.2307 260.359 88.289 260.255 88.3927C260.151 88.4964 260.093 88.6371 260.093 88.7838V142.92C260.099 143.065 260.159 143.202 260.262 143.305C260.364 143.407 260.502 143.468 260.646 143.473H319.4C319.545 143.468 319.683 143.407 319.785 143.305C319.887 143.202 319.948 143.065 319.954 142.92V88.7838C319.954 88.6371 319.895 88.4964 319.792 88.3927C319.688 88.289 319.547 88.2307 319.4 88.2307H260.646Z" fill="#C6C6C6"/>
<path d="M269.136 181.184L270.843 184.623L274.643 185.176L271.877 187.87L272.527 191.646L269.136 189.866L265.721 191.646L266.37 187.87L263.628 185.176L267.428 184.623L269.136 181.184Z" fill="#5577E8"/>
<path d="M283.061 181.184L284.768 184.623L288.568 185.176L285.802 187.87L286.452 191.646L283.061 189.866L279.67 191.646L280.319 187.87L277.553 185.176L281.353 184.623L283.061 181.184Z" fill="#5577E8"/>
<path d="M296.986 181.184L298.694 184.623L302.493 185.176L299.752 187.87L300.401 191.646L296.986 189.866L293.595 191.646L294.244 187.87L291.479 185.176L295.278 184.623L296.986 181.184Z" fill="#5577E8"/>
<path d="M310.911 181.184L312.618 184.623L316.418 185.176L313.676 187.87L314.326 191.646L310.911 189.866L307.52 191.646L308.169 187.87L305.403 185.176L309.227 184.623L310.911 181.184Z" fill="#5577E8"/>
<path opacity="0.2" d="M248.333 245.422H83.3262L94.9904 76.3984H254.273L248.333 245.422Z" fill="#99BBEB"/>
<path d="M243.474 44.4351H100.666V278.504H243.474V44.4351Z" fill="#4790F7"/>
<path d="M238.785 49.198H108.146V269.577H238.785V49.198Z" fill="#FAFAFA"/>
<path d="M161.272 95.4942C161.176 95.2057 158.891 82.0744 158.627 76.9758C158.362 71.8772 166.828 71.1316 166.828 71.1316C166.828 71.1316 173.754 67.4039 178.781 69.3279C183.329 70.9911 187.128 74.2349 189.483 78.4669C191.768 82.4832 187.463 94.9892 187.463 94.9892L161.272 95.4942Z" fill="#2E2D3D"/>
<path d="M145.568 137.653C145.519 137.437 146.145 132.266 146.169 132.073C147.323 121.179 160.743 118.125 174.115 118.125C189.844 118.125 200.498 121.011 202.205 132.314C202.253 132.651 203.167 137.821 203.119 138.182C173.971 138.567 145.568 137.653 145.568 137.653Z" fill="#D5E1E8"/>
<path d="M176.808 126.567C175.245 128.876 174.115 128.972 172.431 126.567C171.084 124.667 166.587 120.338 166.587 118.125L168.439 96.2399C168.439 95.181 168.859 94.1656 169.608 93.4169C170.357 92.6682 171.372 92.2476 172.431 92.2476H176.808C177.865 92.2539 178.877 92.6765 179.624 93.4238C180.371 94.1712 180.794 95.183 180.8 96.2399L181.666 118.125C181.666 120.338 178.203 124.523 176.808 126.567Z" fill="#F09959"/>
<path d="M176.808 92.2476H172.431C171.372 92.2476 170.357 92.6682 169.608 93.4169C168.859 94.1656 168.439 95.181 168.439 96.2399L166.827 115.648C171.758 117.235 178.419 114.037 181.354 110.526L180.8 96.2399C180.794 95.183 180.371 94.1712 179.624 93.4238C178.877 92.6765 177.865 92.2539 176.808 92.2476Z" fill="#E38540"/>
<path d="M159.54 119.736L166.587 132.747C166.587 132.747 170.363 129.644 170.723 130.245C171.084 130.847 170.05 138.519 170.05 138.519C170.05 138.519 178.443 138.639 178.804 138.278C179.165 137.917 177.097 129.933 177.962 129.933C178.828 129.933 181.353 132.242 181.353 132.242L189.218 119.736L187.486 119.303L174.619 126.229L160.839 119.447L159.54 119.736Z" fill="#BDCCD4"/>
<path d="M167.597 125.724L172.816 129.236L171.205 138.543L178.251 138.134L176.496 129.668L180.825 125.724L178.804 123.8H169.641L167.597 125.724Z" fill="#D54A41"/>
<path d="M166.948 113.339L160.478 119.495C160.478 119.495 167.068 131.208 167.429 131.208C167.789 131.208 173.032 124.762 173.032 124.762L176.375 124.69L181.666 130.246L187.799 119.375L181.546 112.737C181.546 112.737 176.183 123.079 175.221 123.319C174.259 123.56 174.235 123.68 173.441 123.079C172.648 122.478 166.948 113.339 166.948 113.339Z" fill="#D5E1E8"/>
<path d="M174.62 110.55C181.951 110.55 187.895 102.452 187.895 92.464C187.895 82.4756 181.951 74.3784 174.62 74.3784C167.288 74.3784 161.344 82.4756 161.344 92.464C161.344 102.452 167.288 110.55 174.62 110.55Z" fill="#F09959"/>
<path d="M162.715 92.1983C163.942 94.7957 163.533 97.5855 161.801 98.4272C160.069 99.269 157.64 97.8019 156.39 95.1805C155.139 92.559 155.548 89.7933 157.304 88.9516C159.059 88.1098 161.464 89.5769 162.715 92.1983Z" fill="#F09959"/>
<path d="M185.923 92.1983C184.697 94.7957 185.106 97.5855 186.837 98.4272C188.569 99.269 190.998 97.8019 192.248 95.1805C193.499 92.559 193.066 89.7933 191.334 88.9516C189.603 88.1098 187.174 89.5769 185.923 92.1983Z" fill="#F09959"/>
<path d="M166.828 80.1737C172.311 76.3497 174.764 76.975 178.877 83.2761C182.989 89.5772 187.895 89.6734 187.895 89.6734L188.521 83.1559C188.521 83.1559 182.412 71.3233 174.211 72.8625C166.01 74.4017 161.344 81.8091 161.344 81.8091C161.344 81.8091 160.935 95.6378 162.09 96.1188C163.244 96.5998 163.364 91.6455 164.182 90.6595C165 89.6734 163.364 84.9115 164.471 82.723C165.577 80.5344 166.828 80.1737 166.828 80.1737Z" fill="#2E2D3D"/>
<path d="M184.433 87.2686C186.333 89.3609 185.611 97.6822 186.621 97.586C187.631 97.4898 187.992 89.6495 187.703 88.8318C187.415 88.0141 184.433 87.2686 184.433 87.2686Z" fill="#2E2D3D"/>
<path d="M204.129 166.249H143.186C142.153 166.249 141.162 165.838 140.431 165.108C139.701 164.377 139.29 163.386 139.29 162.353C139.29 161.319 139.701 160.328 140.431 159.598C141.162 158.867 142.153 158.457 143.186 158.457H204.129C205.162 158.457 206.153 158.867 206.884 159.598C207.615 160.328 208.025 161.319 208.025 162.353C208.025 163.386 207.615 164.377 206.884 165.108C206.153 165.838 205.162 166.249 204.129 166.249Z" fill="#5577E8"/>
<path d="M196.553 178.225H150.762C149.729 178.225 148.738 177.815 148.007 177.084C147.276 176.353 146.866 175.362 146.866 174.329C146.866 173.296 147.276 172.305 148.007 171.574C148.738 170.843 149.729 170.433 150.762 170.433H196.553C197.587 170.433 198.578 170.843 199.308 171.574C200.039 172.305 200.449 173.296 200.449 174.329C200.449 175.362 200.039 176.353 199.308 177.084C198.578 177.815 197.587 178.225 196.553 178.225Z" fill="#5577E8"/>
<path d="M229.358 221.298H117.958C117.359 221.298 116.784 221.06 116.36 220.636C115.936 220.212 115.698 219.637 115.698 219.038C115.698 218.438 115.936 217.863 116.36 217.439C116.784 217.015 117.359 216.777 117.958 216.777H229.358C229.957 216.777 230.532 217.015 230.956 217.439C231.38 217.863 231.618 218.438 231.618 219.038C231.618 219.637 231.38 220.212 230.956 220.636C230.532 221.06 229.957 221.298 229.358 221.298Z" fill="#5577E8"/>
<path d="M229.358 231.809H117.958C117.661 231.809 117.367 231.751 117.093 231.637C116.819 231.524 116.57 231.357 116.36 231.147C116.15 230.937 115.983 230.688 115.87 230.414C115.756 230.14 115.698 229.846 115.698 229.549C115.698 229.252 115.756 228.958 115.87 228.684C115.983 228.409 116.15 228.16 116.36 227.95C116.57 227.74 116.819 227.574 117.093 227.46C117.367 227.347 117.661 227.288 117.958 227.288H229.358C229.957 227.288 230.532 227.526 230.956 227.95C231.38 228.374 231.618 228.949 231.618 229.549C231.618 230.148 231.38 230.723 230.956 231.147C230.532 231.571 229.957 231.809 229.358 231.809Z" fill="#5577E8"/>
<path d="M229.358 242.319H117.958C117.359 242.319 116.784 242.081 116.36 241.657C115.936 241.233 115.698 240.658 115.698 240.058C115.698 239.459 115.936 238.884 116.36 238.46C116.784 238.036 117.359 237.798 117.958 237.798H229.358C229.957 237.798 230.532 238.036 230.956 238.46C231.38 238.884 231.618 239.459 231.618 240.058C231.618 240.658 231.38 241.233 230.956 241.657C230.532 242.081 229.957 242.319 229.358 242.319Z" fill="#5577E8"/>
<path d="M213.773 139.723H133.542C132.592 139.723 131.68 139.345 131.008 138.673C130.336 138.001 129.959 137.09 129.959 136.139V62.1857C129.959 61.2353 130.336 60.3239 131.008 59.6519C131.68 58.9798 132.592 58.6023 133.542 58.6023H213.773C214.726 58.6023 215.639 58.979 216.315 59.6504C216.991 60.3217 217.374 61.2331 217.38 62.1857V136.139C217.374 137.092 216.991 138.003 216.315 138.675C215.639 139.346 214.726 139.723 213.773 139.723ZM133.542 61.0073C133.23 61.0073 132.93 61.1314 132.709 61.3524C132.488 61.5734 132.364 61.8732 132.364 62.1857V136.139C132.364 136.452 132.488 136.752 132.709 136.973C132.93 137.194 133.23 137.318 133.542 137.318H213.773C214.088 137.318 214.39 137.195 214.615 136.974C214.84 136.754 214.969 136.454 214.975 136.139V62.1857C214.969 61.871 214.84 61.5713 214.615 61.3509C214.39 61.1306 214.088 61.0072 213.773 61.0073H133.542Z" fill="#C6C6C6"/>
<path d="M135.466 188.399L137.775 193.089L142.97 193.858L139.218 197.514L140.108 202.685L135.466 200.256L130.825 202.685L131.691 197.514L127.939 193.858L133.134 193.089L135.466 188.399Z" fill="#5577E8"/>
<path d="M154.49 188.399L156.799 193.089L161.993 193.858L158.242 197.514L159.131 202.685L154.49 200.256L149.848 202.685L150.714 197.514L146.962 193.858L152.157 193.089L154.49 188.399Z" fill="#5577E8"/>
<path d="M173.513 188.399L175.822 193.089L181.017 193.858L177.265 197.514L178.155 202.685L173.513 200.256L168.872 202.685L169.738 197.514L165.986 193.858L171.181 193.089L173.513 188.399Z" fill="#5577E8"/>
<path d="M192.537 188.399L194.846 193.089L200.041 193.858L196.289 197.514L197.179 202.685L192.537 200.256L187.896 202.685L188.785 197.514L185.01 193.858L190.204 193.089L192.537 188.399Z" fill="#5577E8"/>
<path d="M211.849 188.399L214.182 193.089L219.377 193.858L215.625 197.514L216.515 202.685L211.849 200.256L207.207 202.685L208.097 197.514L204.345 193.858L209.54 193.089L211.849 188.399Z" fill="#5577E8"/>
<path d="M472.815 263.988H289.579C288.476 263.988 287.583 264.882 287.583 265.984V268.969C287.583 270.071 288.476 270.965 289.579 270.965H472.815C473.918 270.965 474.812 270.071 474.812 268.969V265.984C474.812 264.882 473.918 263.988 472.815 263.988Z" fill="#2E5B9A"/>
<path d="M520.001 170.482C522.479 179.236 516.418 188.255 509.732 190.155C503.046 192.055 498.284 186.091 495.807 177.336C493.33 168.582 496.721 159.948 503.407 158.072C510.093 156.196 517.524 161.728 520.001 170.482Z" fill="#F09959"/>
<path d="M482.555 340.105C482.555 340.105 499.679 366.705 501.988 367.859C504.297 369.014 510.069 369.302 507.904 373.631C505.74 377.96 504.874 395.036 502.854 395.901C500.833 396.767 483.493 398.787 486.091 395.901C488.688 393.015 490.275 394.458 491.598 389.24C492.921 384.021 494.749 374.208 492.296 372.188C489.842 370.168 474.811 351.962 474.811 351.962L482.555 340.105Z" fill="#F09959"/>
<path d="M396.384 351.53C396.384 351.53 375.557 385.825 371.709 388.903C367.861 391.982 355.139 396.624 365.552 397.393C375.966 398.163 380.968 393.93 387.51 392.006C394.052 390.082 402.156 388.903 399.078 383.901C396 378.899 397.274 367.956 403.912 361.005C410.55 354.055 396.384 351.53 396.384 351.53Z" fill="#F09959"/>
<path d="M502.589 271.996C502.589 271.996 451.074 270.649 430.632 287.412C418.679 305.522 389.795 358.961 387.534 364.853C389.073 366.392 397.755 369.182 401.603 368.797C412.979 355.233 428.01 343.521 433.975 332.891C441.358 319.784 443.619 313.218 455.572 312.064C467.524 310.909 494.484 307.061 502.589 307.061C510.694 307.061 502.589 271.996 502.589 271.996Z" fill="#36383A"/>
<path d="M547.515 397.49H544.821L525.437 316.682H531.377L547.515 397.49Z" fill="#2E5B9A"/>
<path d="M466.611 397.49H469.304L491.526 313.82H485.586L466.611 397.49Z" fill="#2E5B9A"/>
<path d="M531.93 268.46L501.988 273.631C501.988 273.631 462.185 273.992 443.979 277.383C427.433 280.461 424.98 299.268 443.979 325.17C454.778 339.889 463.893 351.625 482.555 364.853C487.293 361.365 489.121 360.043 490.42 351.673C489.073 349.822 485.586 338.229 484.479 335.969C474.162 314.396 460.405 306.556 460.213 304.439C462.522 300.663 521.468 324.016 533.181 310.283C544.364 297.176 531.93 268.46 531.93 268.46Z" fill="#4C4D4F"/>
<path d="M533.18 200.64C525.292 199.534 517.259 201.049 509.732 206.484C503.166 213.17 495.735 224.209 496.192 242.415C496.769 265.551 492.632 267.018 496.961 273.391C515.047 280.847 545.975 312.929 538.688 278.538C533.421 253.622 550.256 235.08 536.668 207.446C535.561 205.186 534.19 203.021 533.18 200.64Z" fill="#2F60BF"/>
<path d="M496.192 251.121C495.855 263.17 494.148 266.729 495.446 270.505C502.806 271.251 516.298 274.209 519.665 278.923C523.537 284.31 527.385 285.079 525.581 281.111C523.777 277.143 519.039 271.467 526.35 252.083C533.662 232.698 537.149 219.567 529.958 206.075L496.192 251.121Z" fill="#1348AF"/>
<path d="M533.181 200.64C528.323 189.144 527.12 176.229 527.12 176.229L514.422 179.981C514.422 179.981 521.637 196.166 514.711 201.962C512.973 203.382 511.312 204.891 509.732 206.484C517.26 201.049 525.293 199.533 533.181 200.64Z" fill="#F09959"/>
<path d="M527.505 179.284L524.836 176.903L514.446 179.981V180.029C514.711 180.606 517.356 186.763 517.693 192.703C520.795 190.828 524.162 187.773 528.035 182.41L527.505 179.284Z" fill="#E38540"/>
<path d="M524.234 204.273C511.151 208.842 512.594 222.647 500.545 242.993C494.292 253.527 488.496 253.383 488.496 253.383C477.691 253.313 466.899 252.622 456.173 251.315C445.086 249.968 444.388 253.263 452.084 256.028C467.645 261.584 483.782 267.572 496.769 266.129C509.756 264.686 532.026 231.497 533.181 222.839C534.768 210.911 530.824 201.964 524.234 204.273Z" fill="#F09959"/>
<path d="M517.5 320.048H514.999C504.321 319.783 497.058 318.316 491.214 317.114C484.383 315.743 480.632 314.973 476.255 317.066C475.448 317.448 474.522 317.495 473.681 317.195C472.839 316.895 472.152 316.273 471.769 315.466C471.387 314.659 471.34 313.733 471.64 312.892C471.94 312.051 472.562 311.364 473.369 310.981C479.766 307.927 485.129 309.009 492.56 310.524C498.14 311.654 505.066 313.073 515.143 313.314C526.447 313.602 533.325 311.919 536.812 308.047C539.915 304.608 540.829 298.812 539.674 289.841C539.265 286.763 538.881 284.213 538.52 281.953C537.534 275.579 536.884 271.371 537.702 264.877C538.448 258.841 540.444 250.808 545.086 235.199C545.195 234.757 545.393 234.342 545.668 233.978C545.943 233.615 546.288 233.311 546.684 233.085C547.079 232.859 547.517 232.716 547.969 232.664C548.422 232.612 548.88 232.652 549.317 232.782C549.753 232.913 550.159 233.13 550.509 233.422C550.859 233.713 551.146 234.073 551.353 234.479C551.56 234.885 551.683 235.328 551.713 235.783C551.744 236.238 551.682 236.694 551.531 237.123C542.897 266.176 543.33 269.014 545.182 280.918C545.542 283.203 545.951 285.825 546.336 288.975C547.779 300.062 546.336 307.542 541.815 312.568C537.293 317.595 529.597 320.048 517.5 320.048Z" fill="#2E5B9A"/>
<path d="M397.803 380.438C383.975 387.197 376.543 391.069 372.118 390.684C371.084 390.612 370.218 390.491 369.497 390.395C364.566 393.305 356.702 396.744 365.552 397.394C375.942 398.163 380.968 393.931 387.51 392.007C394.052 390.083 402.156 388.904 399.078 383.902C398.439 382.838 398.007 381.663 397.803 380.438Z" fill="#233A67"/>
<path d="M503.479 368.414C503.142 379.356 501.651 390.179 494.965 392.247C493.402 392.727 491.753 392.867 490.131 392.656C489.097 393.955 487.798 393.979 486.091 395.903C483.494 398.789 500.834 396.768 502.854 395.903C504.874 395.037 505.74 377.961 507.904 373.632C509.684 370.073 506.1 369.255 503.479 368.414Z" fill="#233A67"/>
<path d="M450.304 264.95H406.413C405.775 264.948 405.15 264.764 404.613 264.419C404.076 264.073 403.649 263.582 403.383 263.001L385.634 224.834C385.258 224.024 385.219 223.098 385.525 222.259C385.832 221.42 386.459 220.737 387.269 220.361C388.08 219.985 389.006 219.945 389.845 220.252C390.684 220.559 391.366 221.186 391.743 221.996L408.578 258.216H450.304C451.197 258.216 452.054 258.57 452.685 259.202C453.317 259.833 453.671 260.69 453.671 261.583C453.671 262.475 453.317 263.332 452.685 263.963C452.054 264.595 451.197 264.95 450.304 264.95Z" fill="#BABCBE"/>
<path d="M459.467 251.699C450.617 251.578 441.815 246.287 437.462 247.057C433.109 247.827 418.823 257.735 420.627 258.12C422.431 258.505 433.734 252.637 434.119 252.54C434.504 252.444 436.933 256.605 442.969 258.12C449.006 259.635 443.017 253.599 461.728 259.25C473.898 262.93 459.467 251.699 459.467 251.699Z" fill="#F09959"/>
<path d="M531.882 190.155L533.18 200.641C533.18 200.641 521.709 201.338 516.009 204.537C510.309 207.735 501.867 217.043 501.867 217.043L508.746 205.186L509.732 197.61L531.882 190.155Z" fill="#E6E6E6"/>
<path d="M526.999 202.997C518.462 201.41 514.542 209.034 509.01 221.492C503.479 233.95 494.051 249.101 492.175 251.049C490.299 252.997 460.573 251.049 460.573 251.049C460.573 251.049 459.684 259.659 460.573 260.693C461.463 261.727 466.61 261.583 466.61 261.583C466.61 261.583 468.678 263.218 470.602 264.517C472.526 265.816 488.832 268.269 496.408 267.884C503.984 267.499 510.934 266.85 511.968 265.696C513.002 264.541 533.685 232.675 534.96 221.251C536.235 209.828 531.353 203.815 526.999 202.997Z" fill="#E6E6E6"/>
<path d="M501.868 150.593C485.754 151.362 488.279 175.605 488.279 175.605C488.279 175.605 492.464 176.879 501.242 175.436C500.569 172.839 500.857 166.201 500.857 166.201C500.857 166.201 501.868 171.588 503.166 174.859C505.018 175.725 507.11 174.955 510.67 174.09C512.498 181.81 517.692 185.056 521.228 186.163C525.148 187.389 529.284 188.88 533.902 186.548C538.52 184.215 535.994 160.598 533.541 155.86C529.838 148.717 523.729 142.32 513.123 145.711C507.808 147.394 501.868 150.593 501.868 150.593Z" fill="#303C60"/>
<path d="M529.886 179.38L536.475 189C536.475 189 529.188 207.23 550.4 215.503C567.043 221.973 565.095 233.372 557.567 244.844C550.04 256.316 562.065 266.345 562.065 266.345C562.065 266.345 563.892 253.623 580.054 251.242C602.084 247.971 608.337 218.389 591.862 203.599C578.25 191.357 574.114 201.482 564.903 190.515C555.691 179.549 538.279 186.932 538.279 186.932L531.906 177.649L529.886 179.38Z" fill="#303C60"/>
<path d="M599.438 233.396L599.174 233.324C599.039 233.248 598.94 233.123 598.895 232.975C598.85 232.827 598.864 232.668 598.933 232.53C604.465 222.405 599.943 210.14 597.683 206.821L596.961 205.714C594.724 202.227 591.959 197.898 577.12 195.229C573.536 194.579 570.65 192.463 567.596 190.202C561.271 185.561 554.104 180.294 538.52 187.485C538.379 187.543 538.221 187.546 538.078 187.492C537.935 187.439 537.818 187.333 537.75 187.196C537.714 187.125 537.693 187.048 537.688 186.969C537.683 186.89 537.695 186.811 537.722 186.736C537.749 186.662 537.791 186.594 537.845 186.536C537.9 186.479 537.966 186.433 538.039 186.402C554.224 178.947 561.704 184.43 568.294 189.264C571.228 191.429 574.017 193.473 577.336 194.074C592.656 196.84 595.59 201.409 597.947 205.089L598.645 206.147C601.026 209.635 605.763 222.477 599.967 233.083C599.914 233.177 599.837 233.254 599.744 233.309C599.651 233.364 599.546 233.394 599.438 233.396Z" fill="#303C60"/>
<path d="M526.374 189.241C525.23 189.233 524.088 189.137 522.959 188.952C517.307 188.111 509.756 184.912 509.155 166.923C509.151 166.845 509.164 166.767 509.191 166.694C509.219 166.621 509.261 166.555 509.315 166.499C509.369 166.443 509.434 166.398 509.505 166.367C509.577 166.337 509.654 166.321 509.732 166.321C509.808 166.318 509.883 166.33 509.955 166.356C510.026 166.382 510.091 166.422 510.147 166.473C510.203 166.525 510.248 166.586 510.28 166.655C510.312 166.724 510.33 166.799 510.333 166.874C510.573 174.306 512.041 179.789 514.71 183.18C516.73 185.778 519.4 187.245 523.128 187.798C528.346 188.592 531.81 187.63 533.397 184.936C533.436 184.868 533.489 184.809 533.552 184.762C533.616 184.715 533.688 184.681 533.764 184.663C533.841 184.645 533.92 184.643 533.998 184.657C534.075 184.671 534.149 184.7 534.215 184.744C534.279 184.783 534.336 184.835 534.38 184.896C534.425 184.957 534.457 185.027 534.475 185.101C534.493 185.174 534.496 185.251 534.485 185.326C534.473 185.401 534.447 185.473 534.407 185.537C532.94 187.99 530.246 189.241 526.374 189.241Z" fill="#303C60"/>
<path d="M307.207 397.489H311.536L328.395 268.749H318.872L307.207 397.489Z" fill="#2E5B9A"/>
<path d="M454.129 397.489H449.8L432.965 268.749H442.488L454.129 397.489Z" fill="#2E5B9A"/>
</svg>
