<svg width="564" height="451" viewBox="0 0 564 451" fill="none" xmlns="http://www.w3.org/2000/svg">
<path d="M392.805 76.6913H101.287C97.1146 76.6913 93.7322 80.0737 93.7322 84.2461V374.583C93.7322 378.756 97.1146 382.138 101.287 382.138H392.805C396.977 382.138 400.36 378.756 400.36 374.583V84.2461C400.36 80.0737 396.977 76.6913 392.805 76.6913Z" fill="#C5E0F4"/>
<path d="M2.70937 451H493.453C494.172 451 494.861 450.715 495.369 450.206C495.877 449.698 496.163 449.009 496.163 448.291V448.291C496.163 447.572 495.877 446.883 495.369 446.375C494.861 445.867 494.172 445.581 493.453 445.581H2.70937C1.9908 445.581 1.30167 445.867 0.79356 446.375C0.285455 446.883 2.34837e-06 447.572 0 448.291C2.34837e-06 449.009 0.285455 449.698 0.79356 450.206C1.30167 450.715 1.9908 451 2.70937 451V451Z" fill="#2D5B98"/>
<path d="M391.728 264.524C456.5 264.524 509.009 212.016 509.009 147.243C509.009 82.4712 456.5 29.9629 391.728 29.9629C326.956 29.9629 274.448 82.4712 274.448 147.243C274.448 212.016 326.956 264.524 391.728 264.524Z" stroke="#2E77E6" stroke-width="5.66612" stroke-miterlimit="16" stroke-dasharray="47.22 9.44"/>
<path d="M434.248 207.366H346.944C344.005 207.366 341.624 209.748 341.624 212.686V285.929C341.624 288.868 344.005 291.25 346.944 291.25H434.248C437.186 291.25 439.568 288.868 439.568 285.929V212.686C439.568 209.748 437.186 207.366 434.248 207.366Z" fill="#5896FA"/>
<path d="M420.248 258.016H361.203C360.273 258.013 359.381 257.642 358.722 256.984C358.064 256.326 357.693 255.434 357.69 254.503V254.503C357.693 253.572 358.064 252.68 358.722 252.022C359.381 251.364 360.273 250.993 361.203 250.99H420.248C421.179 250.993 422.071 251.364 422.729 252.022C423.388 252.68 423.759 253.572 423.761 254.503V254.503C423.759 255.434 423.388 256.326 422.729 256.984C422.071 257.642 421.179 258.013 420.248 258.016V258.016Z" fill="white"/>
<path d="M420.248 269.331H361.203C360.273 269.328 359.381 268.957 358.722 268.299C358.064 267.641 357.693 266.749 357.69 265.818V265.818C357.693 264.887 358.064 263.995 358.722 263.337C359.381 262.678 360.273 262.307 361.203 262.305H420.248C421.179 262.307 422.071 262.678 422.729 263.337C423.388 263.995 423.759 264.887 423.761 265.818C423.759 266.749 423.388 267.641 422.729 268.299C422.071 268.957 421.179 269.328 420.248 269.331V269.331Z" fill="white"/>
<path d="M372.228 266.13C372.228 266.374 372.156 266.613 372.02 266.817C371.884 267.02 371.691 267.179 371.465 267.272C371.239 267.366 370.99 267.39 370.75 267.343C370.51 267.295 370.29 267.177 370.117 267.004C369.944 266.831 369.826 266.611 369.778 266.371C369.731 266.131 369.755 265.882 369.849 265.656C369.942 265.43 370.101 265.237 370.304 265.101C370.508 264.965 370.747 264.893 370.991 264.893C371.154 264.893 371.315 264.925 371.465 264.987C371.615 265.049 371.751 265.14 371.866 265.255C371.981 265.37 372.072 265.506 372.134 265.656C372.196 265.806 372.228 265.967 372.228 266.13V266.13Z" fill="#80B2FF"/>
<path d="M376.469 266.13C376.469 266.374 376.397 266.613 376.261 266.817C376.125 267.02 375.932 267.179 375.706 267.272C375.48 267.366 375.231 267.39 374.991 267.343C374.751 267.295 374.531 267.177 374.358 267.004C374.185 266.831 374.067 266.611 374.02 266.371C373.972 266.131 373.996 265.882 374.09 265.656C374.184 265.43 374.342 265.237 374.546 265.101C374.749 264.965 374.988 264.893 375.233 264.893C375.395 264.893 375.556 264.925 375.706 264.987C375.856 265.049 375.992 265.14 376.107 265.255C376.222 265.37 376.313 265.506 376.375 265.656C376.438 265.806 376.469 265.967 376.469 266.13Z" fill="#80B2FF"/>
<path d="M380.71 266.13C380.71 266.374 380.637 266.613 380.501 266.817C380.365 267.02 380.172 267.179 379.946 267.272C379.72 267.366 379.471 267.39 379.231 267.343C378.991 267.295 378.771 267.177 378.598 267.004C378.425 266.831 378.307 266.611 378.26 266.371C378.212 266.131 378.236 265.882 378.33 265.656C378.424 265.43 378.582 265.237 378.786 265.101C378.989 264.965 379.228 264.893 379.473 264.893C379.635 264.893 379.796 264.925 379.946 264.987C380.096 265.049 380.232 265.14 380.347 265.255C380.462 265.37 380.553 265.506 380.615 265.656C380.678 265.806 380.71 265.967 380.71 266.13V266.13Z" fill="#80B2FF"/>
<path d="M384.95 266.13C384.95 266.374 384.878 266.613 384.742 266.817C384.606 267.02 384.413 267.179 384.187 267.272C383.961 267.366 383.712 267.39 383.472 267.343C383.232 267.295 383.012 267.177 382.839 267.004C382.666 266.831 382.548 266.611 382.5 266.371C382.453 266.131 382.477 265.882 382.571 265.656C382.664 265.43 382.823 265.237 383.026 265.101C383.23 264.965 383.469 264.893 383.713 264.893C383.876 264.893 384.037 264.925 384.187 264.987C384.337 265.049 384.473 265.14 384.588 265.255C384.703 265.37 384.794 265.506 384.856 265.656C384.918 265.806 384.95 265.967 384.95 266.13V266.13Z" fill="#80B2FF"/>
<path d="M389.191 266.13C389.191 266.374 389.118 266.613 388.982 266.817C388.847 267.02 388.653 267.179 388.427 267.272C388.201 267.366 387.953 267.39 387.713 267.343C387.473 267.295 387.253 267.177 387.08 267.004C386.907 266.831 386.789 266.611 386.741 266.371C386.693 266.131 386.718 265.882 386.811 265.656C386.905 265.43 387.064 265.237 387.267 265.101C387.47 264.965 387.709 264.893 387.954 264.893C388.117 264.893 388.277 264.925 388.427 264.987C388.577 265.049 388.714 265.14 388.829 265.255C388.944 265.37 389.035 265.506 389.097 265.656C389.159 265.806 389.191 265.967 389.191 266.13V266.13Z" fill="#80B2FF"/>
<path d="M393.431 266.13C393.431 266.374 393.359 266.613 393.223 266.817C393.087 267.02 392.894 267.179 392.668 267.272C392.442 267.366 392.193 267.39 391.953 267.343C391.713 267.295 391.493 267.177 391.32 267.004C391.147 266.831 391.029 266.611 390.981 266.371C390.934 266.131 390.958 265.882 391.052 265.656C391.145 265.43 391.304 265.237 391.507 265.101C391.711 264.965 391.95 264.893 392.194 264.893C392.357 264.893 392.518 264.925 392.668 264.987C392.818 265.049 392.954 265.14 393.069 265.255C393.184 265.37 393.275 265.506 393.337 265.656C393.399 265.806 393.431 265.967 393.431 266.13Z" fill="#80B2FF"/>
<path d="M397.672 266.13C397.672 266.374 397.6 266.613 397.464 266.817C397.328 267.02 397.135 267.179 396.909 267.272C396.683 267.366 396.434 267.39 396.194 267.343C395.954 267.295 395.734 267.177 395.561 267.004C395.388 266.831 395.27 266.611 395.222 266.371C395.175 266.131 395.199 265.882 395.293 265.656C395.386 265.43 395.545 265.237 395.748 265.101C395.952 264.965 396.191 264.893 396.435 264.893C396.598 264.893 396.759 264.925 396.909 264.987C397.059 265.049 397.195 265.14 397.31 265.255C397.425 265.37 397.516 265.506 397.578 265.656C397.64 265.806 397.672 265.967 397.672 266.13V266.13Z" fill="#80B2FF"/>
<path d="M401.912 266.13C401.912 266.374 401.84 266.613 401.704 266.817C401.568 267.02 401.375 267.179 401.149 267.272C400.923 267.366 400.674 267.39 400.434 267.343C400.194 267.295 399.974 267.177 399.801 267.004C399.628 266.831 399.51 266.611 399.462 266.371C399.415 266.131 399.439 265.882 399.533 265.656C399.626 265.43 399.785 265.237 399.988 265.101C400.192 264.965 400.431 264.893 400.676 264.893C400.838 264.893 400.999 264.925 401.149 264.987C401.299 265.049 401.435 265.14 401.55 265.255C401.665 265.37 401.756 265.506 401.818 265.656C401.88 265.806 401.912 265.967 401.912 266.13Z" fill="#80B2FF"/>
<path d="M406.153 266.13C406.153 266.374 406.081 266.613 405.945 266.817C405.809 267.02 405.616 267.179 405.39 267.272C405.164 267.366 404.915 267.39 404.675 267.343C404.435 267.295 404.215 267.177 404.042 267.004C403.869 266.831 403.751 266.611 403.703 266.371C403.655 266.131 403.68 265.882 403.774 265.656C403.867 265.43 404.026 265.237 404.229 265.101C404.433 264.965 404.672 264.893 404.916 264.893C405.079 264.893 405.24 264.925 405.39 264.987C405.54 265.049 405.676 265.14 405.791 265.255C405.906 265.37 405.997 265.506 406.059 265.656C406.121 265.806 406.153 265.967 406.153 266.13V266.13Z" fill="#80B2FF"/>
<path d="M390.746 241.16C398.242 241.16 404.319 235.083 404.319 227.587C404.319 220.091 398.242 214.014 390.746 214.014C383.25 214.014 377.173 220.091 377.173 227.587C377.173 235.083 383.25 241.16 390.746 241.16Z" fill="white"/>
<path d="M390.766 227.041C391.407 227.035 392.04 226.886 392.616 226.604C393.192 226.321 393.698 225.913 394.095 225.41C394.697 224.658 395.022 223.722 395.013 222.759C395.015 222.198 394.907 221.641 394.693 221.122C394.48 220.603 394.166 220.131 393.77 219.733C393.374 219.335 392.903 219.019 392.384 218.804C391.866 218.589 391.31 218.478 390.749 218.478C390.187 218.478 389.631 218.589 389.113 218.804C388.594 219.019 388.123 219.335 387.727 219.733C387.331 220.131 387.017 220.603 386.804 221.122C386.591 221.641 386.482 222.198 386.484 222.759C386.475 223.722 386.799 224.658 387.402 225.41C387.803 225.917 388.315 226.327 388.897 226.61C389.48 226.892 390.118 227.039 390.766 227.041Z" fill="#005CEA"/>
<path d="M398.288 234.669C398.288 237.371 383.2 237.371 383.2 234.669L383.205 231.521C383.801 227.216 397.062 227.035 398.291 231.521L398.288 234.669Z" fill="#005CEA"/>
<path d="M364.132 265.17V264.982C364.132 264.615 363.986 264.264 363.727 264.004C363.468 263.745 363.116 263.599 362.749 263.599C362.383 263.599 362.031 263.745 361.772 264.004C361.513 264.264 361.367 264.615 361.367 264.982V265.17H361.157V267.661C361.157 268.092 364.35 268.092 364.35 267.661V265.17H364.132ZM361.86 264.982C361.857 264.863 361.879 264.745 361.923 264.634C361.967 264.523 362.032 264.423 362.115 264.338C362.199 264.253 362.298 264.185 362.408 264.139C362.517 264.093 362.635 264.069 362.754 264.069C362.873 264.069 362.991 264.093 363.101 264.139C363.21 264.185 363.31 264.253 363.393 264.338C363.476 264.423 363.542 264.523 363.586 264.634C363.629 264.745 363.651 264.863 363.648 264.982V265.17H361.86V264.982ZM362.985 266.425V267.145C362.984 267.175 362.977 267.205 362.964 267.233C362.951 267.26 362.933 267.285 362.911 267.306C362.889 267.326 362.862 267.342 362.834 267.353C362.805 267.363 362.775 267.368 362.744 267.366C362.715 267.367 362.686 267.362 362.658 267.352C362.631 267.341 362.606 267.325 362.585 267.304C362.565 267.283 362.548 267.258 362.538 267.231C362.527 267.203 362.522 267.174 362.523 267.145V266.425C362.456 266.389 362.4 266.336 362.361 266.271C362.322 266.206 362.302 266.132 362.302 266.056C362.301 265.979 362.321 265.903 362.358 265.836C362.396 265.769 362.45 265.713 362.516 265.673C362.582 265.634 362.657 265.612 362.734 265.61C362.811 265.608 362.887 265.627 362.955 265.663C363.023 265.7 363.08 265.753 363.12 265.819C363.161 265.884 363.184 265.959 363.187 266.036C363.19 266.113 363.173 266.189 363.137 266.257C363.102 266.326 363.049 266.383 362.985 266.425Z" fill="#5896FA"/>
<path d="M362.753 254.248C362.889 254.247 363.022 254.215 363.144 254.156C363.265 254.096 363.372 254.01 363.456 253.904C363.583 253.745 363.652 253.548 363.65 253.345C363.65 253.226 363.627 253.109 363.582 252.999C363.537 252.89 363.471 252.79 363.387 252.706C363.304 252.622 363.204 252.555 363.095 252.51C362.986 252.465 362.868 252.441 362.75 252.441C362.631 252.441 362.514 252.465 362.405 252.51C362.295 252.555 362.196 252.622 362.112 252.706C362.029 252.79 361.962 252.89 361.917 252.999C361.872 253.109 361.849 253.226 361.85 253.345C361.848 253.548 361.916 253.745 362.044 253.904C362.128 254.011 362.236 254.097 362.359 254.157C362.482 254.217 362.617 254.248 362.753 254.248Z" fill="#5896FA"/>
<path d="M364.341 255.858C364.341 256.429 361.14 256.429 361.14 255.858L361.158 255.194C361.284 254.286 364.082 254.248 364.341 255.194L364.341 255.858Z" fill="#5896FA"/>
<path d="M383.435 255.533H370.496C370.223 255.533 369.961 255.424 369.768 255.231C369.575 255.037 369.466 254.776 369.465 254.503C369.466 254.229 369.575 253.968 369.768 253.775C369.961 253.581 370.223 253.473 370.496 253.472H383.435C383.708 253.473 383.97 253.581 384.163 253.775C384.356 253.968 384.465 254.229 384.466 254.503V254.503C384.465 254.776 384.356 255.037 384.163 255.231C383.97 255.424 383.708 255.533 383.435 255.533V255.533Z" fill="#80B2FF"/>
<path d="M400.501 255.533H387.562C387.289 255.533 387.027 255.424 386.834 255.231C386.641 255.037 386.532 254.776 386.531 254.503V254.503C386.532 254.229 386.641 253.968 386.834 253.775C387.027 253.581 387.289 253.473 387.562 253.472H400.501C400.774 253.473 401.036 253.581 401.229 253.775C401.422 253.968 401.531 254.229 401.532 254.503V254.503C401.531 254.776 401.422 255.037 401.229 255.231C401.036 255.424 400.774 255.533 400.501 255.533V255.533Z" fill="#80B2FF"/>
<path d="M383.328 274.273H395.054C395.852 274.273 396.618 274.59 397.182 275.155C397.747 275.719 398.064 276.485 398.064 277.283C398.064 278.081 397.747 278.847 397.182 279.411C396.618 279.976 395.852 280.293 395.054 280.293H383.328C382.53 280.293 381.764 279.976 381.2 279.411C380.635 278.847 380.318 278.081 380.318 277.283V277.283C380.318 276.888 380.396 276.496 380.547 276.131C380.698 275.766 380.92 275.434 381.2 275.155C381.479 274.875 381.811 274.653 382.176 274.502C382.541 274.351 382.933 274.273 383.328 274.273Z" fill="#1251B3"/>
<path d="M270.556 142.162C263.83 149.367 253.097 155.271 241.613 157.787C241.609 158.554 241.59 162.804 241.503 182.391C241.386 208.52 266.253 221.289 270.114 223.248C273.854 221.527 299.035 208.778 299.152 182.649C299.24 163.061 299.259 158.812 299.262 158.045C287.8 155.426 277.217 149.426 270.556 142.162Z" fill="white"/>
<path d="M270.487 146.883C263.901 152.925 254.776 157.674 244.742 160.263L244.643 182.401C244.598 192.531 248.622 201.695 256.605 209.64C260.612 213.593 265.18 216.933 270.163 219.553C270.283 219.492 270.415 219.423 270.545 219.355V146.935C270.526 146.918 270.506 146.901 270.487 146.883Z" fill="#296ACC"/>
<path d="M270.544 146.935V219.355C275.402 216.809 279.869 213.578 283.808 209.761C291.861 201.889 295.967 192.761 296.012 182.631L296.111 160.492C286.129 157.822 277.072 153.011 270.544 146.935Z" fill="#2E77E6"/>
<path d="M258.886 178.844V195.995C258.886 197.904 282.204 197.904 282.204 195.995V178.844H258.886ZM271.724 187.952V192.813C271.725 192.968 271.695 193.122 271.636 193.266C271.577 193.41 271.49 193.54 271.381 193.65C271.271 193.761 271.141 193.848 270.997 193.908C270.854 193.967 270.7 193.998 270.545 193.998C270.389 193.998 270.236 193.967 270.092 193.908C269.949 193.848 269.818 193.761 269.709 193.65C269.599 193.54 269.512 193.41 269.453 193.266C269.394 193.122 269.365 192.968 269.365 192.813V187.941C268.769 187.668 268.283 187.199 267.991 186.613C267.698 186.026 267.615 185.356 267.756 184.715C267.897 184.075 268.253 183.502 268.765 183.092C269.277 182.682 269.914 182.46 270.57 182.464C271.226 182.467 271.861 182.694 272.37 183.109C272.878 183.523 273.229 184.1 273.364 184.742C273.499 185.383 273.41 186.052 273.111 186.636C272.813 187.221 272.323 187.685 271.724 187.952V187.952Z" fill="white"/>
<path d="M280.162 177.622H277.802V176.467C277.802 174.542 277.037 172.697 275.676 171.336C274.315 169.975 272.47 169.21 270.545 169.21C268.62 169.21 266.775 169.975 265.414 171.336C264.053 172.697 263.288 174.542 263.288 176.467V177.622H260.928V176.467C260.928 173.916 261.941 171.47 263.745 169.667C265.548 167.863 267.994 166.85 270.545 166.85C273.096 166.85 275.542 167.863 277.345 169.667C279.149 171.47 280.162 173.916 280.162 176.467V177.622Z" fill="white"/>
<path d="M443.147 1H401.027V53.5762H443.147V1Z" fill="#296ACC"/>
<path d="M448.61 6.42935H406.489V59.0055H448.61V6.42935Z" fill="white" stroke="#5896FA" stroke-width="11.9755" stroke-miterlimit="10"/>
<path d="M455.547 11.7593H413.427V64.3355H455.547V11.7593Z" fill="white" stroke="#5896FA" stroke-width="11.9755" stroke-miterlimit="10"/>
<path d="M460.594 17.1887H418.473V69.7648H460.594V17.1887Z" fill="#5896FA"/>
<path d="M454.041 25.8201H432.254V29.2396H454.041V25.8201Z" fill="#005CEA"/>
<path d="M450.231 34H422V37.4195H450.231V34Z" fill="#005CEA"/>
<path d="M454.041 41.8876H425.81V45.3072H454.041V41.8876Z" fill="#005CEA"/>
<path d="M454.041 49.9227H425.81V53.3422H454.041V49.9227Z" fill="#005CEA"/>
<path d="M454.041 57.9565H425.81V61.376H454.041V57.9565Z" fill="#005CEA"/>
<path d="M323.123 61.5493C324.958 53.5406 319.953 45.5608 311.944 43.726C303.935 41.8912 295.955 46.8962 294.121 54.9049C292.286 62.9137 297.291 70.8935 305.299 72.7283C313.308 74.5631 321.288 69.5581 323.123 61.5493Z" fill="#F4F4F4"/>
<path d="M332.093 72.3739C333.971 69.2684 335.21 65.8196 335.739 62.2293L336.847 62.3916L339.035 62.7134L339.064 62.7158C339.653 58.7544 339.457 54.7159 338.489 50.8299L335.233 51.6362C334.361 48.1141 332.795 44.8011 330.628 41.891L333.327 39.8852C330.946 36.6621 327.952 33.9409 324.517 31.8778L322.779 34.7602C319.674 32.8815 316.225 31.642 312.634 31.1143L313.12 27.7894C309.159 27.2055 305.121 27.4007 301.235 28.3643L302.041 31.6199C298.519 32.4922 295.206 34.0578 292.295 36.2251L290.29 33.5267C287.067 35.9074 284.345 38.9012 282.282 42.3363L285.165 44.0746C283.286 47.1795 282.047 50.6285 281.519 54.2191L279.167 53.8727L278.205 53.7395L278.194 53.7329C277.61 57.6944 277.806 61.7319 278.769 65.6186L282.025 64.8124C282.901 68.3371 284.47 71.6522 286.641 74.5642L283.942 76.5699C286.319 79.7907 289.31 82.5098 292.741 84.5709L294.479 81.6883C297.588 83.5692 301.04 84.811 304.635 85.341L304.253 87.9245L304.148 88.6656C308.107 89.2473 312.141 89.0499 316.023 88.0842L315.217 84.8286C318.743 83.9499 322.061 82.3834 324.98 80.2191L326.985 82.9175C330.199 80.5331 332.914 77.5415 334.976 74.1121L332.093 72.3739ZM300.945 70.9663C298.425 69.4483 296.412 67.2173 295.161 64.5552C293.909 61.8932 293.475 58.9198 293.913 56.011C294.351 53.1022 295.642 50.3886 297.622 48.2135C299.603 46.0383 302.184 44.4993 305.039 43.791C307.894 43.0826 310.895 43.2368 313.662 44.2341C316.43 45.2313 318.839 47.0268 320.586 49.3935C322.333 51.7602 323.339 54.5918 323.477 57.5302C323.615 60.4686 322.878 63.3818 321.36 65.9015C320.352 67.5747 319.025 69.0329 317.453 70.193C315.882 71.353 314.097 72.1922 312.202 72.6625C310.306 73.1328 308.336 73.2251 306.405 72.9341C304.473 72.643 302.618 71.9744 300.945 70.9663V70.9663Z" fill="#005CEA"/>
<path d="M276.417 70.4002C275.364 68.8056 274.004 67.4369 272.416 66.3741L272.744 65.8838L273.391 64.9158L273.399 64.9029C271.648 63.7276 269.684 62.908 267.617 62.4905L267.264 64.2208C265.392 63.8398 263.463 63.8358 261.589 64.2088L261.245 62.4724C259.175 62.8762 257.204 63.685 255.447 64.8524L256.425 66.3303C254.83 67.3824 253.461 68.7425 252.399 70.3308L250.927 69.3482C249.754 71.1002 248.935 73.0643 248.515 75.1304L250.245 75.4826C249.864 77.3547 249.86 79.284 250.233 81.1577L248.497 81.5018C248.901 83.5725 249.709 85.5431 250.877 87.3004L252.355 86.3224C253.407 87.9174 254.767 89.2863 256.355 90.3485L255.659 91.3887L255.378 91.816L255.373 91.8198C257.125 92.9926 259.089 93.8121 261.155 94.2322L261.507 92.5017C263.381 92.8815 265.312 92.8844 267.188 92.5101L267.532 94.2467C269.601 93.844 271.569 93.0364 273.325 91.8702L272.347 90.3922C273.944 89.339 275.314 87.9777 276.379 86.3881L277.521 87.1536L277.85 87.3707C279.021 85.6198 279.838 83.6568 280.257 81.5923L278.526 81.2399C278.905 79.3646 278.91 77.4329 278.54 75.5557L280.277 75.2116C279.869 73.1446 279.06 71.1777 277.895 69.4222L276.417 70.4002ZM268.709 84.8946C267.418 85.7499 265.902 86.203 264.353 86.1967C262.804 86.1905 261.292 85.7251 260.008 84.8594C258.724 83.9937 257.725 82.7667 257.138 81.3334C256.551 79.9001 256.402 78.325 256.711 76.8072C257.019 75.2894 257.771 73.8971 258.87 72.8064C259.97 71.7157 261.368 70.9755 262.888 70.6795C264.408 70.3835 265.982 70.545 267.411 71.1434C268.839 71.7419 270.058 72.7506 270.914 74.0418C271.481 74.8991 271.875 75.8599 272.072 76.8693C272.268 77.8788 272.264 78.917 272.059 79.9248C271.855 80.9326 271.453 81.8902 270.878 82.743C270.304 83.5957 269.566 84.3268 268.709 84.8946V84.8946Z" fill="#1251B3"/>
<path d="M483.559 77.3541H519.725C520.091 77.3541 520.441 77.4993 520.7 77.7579C520.958 78.0164 521.104 78.3671 521.104 78.7327V99.2532C521.104 99.6189 520.958 99.9695 520.7 100.228C520.441 100.487 520.091 100.632 519.725 100.632H483.559C483.193 100.632 482.842 100.487 482.584 100.228C482.325 99.9695 482.18 99.6189 482.18 99.2532V78.7327C482.18 78.3671 482.325 78.0164 482.584 77.7579C482.842 77.4993 483.193 77.3541 483.559 77.3541Z" fill="#005CEA"/>
<path d="M521.103 81.7501H482.18V85.7668H521.103V81.7501Z" fill="#5896FA"/>
<path d="M491.095 96.1649L485.372 96.1649C485.285 96.1649 485.2 96.1819 485.12 96.215C485.04 96.2481 484.967 96.2966 484.906 96.3578C484.845 96.419 484.796 96.4916 484.763 96.5715C484.73 96.6514 484.713 96.737 484.713 96.8235V96.8236C484.713 96.9101 484.73 96.9957 484.763 97.0756C484.796 97.1555 484.845 97.2282 484.906 97.2893C484.967 97.3505 485.04 97.399 485.12 97.4321C485.2 97.4652 485.285 97.4822 485.372 97.4822H491.095C491.181 97.4822 491.267 97.4652 491.347 97.4321C491.427 97.399 491.499 97.3505 491.561 97.2893C491.622 97.2282 491.67 97.1555 491.703 97.0756C491.736 96.9957 491.754 96.91 491.754 96.8235V96.8235C491.754 96.6488 491.684 96.4813 491.561 96.3578C491.437 96.2343 491.27 96.1649 491.095 96.1649V96.1649Z" fill="#D1F5FF"/>
<path d="M499.896 96.1649H494.173C493.998 96.1649 493.831 96.2343 493.707 96.3578C493.584 96.4813 493.514 96.6488 493.514 96.8235C493.514 96.91 493.531 96.9957 493.565 97.0756C493.598 97.1555 493.646 97.2282 493.707 97.2893C493.769 97.3505 493.841 97.399 493.921 97.4321C494.001 97.4652 494.087 97.4822 494.173 97.4822H499.896C499.983 97.4822 500.068 97.4652 500.148 97.4321C500.228 97.399 500.301 97.3505 500.362 97.2893C500.423 97.2282 500.472 97.1555 500.505 97.0756C500.538 96.9957 500.555 96.91 500.555 96.8235V96.8235C500.555 96.6488 500.485 96.4813 500.362 96.3578C500.238 96.2343 500.071 96.1649 499.896 96.1649V96.1649Z" fill="#D1F5FF"/>
<path d="M508.697 96.1649H502.974C502.799 96.1649 502.632 96.2343 502.508 96.3578C502.385 96.4813 502.315 96.6488 502.315 96.8235V96.8235C502.315 96.91 502.332 96.9957 502.366 97.0756C502.399 97.1555 502.447 97.2282 502.508 97.2893C502.57 97.3505 502.642 97.399 502.722 97.4321C502.802 97.4652 502.888 97.4822 502.974 97.4822H508.697C508.784 97.4822 508.869 97.4652 508.949 97.4321C509.029 97.399 509.102 97.3505 509.163 97.2893C509.224 97.2282 509.273 97.1555 509.306 97.0756C509.339 96.9957 509.356 96.91 509.356 96.8235V96.8235C509.356 96.6488 509.286 96.4813 509.163 96.3578C509.039 96.2343 508.872 96.1649 508.697 96.1649V96.1649Z" fill="#D1F5FF"/>
<path d="M517.498 96.1649H511.775C511.6 96.1649 511.433 96.2343 511.309 96.3578C511.186 96.4813 511.116 96.6488 511.116 96.8235C511.116 96.9982 511.186 97.1658 511.309 97.2893C511.433 97.4128 511.6 97.4822 511.775 97.4822H517.498C517.584 97.4822 517.67 97.4652 517.75 97.4321C517.83 97.399 517.903 97.3505 517.964 97.2893C518.025 97.2282 518.073 97.1555 518.106 97.0756C518.14 96.9957 518.157 96.91 518.157 96.8235V96.8235C518.157 96.737 518.14 96.6514 518.106 96.5715C518.073 96.4916 518.025 96.4189 517.964 96.3578C517.903 96.2966 517.83 96.2481 517.75 96.215C517.67 96.1819 517.584 96.1649 517.498 96.1649V96.1649Z" fill="#D1F5FF"/>
<path d="M485.108 78.5344C484.915 78.5344 484.73 78.611 484.594 78.7473C484.458 78.8837 484.381 79.0686 484.381 79.2614V79.5168C484.381 79.7096 484.458 79.8945 484.594 80.0309C484.73 80.1672 484.915 80.2438 485.108 80.2438V80.2438C485.301 80.2438 485.486 80.1672 485.622 80.0309C485.758 79.8945 485.835 79.7096 485.835 79.5168V79.2614C485.835 79.0686 485.758 78.8837 485.622 78.7473C485.486 78.611 485.301 78.5344 485.108 78.5344V78.5344Z" fill="#D1F5FF"/>
<path d="M486.674 79.3891V79.3891C486.674 79.6158 486.764 79.8332 486.925 79.9935C487.085 80.1538 487.302 80.2438 487.529 80.2438H490.558C490.671 80.2438 490.782 80.2217 490.885 80.1787C490.989 80.1358 491.083 80.0728 491.163 79.9935C491.242 79.9141 491.305 79.8199 491.348 79.7162C491.391 79.6125 491.413 79.5013 491.413 79.3891C491.413 79.1624 491.323 78.945 491.163 78.7847C491.002 78.6244 490.785 78.5344 490.558 78.5344H487.529C487.417 78.5344 487.306 78.5565 487.202 78.5995C487.098 78.6424 487.004 78.7054 486.925 78.7847C486.845 78.8641 486.782 78.9583 486.739 79.062C486.696 79.1657 486.674 79.2769 486.674 79.3891V79.3891Z" fill="#D1F5FF"/>
<path d="M486.277 87.9268H490.19C490.339 87.9268 490.486 87.9562 490.624 88.0133C490.762 88.0703 490.887 88.154 490.992 88.2594C491.098 88.3648 491.181 88.49 491.238 88.6278C491.296 88.7655 491.325 88.9132 491.325 89.0623V92.4354C491.325 92.7365 491.205 93.0253 490.992 93.2383C490.779 93.4512 490.491 93.5708 490.189 93.5708H486.277C485.976 93.5708 485.687 93.4512 485.474 93.2383C485.261 93.0254 485.142 92.7366 485.142 92.4354V89.0623C485.142 88.7611 485.261 88.4723 485.474 88.2594C485.687 88.0465 485.976 87.9268 486.277 87.9268V87.9268Z" fill="#5896FA"/>
<path d="M505.4 159.926V157.267C505.4 156.98 505.344 156.695 505.234 156.43C505.124 156.165 504.963 155.924 504.76 155.721C504.557 155.518 504.316 155.357 504.051 155.247C503.786 155.137 503.501 155.08 503.214 155.08H479.941C479.361 155.08 478.805 155.311 478.395 155.721C477.985 156.131 477.755 156.687 477.755 157.267V204.269H537.956V159.926H505.4Z" fill="#1251B3"/>
<path d="M540.459 161.542H481.427L477.755 204.27H537.662L540.459 161.542Z" fill="white"/>
<path d="M537.956 204.269H477.755L484.143 162.072C484.233 161.475 484.535 160.93 484.993 160.536C485.451 160.142 486.035 159.926 486.639 159.926H541.733C542.097 159.926 542.456 160.004 542.786 160.156C543.117 160.307 543.41 160.529 543.647 160.804C543.884 161.08 544.059 161.403 544.16 161.753C544.26 162.102 544.284 162.469 544.229 162.828L537.956 204.269Z" fill="#3383FF"/>
<path d="M554.012 171.295C559.399 165.909 559.399 157.175 554.012 151.788C548.625 146.401 539.891 146.401 534.505 151.788C529.118 157.175 529.118 165.909 534.505 171.295C539.891 176.682 548.625 176.682 554.012 171.295Z" fill="#005CEA"/>
<path d="M544.259 175.839C541.431 175.838 538.667 174.999 536.316 173.428C533.965 171.856 532.133 169.623 531.051 167.011C529.969 164.398 529.686 161.523 530.238 158.75C530.79 155.977 532.152 153.429 534.152 151.43C536.151 149.43 538.699 148.069 541.472 147.517C544.246 146.966 547.12 147.249 549.733 148.331C552.345 149.413 554.578 151.246 556.149 153.597C557.72 155.948 558.559 158.712 558.559 161.54C558.554 165.331 557.046 168.965 554.365 171.646C551.684 174.327 548.05 175.834 544.259 175.839V175.839ZM544.259 148.251C541.63 148.251 539.061 149.03 536.875 150.491C534.69 151.951 532.986 154.026 531.98 156.455C530.974 158.883 530.711 161.555 531.224 164.133C531.736 166.711 533.002 169.079 534.861 170.938C536.719 172.796 539.087 174.062 541.665 174.575C544.243 175.087 546.915 174.824 549.344 173.818C551.772 172.812 553.848 171.109 555.308 168.923C556.768 166.738 557.547 164.168 557.547 161.54C557.544 158.017 556.142 154.639 553.651 152.147C551.16 149.656 547.782 148.255 544.259 148.251V148.251Z" fill="white"/>
<path d="M537.618 159.045V168.812C537.618 169.899 550.897 169.899 550.897 168.812V159.045H537.618ZM544.93 164.232V167C544.93 167.088 544.913 167.176 544.879 167.258C544.846 167.34 544.796 167.414 544.734 167.477C544.672 167.539 544.597 167.589 544.516 167.623C544.434 167.657 544.346 167.674 544.258 167.674C544.169 167.674 544.082 167.657 544 167.623C543.918 167.589 543.844 167.539 543.782 167.477C543.719 167.414 543.67 167.34 543.636 167.258C543.603 167.176 543.586 167.088 543.586 167V164.225C543.246 164.07 542.97 163.803 542.803 163.469C542.636 163.135 542.589 162.753 542.67 162.389C542.75 162.024 542.953 161.697 543.244 161.464C543.536 161.231 543.899 161.104 544.272 161.106C544.646 161.108 545.008 161.238 545.297 161.474C545.587 161.71 545.786 162.038 545.863 162.403C545.94 162.769 545.889 163.15 545.72 163.482C545.55 163.815 545.271 164.079 544.93 164.232Z" fill="white"/>
<path d="M549.735 158.349H548.391V157.691C548.391 156.595 547.955 155.544 547.18 154.769C546.405 153.994 545.354 153.559 544.258 153.559C543.162 153.559 542.111 153.994 541.336 154.769C540.561 155.544 540.126 156.595 540.126 157.691V158.349H538.781V157.691C538.781 156.239 539.358 154.846 540.386 153.819C541.413 152.792 542.806 152.215 544.258 152.215C545.711 152.215 547.104 152.792 548.131 153.819C549.158 154.846 549.735 156.239 549.735 157.691V158.349Z" fill="white"/>
<path d="M239.852 445.55H251.314L252.499 420.63H238.666L239.852 445.55Z" fill="#0E0E0E"/>
<path d="M40.6521 445.55H52.1139L53.2991 420.63H39.4667L40.6521 445.55Z" fill="#0E0E0E"/>
<path d="M50.6442 377.375C51.9073 381.294 53.2896 385.316 54.7912 389.442H245.066C245.066 389.442 269.622 289.494 245.066 271.215C244.352 270.695 243.596 270.235 242.806 269.838C209.734 252.844 77.1356 248.854 50.216 270.716C50.01 270.879 49.8204 271.047 49.6361 271.215C39.716 280.322 31.0915 316.668 50.6442 377.375Z" fill="#C9C5B4"/>
<path d="M173.328 389.443H245.023L238.032 319.392C225.53 324.817 192.247 353.459 173.328 389.443Z" fill="#B3AF9F"/>
<path d="M50.6449 377.377C51.908 381.296 53.2904 385.318 54.7919 389.443H123.901C112.016 367.402 83.1974 334.015 55.2129 318.647L50.6449 377.377Z" fill="#B3AF9F"/>
<path d="M26.8017 318.412H53.1821C55.3259 318.412 57.3965 319.191 59.0087 320.604C60.6208 322.017 61.6646 323.967 61.9456 326.093L70.3588 389.708H224.534L232.947 326.093C233.228 323.967 234.272 322.017 235.884 320.604C237.496 319.191 239.567 318.412 241.711 318.412H268.091C269.384 318.412 270.66 318.695 271.831 319.242C273.002 319.789 274.039 320.586 274.869 321.576C275.699 322.567 276.301 323.728 276.633 324.977C276.966 326.226 277.021 327.532 276.794 328.805L262.148 434.745H247.66V434.745H33.2116V434.745H32.7453L18.0993 328.805C17.8723 327.532 17.927 326.226 18.2595 324.977C18.5921 323.728 19.1944 322.567 20.0241 321.576C20.8538 320.586 21.8907 319.789 23.0617 319.242C24.2327 318.695 25.5093 318.412 26.8017 318.412V318.412Z" fill="#C9C5B4"/>
<path d="M71.896 354.961C59.4816 359.117 61.9024 385.401 71.896 389.443H222.496C233.743 386.54 234.693 351.771 218.472 354.387C119.203 373.051 114.393 343.275 71.896 354.961Z" fill="#E0DAC2"/>
<path d="M186.681 328.318C186.754 334.591 186.404 340.862 185.632 347.088H115.017L110.835 278.137C115.03 252.952 126.513 246.849 144.688 246.849C160.955 246.849 171.788 260.118 178.372 277.88C184.063 293.226 186.58 311.922 186.681 328.318Z" fill="#007880"/>
<path d="M186.682 329.65L161.127 328.112C175.314 323.467 176.443 301.694 162.021 288.146L178.372 277.881C184.063 293.227 186.58 313.254 186.682 329.65Z" fill="#005459"/>
<path d="M191.545 361.337H94.5249V328.32H181.919L191.545 361.337Z" fill="#0E0E0E"/>
<path d="M82.1302 350.861L108.19 445.55L128.51 445.551C122.077 405.256 123.518 379.062 117.467 345.603C112.159 318.137 75.8123 325.406 82.1302 350.861Z" fill="#0E0E0E"/>
<path d="M115.487 445.551C115.488 445.488 115.492 445.427 115.492 445.364C115.488 441.996 114.147 438.767 111.764 436.387C109.38 434.007 106.15 432.67 102.782 432.67C99.4142 432.67 96.1839 434.007 93.8008 436.387C91.4177 438.767 90.0766 441.996 90.0721 445.364C90.0721 445.427 90.076 445.488 90.077 445.551H115.487Z" fill="#B15626"/>
<path d="M100.333 432.89L104.953 431.478C108.002 425.478 121.008 426.221 119.197 433.522C124.3 434.282 126.984 431.741 126.984 431.741L128.51 445.55H100.955L100.333 432.89Z" fill="#B15626"/>
<path d="M196.558 350.861L170.498 445.55L150.178 445.551C156.611 405.256 155.17 379.062 161.221 345.603C166.529 318.137 202.876 325.406 196.558 350.861Z" fill="#0E0E0E"/>
<path d="M163.2 445.551C163.199 445.488 163.195 445.427 163.195 445.364C163.199 441.996 164.54 438.767 166.923 436.387C169.307 434.007 172.537 432.67 175.905 432.67C179.273 432.67 182.503 434.007 184.886 436.387C187.269 438.767 188.611 441.996 188.615 445.364C188.615 445.427 188.611 445.488 188.61 445.551H163.2Z" fill="#B15626"/>
<path d="M178.355 432.89L173.735 431.478C170.686 425.478 157.68 426.221 159.491 433.522C154.388 434.282 151.703 431.741 151.703 431.741L150.177 445.55H177.733L178.355 432.89Z" fill="#B15626"/>
<path d="M155.57 249.064C146.039 254.849 144.681 272.025 149.567 278.867L176.762 299.126L149.074 313.384L153.572 328.111C153.572 328.111 182.472 325.759 196.619 311.248C210.202 297.316 177.088 256.39 155.57 249.064Z" fill="#007880"/>
<path d="M136.236 275.119C144.388 264.882 138.758 249.064 128.366 249.53C94.5252 261.443 84.0794 294.522 94.8 309.371C103.985 322.093 144.388 326.992 144.388 326.992V313.063L116.316 306.998C116.316 306.998 130.79 284.571 136.236 275.119Z" fill="#007880"/>
<path d="M165.89 323.46C166.415 318.795 163.685 312.962 156.666 311.688C144.405 309.462 139.967 316.189 138.807 320.998C138.505 322.251 139.645 323.576 140.698 323.46C141.751 323.343 142.491 322.749 142.671 321.794C142.889 320.645 143.498 319.224 144.811 318.483C143.544 320.966 144.073 323.46 147.525 323.46H165.89Z" fill="#F7A594"/>
<path d="M138.207 323.447L128.559 275.065H126.513C127.166 278.398 136.658 326.808 136.955 328.32H165.872L169.03 323.447H138.207Z" fill="#99C1FF"/>
<path d="M126.513 275.065H54.7135L65.3335 328.32H136.955L126.513 275.065Z" fill="white"/>
<path d="M147.446 252.532C147.446 258.037 130.943 261.688 125.549 255.902C124.698 255.001 124.143 253.862 123.955 252.636L120.847 238.693L140.556 231.262L141.144 233.084L147.446 252.532Z" fill="#F7A594"/>
<path d="M123.956 252.636L120.847 238.693L139.494 233.673C144.321 248.038 127.097 259.514 123.956 252.636Z" fill="#F4856D"/>
<path d="M142.014 225.905C143.052 239.609 132.222 251.678 123.135 252.291C114.047 252.903 101.535 242.753 100.497 229.048C99.4597 215.344 107.912 203.53 119.377 202.662C130.842 201.794 140.977 212.2 142.014 225.905Z" fill="#F7A594"/>
<path d="M126.82 203.7C114.254 195.743 107.337 203.226 101.081 211.164C96.6898 216.735 93.5797 220.737 88.1148 221.574C98.6267 234.834 119.651 226.087 126.274 212.8C126.926 220.363 135.842 226.628 142.014 225.905C144.014 217.489 138.185 200.475 126.82 203.7Z" fill="#0E0E0E"/>
<path d="M138.74 231.485C135.758 231.001 133.733 228.191 134.217 225.209C134.701 222.228 137.511 220.203 140.492 220.687C143.474 221.17 145.499 223.98 145.015 226.962C144.531 229.944 141.722 231.969 138.74 231.485Z" fill="#F7A594"/>
</svg>
