<svg width="156" height="48" viewBox="0 0 156 48" fill="none" xmlns="http://www.w3.org/2000/svg">
<path d="M7.14257 0.768715C4.77239 1.72961 3.01077 3.17095 1.82568 5.0607C0 7.97541 0 7.87931 0 23.702C0 37.2826 0.0320294 38.4036 0.640589 40.3575C1.72959 44.0088 5.41298 46.9556 9.80101 47.7243C11.1783 47.9485 16.4311 48.0446 25.4634 47.9805C38.8197 47.8844 39.108 47.8524 40.9336 47.1478C44.553 45.6744 47.2755 41.991 47.916 37.699C48.2684 35.1046 48.2684 12.5877 47.884 9.96125C47.7239 8.84021 47.2114 7.14263 46.763 6.18174C45.7701 4.1959 43.464 1.69758 42.2789 1.40931C41.8305 1.31322 41.4781 1.12104 41.4781 0.992924C41.4781 0.864807 40.8375 0.608566 40.0368 0.384361C39.0119 0.0960922 34.3676 3.8147e-06 23.7658 3.8147e-06C9.00027 3.8147e-06 8.96824 0.032032 7.14257 0.768715ZM40.3571 3.0108C42.3109 3.93966 43.4319 4.96461 44.585 6.98248L45.4818 8.48788V24.0223V39.5567L44.2647 41.4144C42.7273 43.7846 40.8375 45.0018 37.9549 45.4822C36.4815 45.7385 31.549 45.8025 22.7089 45.7385L9.60883 45.6424L7.84721 44.8416C5.50906 43.8167 3.5873 41.7988 2.85062 39.6528C2.30612 38.0833 2.24206 36.7381 2.24206 23.702V9.44877L3.01077 7.7512C3.90759 5.73333 6.3098 3.45921 8.2636 2.78659C9.38463 2.3702 12.1071 2.27411 24.1822 2.27411L38.7556 2.24208L40.3571 3.0108Z" fill="#3454BD"/>
<path d="M13.6123 23.8621V39.3965H15.2138H16.8152V32.1899V24.9832H24.182H31.5488V23.702V22.4208H24.182H16.8152V16.6554V10.8901H25.4632H34.1112V10.1214C34.1112 9.70499 34.2072 9.12845 34.3033 8.84018C34.4955 8.39177 33.4385 8.32771 24.0539 8.32771H13.6123V23.8621Z" fill="#3454BD"/>
<path d="M70.2085 8.38657C69.5791 8.62634 68.7399 9.01596 68.2903 9.2857C67.1515 10.0649 65.8327 12.3427 65.6229 13.9312C65.1734 17.4977 65.3232 17.258 63.6748 17.258H62.1763V18.4568V19.6557H63.7647H65.3232L65.2333 29.6959L65.1434 39.7362H66.6719H68.1705V29.6959V19.6557H70.5681H72.9658V18.4568V17.258H70.5382H68.1405L68.3203 15.8194C68.62 13.6315 69.0097 12.6125 69.9088 11.8033C71.5872 10.2148 74.4644 10.005 76.1427 11.3537C77.7012 12.5825 77.7612 13.0021 77.7612 25.2602C77.7612 38.3276 77.7312 38.1478 80.2787 39.4065C81.6274 40.0959 81.8672 40.1258 83.8153 39.7962C84.9542 39.6163 85.9732 39.4065 86.0631 39.3466C86.1231 39.2567 86.0931 38.6872 85.9732 38.0878L85.7634 36.9789L84.4447 37.1587C83.6954 37.2486 82.7663 37.2486 82.3767 37.1587C80.8482 36.7691 80.7583 36.1697 80.7583 24.3911C80.7583 18.1271 80.6384 13.062 80.4586 12.4326C80.009 10.8142 78.3007 8.98599 76.6523 8.44651C74.9739 7.87706 71.737 7.84709 70.2085 8.38657Z" fill="#3454BD"/>
<path d="M95.2345 17.6776C93.1964 18.4269 92.8668 18.6367 91.1584 20.2251C87.5319 23.5819 86.8426 30.0556 89.5699 34.7311C90.529 36.3495 92.1474 37.8181 94.2754 38.9869C95.7739 39.8261 96.1036 39.8861 99.0408 39.8861C102.487 39.8861 104.076 39.4065 106.024 37.7581C106.983 36.9489 108.781 34.6711 108.602 34.5213C108.542 34.4913 107.942 34.2815 107.283 34.1017C106.354 33.8319 106.054 33.8319 105.964 34.1316C105.754 34.791 103.506 36.7391 102.398 37.2187C101.798 37.4884 100.419 37.6982 99.3405 37.7282C95.6541 37.7581 92.8668 35.81 91.548 32.3334C90.4091 29.2764 89.5999 29.5461 100.539 29.5461H110.13V28.7069C110.13 25.6199 108.811 22.3531 106.653 20.0753C103.956 17.198 99.1007 16.179 95.2345 17.6776ZM102.248 19.8355C104.495 20.6447 107.103 24.1813 107.133 26.4591V27.4481H99.0408H90.9486V26.4591C90.9786 24.3012 92.9567 21.394 95.2345 20.1951C97.5123 19.0562 99.7001 18.9364 102.248 19.8355Z" fill="#3454BD"/>
<path d="M141.091 17.4079C134.347 19.5058 131.2 27.1484 134.347 33.8619C136.115 37.6083 139.502 39.7962 143.848 39.976C146.995 40.1259 149.063 39.3766 151.341 37.3086C155.087 33.8619 156.256 28.1375 154.098 23.492C153.379 21.8736 151.101 19.2661 149.692 18.3969C147.414 17.0183 143.668 16.5987 141.091 17.4079ZM147.145 20.1053C148.733 20.7347 150.472 22.5929 151.371 24.541C154.697 31.9738 147.924 39.9161 141.001 36.7092C137.764 35.2106 136.145 32.4533 136.115 28.4971C136.115 22.2032 141.75 17.9174 147.145 20.1053Z" fill="#3454BD"/>
<path d="M111.509 17.6176C111.629 17.8274 112.558 19.0862 113.547 20.375C114.566 21.6637 115.795 23.3121 116.274 24.0015C116.784 24.6908 117.743 25.9795 118.462 26.9086C119.151 27.8078 119.721 28.647 119.721 28.7369C119.721 28.8268 119.481 29.1565 119.181 29.4562C118.612 29.9957 111.928 38.6573 111.509 39.3466C111.359 39.6463 111.688 39.7362 112.797 39.7362H114.296L117.863 35.1207L121.399 30.5052L124.936 35.1207L128.472 39.7362H129.941C130.75 39.7362 131.409 39.6763 131.409 39.5864C131.409 39.4965 129.581 37.0688 127.333 34.1616C124.816 30.8948 123.317 28.7069 123.377 28.4072C123.467 28.1075 125.295 25.5599 127.453 22.7127C129.641 19.8954 131.409 17.4978 131.409 17.4078C131.409 17.3179 130.75 17.258 129.941 17.258H128.472L124.936 21.8735L121.399 26.519L119.96 24.6608C119.181 23.6418 117.623 21.5738 116.514 20.0453L114.476 17.288H112.887C111.688 17.258 111.359 17.3479 111.509 17.6176Z" fill="#3454BD"/>
</svg>
