<svg width="24" height="25" viewBox="0 0 24 25" fill="none" xmlns="http://www.w3.org/2000/svg">
<g id="icon">
<path id="open_in_new" d="M5 21.9775C4.45 21.9775 3.97917 21.7817 3.5875 21.39C3.19583 20.9984 3 20.5275 3 19.9775V5.97754C3 5.42754 3.19583 4.95671 3.5875 4.56504C3.97917 4.17337 4.45 3.97754 5 3.97754H12V5.97754H5V19.9775H19V12.9775H21V19.9775C21 20.5275 20.8042 20.9984 20.4125 21.39C20.0208 21.7817 19.55 21.9775 19 21.9775H5ZM9.7 16.6775L8.3 15.2775L17.6 5.97754H14V3.97754H21V10.9775H19V7.37754L9.7 16.6775Z" fill="#5577E8"/>
</g>
</svg>
