<svg width="24" height="24" viewBox="0 0 24 24" fill="none" xmlns="http://www.w3.org/2000/svg">
<path d="M3.5625 19.8945C3.0125 19.8945 2.54167 19.6987 2.15 19.307C1.75833 18.9154 1.5625 18.4445 1.5625 17.8945V5.89453C1.5625 5.34453 1.75833 4.8737 2.15 4.48203C2.54167 4.09036 3.0125 3.89453 3.5625 3.89453H19.5625C20.1125 3.89453 20.5833 4.09036 20.975 4.48203C21.3667 4.8737 21.5625 5.34453 21.5625 5.89453V17.8945C21.5625 18.4445 21.3667 18.9154 20.975 19.307C20.5833 19.6987 20.1125 19.8945 19.5625 19.8945H3.5625ZM11.5625 12.8945L3.5625 7.89453V17.8945H19.5625V7.89453L11.5625 12.8945ZM11.5625 10.8945L19.5625 5.89453H3.5625L11.5625 10.8945ZM3.5625 7.89453V5.89453V17.8945V7.89453Z" fill="#5577E8"/>
</svg>
