<svg width="24" height="25" viewBox="0 0 24 25" fill="none" xmlns="http://www.w3.org/2000/svg">
<path d="M11.8418 12.5576C12.3918 12.5576 12.8626 12.3618 13.2543 11.9701C13.646 11.5785 13.8418 11.1076 13.8418 10.5576C13.8418 10.0076 13.646 9.53678 13.2543 9.14512C12.8626 8.75345 12.3918 8.55762 11.8418 8.55762C11.2918 8.55762 10.821 8.75345 10.4293 9.14512C10.0376 9.53678 9.8418 10.0076 9.8418 10.5576C9.8418 11.1076 10.0376 11.5785 10.4293 11.9701C10.821 12.3618 11.2918 12.5576 11.8418 12.5576ZM11.8418 19.9076C13.8751 18.041 15.3835 16.3451 16.3668 14.8201C17.3501 13.2951 17.8418 11.941 17.8418 10.7576C17.8418 8.94095 17.2626 7.45345 16.1043 6.29512C14.946 5.13678 13.5251 4.55762 11.8418 4.55762C10.1585 4.55762 8.73763 5.13678 7.5793 6.29512C6.42096 7.45345 5.8418 8.94095 5.8418 10.7576C5.8418 11.941 6.33346 13.2951 7.3168 14.8201C8.30013 16.3451 9.80846 18.041 11.8418 19.9076ZM11.8418 22.5576C9.15846 20.2743 7.1543 18.1535 5.8293 16.1951C4.5043 14.2368 3.8418 12.4243 3.8418 10.7576C3.8418 8.25762 4.64596 6.26595 6.2543 4.78262C7.86263 3.29928 9.72513 2.55762 11.8418 2.55762C13.9585 2.55762 15.821 3.29928 17.4293 4.78262C19.0376 6.26595 19.8418 8.25762 19.8418 10.7576C19.8418 12.4243 19.1793 14.2368 17.8543 16.1951C16.5293 18.1535 14.5251 20.2743 11.8418 22.5576Z" fill="#5577E8"/>
</svg>
