<svg width="52" height="33" viewBox="0 0 52 33" fill="none" xmlns="http://www.w3.org/2000/svg">
<g clip-path="url(#clip0_328_2098)">
<path d="M10.0856 0.977539H22.8412C24.6218 0.977539 25.7292 2.42894 25.314 4.21554L19.3752 29.7125C18.9562 31.4929 17.1732 32.9455 15.3916 32.9455H2.63698C0.858981 32.9455 -0.251019 31.4929 0.164381 29.7125L6.10558 4.21554C6.52098 2.42894 8.30278 0.977539 10.0856 0.977539Z" fill="#E21836"/>
<path d="M21.7795 0.977539H36.4483C38.2285 0.977539 37.4259 2.42894 37.0071 4.21554L31.0691 29.7125C30.6527 31.4929 30.7825 32.9455 28.9985 32.9455H14.3299C12.5459 32.9455 11.4419 31.4929 11.8609 29.7125L17.7983 4.21554C18.2199 2.42894 19.9981 0.977539 21.7795 0.977539Z" fill="#00447C"/>
<path d="M35.8666 0.977539H48.6222C50.4054 0.977539 51.5128 2.42894 51.0942 4.21554L45.1562 29.7125C44.7372 31.4929 42.9532 32.9455 41.1702 32.9455H28.4206C26.6366 32.9455 25.53 31.4929 25.948 29.7125L31.8866 4.21554C32.302 2.42894 34.0826 0.977539 35.8666 0.977539Z" fill="#007B84"/>
<path d="M13.4165 9.14876C12.1049 9.16216 11.7175 9.14876 11.5937 9.11956C11.5461 9.34556 10.6609 13.4288 10.6585 13.4322C10.4679 14.2582 10.3293 14.8472 9.85814 15.2274C9.59094 15.4484 9.27874 15.5552 8.91674 15.5552C8.33514 15.5552 7.99614 15.2662 7.93934 14.7184L7.92834 14.5304C7.92834 14.5304 8.10554 13.4238 8.10554 13.4176C8.10554 13.4176 9.03454 9.69656 9.20094 9.20476C9.20974 9.17676 9.21214 9.16216 9.21434 9.14876C7.40614 9.16476 7.08554 9.14876 7.06354 9.11956C7.05134 9.15956 7.00654 9.39036 7.00654 9.39036L6.05794 13.5844L5.97654 13.94L5.81894 15.1034C5.81894 15.4484 5.88674 15.7302 6.02154 15.9684C6.45374 16.7236 7.68654 16.8368 8.38394 16.8368C9.28234 16.8368 10.1253 16.6458 10.6949 16.2972C11.6835 15.7132 11.9423 14.8 12.1729 13.9884L12.2799 13.5722C12.2799 13.5722 13.2369 9.70756 13.3995 9.20476C13.4055 9.17676 13.4081 9.16216 13.4165 9.14876ZM16.6725 12.2664C16.4419 12.2664 16.0205 12.3224 15.6417 12.508C15.5043 12.5786 15.3743 12.66 15.2371 12.7412L15.3609 12.2944L15.2931 12.2192C14.4901 12.3818 14.3103 12.4036 13.5685 12.508L13.5065 12.5494C13.4203 13.2634 13.3437 13.8004 13.0245 15.2042C12.9022 15.7234 12.7774 16.2421 12.6501 16.7602L12.6841 16.8256C13.4445 16.7856 13.6751 16.7856 14.3359 16.7964L14.3893 16.7384C14.4733 16.3084 14.4841 16.2076 14.6701 15.3366C14.7575 14.9238 14.9397 14.0166 15.0295 13.6936C15.1945 13.617 15.3575 13.5418 15.5129 13.5418C15.8833 13.5418 15.8381 13.8648 15.8239 13.9936C15.8079 14.2096 15.6731 14.9154 15.5347 15.5214L15.4423 15.9124C15.3781 16.2014 15.3075 16.482 15.2431 16.7684L15.2711 16.8256C16.0203 16.7856 16.2489 16.7856 16.8887 16.7964L16.9639 16.7384C17.0797 16.0668 17.1135 15.887 17.3187 14.9092L17.4219 14.46C17.6225 13.5806 17.7233 13.1348 17.5715 12.7716C17.4111 12.3646 17.0259 12.2664 16.6725 12.2664ZM20.3101 13.187C19.9117 13.2636 19.6577 13.3144 19.4053 13.3474C19.1551 13.3874 18.9109 13.424 18.5261 13.4774L18.4955 13.505L18.4675 13.527C18.4275 13.8138 18.3995 14.0616 18.3463 14.353C18.3013 14.6542 18.2319 14.9966 18.1191 15.4884C18.0317 15.8648 17.9867 15.996 17.9369 16.1284C17.8883 16.261 17.8349 16.3898 17.7367 16.76L17.7597 16.7942L17.7789 16.8256C18.1387 16.8086 18.3741 16.7964 18.6159 16.7942C18.8575 16.7856 19.1079 16.7942 19.4951 16.7962L19.5291 16.7688L19.5655 16.7382C19.6215 16.4042 19.6297 16.3144 19.6639 16.1516C19.6979 15.9768 19.7563 15.735 19.8997 15.0888C19.9675 14.7854 20.0429 14.4828 20.1133 14.1732C20.1863 13.8648 20.2627 13.5612 20.3355 13.2576L20.3247 13.221L20.3101 13.187ZM20.3185 11.9458C19.9565 11.7322 19.3215 11.8 18.8939 12.095C18.4677 12.3842 18.4191 12.7946 18.7799 13.011C19.1355 13.2186 19.7731 13.1568 20.1969 12.8592C20.6223 12.5638 20.6755 12.1572 20.3185 11.9458ZM22.5071 16.8926C23.2393 16.8926 23.9899 16.6906 24.5549 16.092C24.9895 15.6064 25.1889 14.8838 25.2579 14.5862C25.4825 13.6 25.3075 13.1396 25.0879 12.8592C24.7539 12.4316 24.1637 12.2944 23.5515 12.2944C23.1835 12.2944 22.3067 12.3308 21.6217 12.9624C21.1297 13.4178 20.9025 14.036 20.7655 14.6284C20.6271 15.2324 20.4679 16.3192 21.4675 16.7238C21.7759 16.8562 22.2205 16.8926 22.5071 16.8926ZM22.4499 14.6736C22.6187 13.9268 22.8181 13.3 23.3267 13.3C23.7253 13.3 23.7543 13.7664 23.5771 14.5156C23.5453 14.682 23.3999 15.3004 23.2031 15.5636C23.0655 15.758 22.9031 15.8758 22.7231 15.8758C22.6697 15.8758 22.3517 15.8758 22.3467 15.4036C22.3443 15.1704 22.3919 14.9322 22.4499 14.6736ZM27.0881 16.7966L27.1453 16.7384C27.2265 16.3084 27.2399 16.2074 27.4195 15.3368C27.5095 14.9238 27.6955 14.0168 27.7827 13.6936C27.9481 13.6168 28.1083 13.5416 28.2687 13.5416C28.6365 13.5416 28.5917 13.8646 28.5771 13.9934C28.5637 14.2098 28.4287 14.9152 28.2879 15.5212L28.2005 15.9122C28.1337 16.2014 28.0609 16.4818 27.9965 16.7686L28.0245 16.8258C28.7765 16.7858 28.9961 16.7858 29.6397 16.7966L29.7175 16.7384C29.8303 16.0664 29.8609 15.8868 30.0723 14.9092L30.1729 14.4598C30.3745 13.5804 30.4765 13.135 30.3271 12.7718C30.1621 12.3648 29.7747 12.2666 29.4261 12.2666C29.1951 12.2666 28.7715 12.3222 28.3949 12.5082C28.2603 12.5786 28.1253 12.6598 27.9929 12.7414L28.1083 12.2946L28.0463 12.219C27.2435 12.3818 27.0603 12.4036 26.3193 12.5082L26.2623 12.5494C26.1725 13.2636 26.0995 13.8002 25.7803 15.2044C25.658 15.7235 25.5332 16.2421 25.4061 16.7602L25.4401 16.8258C26.2015 16.7858 26.4287 16.7858 27.0881 16.7966ZM32.6117 16.8256C32.6589 16.5948 32.9397 15.2276 32.9421 15.2276C32.9421 15.2276 33.1811 14.2242 33.1959 14.1878C33.1959 14.1878 33.2711 14.0834 33.3463 14.042H33.4569C34.5013 14.042 35.6807 14.042 36.6049 13.362C37.2339 12.8956 37.6639 12.207 37.8557 11.37C37.9055 11.1648 37.9421 10.9208 37.9421 10.6768C37.9421 10.3562 37.8779 10.039 37.6919 9.79116C37.2205 9.13176 36.2819 9.11956 35.1983 9.11456L34.6643 9.11956C33.2773 9.13676 32.7211 9.13176 32.4925 9.10376C32.4733 9.20476 32.4369 9.38456 32.4369 9.38456C32.4369 9.38456 31.9401 11.6872 31.9401 11.6908L30.6951 16.8172C31.9061 16.8026 32.4027 16.8026 32.6117 16.8256ZM33.5323 12.7352C33.5323 12.7352 34.0603 10.4372 34.0579 10.446L34.0751 10.328L34.0825 10.2384L34.2937 10.26C34.2937 10.26 35.3831 10.3536 35.4085 10.356C35.8385 10.5224 36.0157 10.9512 35.8921 11.5108C35.7791 12.0224 35.4475 12.4524 35.0211 12.66C34.6701 12.836 34.2401 12.8506 33.7971 12.8506H33.5105L33.5323 12.7352ZM36.8211 14.7162C36.6815 15.3112 36.5211 16.3982 37.5157 16.7856C37.8329 16.9204 38.1171 16.9606 38.4057 16.946C38.7109 16.9296 38.9935 16.7766 39.2553 16.5564L39.1843 16.8282L39.2295 16.8862C39.9449 16.8562 40.1669 16.8562 40.9419 16.8622L41.0123 16.8086C41.1253 16.1432 41.2321 15.4972 41.5263 14.2242C41.6695 13.6146 41.8125 13.0108 41.9595 12.4036L41.9365 12.3368C41.1363 12.485 40.9225 12.5168 40.1525 12.6258L40.0941 12.6734C40.0863 12.7354 40.0781 12.7948 40.0707 12.8542C39.9511 12.6608 39.7775 12.4956 39.5099 12.3928C39.1675 12.258 38.3635 12.4316 37.6725 13.0608C37.1867 13.5102 36.9535 14.1258 36.8211 14.7162ZM38.5019 14.7526C38.6733 14.019 38.8699 13.3986 39.3799 13.3986C39.7023 13.3986 39.8721 13.696 39.8375 14.2034C39.808 14.3405 39.7773 14.4775 39.7455 14.6142C39.6945 14.8322 39.6393 15.0482 39.5855 15.2646C39.5307 15.4126 39.4669 15.5522 39.3971 15.6452C39.2659 15.8312 38.9537 15.9464 38.7739 15.9464C38.7229 15.9464 38.4083 15.9464 38.3975 15.4824C38.3949 15.2516 38.4425 15.0138 38.5019 14.7526ZM47.2791 12.3308L47.2171 12.2602C46.4253 12.4206 46.2819 12.4462 45.5545 12.5444L45.5009 12.5978C45.4985 12.6066 45.4963 12.6198 45.4925 12.632L45.4901 12.62C44.9485 13.8696 44.9643 13.6 44.5235 14.5836C44.5209 14.5388 44.5209 14.511 44.5185 14.4634L44.4081 12.3308L44.3389 12.2602C43.5093 12.4206 43.4897 12.4462 42.7237 12.5444L42.6639 12.5978C42.6555 12.6234 42.6555 12.6514 42.6505 12.6818L42.6555 12.6928C42.7513 13.182 42.7283 13.0728 42.8243 13.8452C42.8691 14.2242 42.9289 14.6054 42.9735 14.9798C43.0491 15.6062 43.0915 15.9146 43.1837 16.8708C42.6665 17.7244 42.5439 18.0476 42.0457 18.7968L42.0493 18.8042L41.6985 19.359C41.6585 19.4174 41.6221 19.4574 41.5711 19.4746C41.5151 19.5022 41.4423 19.5072 41.3413 19.5072H41.1469L40.8581 20.468L41.8491 20.485C42.4307 20.4826 42.7963 20.2106 42.9931 19.845L43.6163 18.7772H43.6063L43.6719 18.702C44.0911 17.7998 47.2791 12.3308 47.2791 12.3308ZM36.8211 24.9484H36.4007L37.9567 19.8024H38.4727L38.6367 19.2724L38.6523 19.8618C38.6331 20.2262 38.9197 20.5492 39.6727 20.4958H40.5437L40.8433 19.505H40.5157C40.3273 19.505 40.2397 19.4574 40.2507 19.3554L40.2349 18.7556H38.6223V18.7588C38.1009 18.7696 36.5437 18.8088 36.2285 18.8928C35.8471 18.9908 35.4451 19.2802 35.4451 19.2802L35.6031 18.7494H34.0945L33.7801 19.8024L32.2035 25.027H31.8975L31.5975 26.0108H34.6021L34.5015 26.3388H35.9819L36.0803 26.0108H36.4955L36.8211 24.9484ZM35.5883 20.848C35.3467 20.9148 34.8973 21.1176 34.8973 21.1176L35.2971 19.8024H36.4955L36.2065 20.7606C36.2065 20.7606 35.8359 20.7826 35.5883 20.848ZM35.6113 22.7268C35.6113 22.7268 35.2349 22.7742 34.9871 22.83C34.7431 22.904 34.2853 23.1372 34.2853 23.1372L34.6983 21.7686H35.9029L35.6113 22.7268ZM34.9397 24.9604H33.7375L34.0861 23.8054H35.2845L34.9397 24.9604ZM37.8351 21.7686H39.5681L39.3191 22.5752H37.5631L37.2995 23.4568H38.8361L37.6725 25.095C37.5911 25.2154 37.5181 25.258 37.4369 25.2918C37.3555 25.3332 37.2485 25.3818 37.1249 25.3818H36.6985L36.4057 26.3474H37.5205C38.1001 26.3474 38.4425 26.0838 38.6951 25.7378L39.4931 24.6458L39.6643 25.7546C39.7007 25.9622 39.8499 26.0838 39.9509 26.131C40.0625 26.187 40.1779 26.283 40.3409 26.2974C40.5155 26.3048 40.6417 26.3108 40.7257 26.3108H41.2737L41.6025 25.23H41.3865C41.2625 25.23 41.0487 25.2092 41.0125 25.1704C40.9759 25.123 40.9759 25.0504 40.9565 24.9396L40.7825 23.8284H40.0709L40.3831 23.4568H42.1357L42.4053 22.5752H40.7827L41.0353 21.7686H42.6531L42.9531 20.774H38.1303L37.8351 21.7686ZM23.1981 25.185L23.6025 23.8394H25.2651L25.5687 22.8386H23.9047L24.1587 22.0104H25.7847L26.0861 21.0412H22.0175L21.7225 22.0104H22.6469L22.4003 22.8384H21.4735L21.1663 23.8564H22.0903L21.5511 25.6368C21.4785 25.8724 21.5853 25.9622 21.6531 26.0718C21.7225 26.1784 21.7927 26.249 21.9507 26.289C22.1137 26.3254 22.2253 26.3472 22.3769 26.3472H24.2511L24.5851 25.2384L23.7543 25.3526C23.5939 25.3526 23.1495 25.3334 23.1981 25.185ZM23.3887 18.7434L22.9675 19.5048C22.8775 19.671 22.7961 19.7744 22.7231 19.8218C22.6587 19.8618 22.5311 19.8788 22.3465 19.8788H22.1267L21.8329 20.8528H22.5629C22.9141 20.8528 23.1835 20.7242 23.3123 20.6598C23.4507 20.5858 23.4871 20.628 23.5939 20.5248L23.8405 20.3112H26.1201L26.4227 19.2972H24.7539L25.0453 18.7432L23.3887 18.7434ZM26.7541 25.2046C26.7153 25.1486 26.7433 25.05 26.8027 24.8448L27.4257 22.7826H29.6423C29.9653 22.778 30.1983 22.7742 30.3503 22.7634C30.5131 22.7462 30.6903 22.688 30.8833 22.5836C31.0827 22.4742 31.1847 22.3588 31.2707 22.2264C31.3667 22.0944 31.5211 21.805 31.6535 21.3592L32.4367 18.7494L30.1367 18.7628C30.1367 18.7628 29.4283 18.8672 29.1165 18.9828C28.8019 19.1114 28.3523 19.4708 28.3523 19.4708L28.5599 18.7554H27.1391L25.1499 25.3526C25.0793 25.6086 25.0319 25.7946 25.0211 25.9064C25.0175 26.0266 25.1729 26.1458 25.2737 26.2356C25.3927 26.3254 25.5687 26.3108 25.7375 26.3254C25.9151 26.3388 26.1675 26.3472 26.5161 26.3472H27.6081L27.9431 25.2154L26.9657 25.3078C26.8611 25.3078 26.7857 25.2518 26.7541 25.2046ZM27.8277 21.3898H30.1557L30.0077 21.8536C29.9871 21.8644 29.9373 21.8306 29.7003 21.8586H27.6843L27.8277 21.3898ZM28.2941 19.8338H30.6419L30.4729 20.3926C30.4729 20.3926 29.3665 20.3818 29.1893 20.4144C28.4093 20.5494 27.9539 20.966 27.9539 20.966L28.2941 19.8338ZM30.0601 23.407C30.0407 23.4764 30.0101 23.5186 29.9677 23.5504C29.9203 23.5808 29.8437 23.5916 29.7297 23.5916H29.3981L29.4177 23.0268H28.0377L27.9817 25.7886C27.9797 25.9878 27.9989 26.1032 28.1447 26.1956C28.2907 26.3108 28.7399 26.3256 29.3447 26.3256H30.2093L30.5213 25.2916L29.7687 25.333L29.5183 25.3476C29.4843 25.333 29.4515 25.3196 29.4151 25.2834C29.3835 25.252 29.3299 25.2712 29.3387 25.072L29.3447 24.364L30.1339 24.3314C30.5603 24.3314 30.7425 24.1926 30.8979 24.0606C31.0461 23.934 31.0947 23.7886 31.1507 23.5916L31.2831 22.9648H30.1983L30.0599 23.4068L30.0601 23.407Z" fill="#FEFEFE"/>
</g>
<defs>
<clipPath id="clip0_328_2098">
<rect width="51.2" height="32" fill="white" transform="translate(0.0769348 0.977539)"/>
</clipPath>
</defs>
</svg>
