<svg width="241" height="213" viewBox="0 0 241 213" fill="none" xmlns="http://www.w3.org/2000/svg">
<path d="M240.476 212.876H5.88221C5.88221 212.876 5.67926 208.785 5.61941 202.181C5.58482 198.334 5.59782 193.632 5.72879 188.388C5.74007 187.958 5.75125 187.525 5.76339 187.088C5.83172 184.683 5.92433 182.172 6.04864 179.585C6.05992 179.355 6.0711 179.125 6.08324 178.895C6.21797 176.187 6.38719 173.376 6.59767 170.489C6.76882 168.139 6.96609 165.738 7.19622 163.299C7.21212 163.128 7.22899 162.955 7.24585 162.784C7.36458 161.541 7.49266 160.292 7.62835 159.033C7.68164 158.539 7.73589 158.044 7.79198 157.548C7.90146 156.579 8.01546 155.605 8.13612 154.63C8.42793 152.242 8.75347 149.835 9.11447 147.423C9.1509 147.178 9.18829 146.93 9.22481 146.682C9.38941 145.606 9.56057 144.528 9.73924 143.449C10.0114 141.805 10.3013 140.164 10.609 138.524C10.8016 137.497 11.0027 136.469 11.2103 135.444C17.6842 103.482 31.3895 73.7459 60.0084 74.344C121.498 75.6318 116.779 5.20218 159.82 0.695938C177.35 -1.14114 188.039 32.0911 184.885 79.5705C179.554 159.885 239.695 101.661 240.476 212.876Z" fill="#739AF0" fill-opacity="0.3"/>
<path d="M61.5137 7.76118V78.7012H184.951V7.76118H61.5137Z" fill="#AED3FF"/>
<path d="M65.5271 7.76118V78.7012H188.964V7.76118H65.5271Z" fill="#739AF0"/>
<path d="M99.2878 18.8421C86.9597 18.8421 76.9692 29.0433 76.9692 41.6287C76.9692 54.2119 86.9597 64.4131 99.2878 64.4131C111.614 64.4131 121.606 54.2119 121.606 41.6287C121.606 29.0433 111.614 18.8421 99.2878 18.8421Z" fill="#F3F9FF"/>
<path d="M175.088 28.8994H138.115C136.774 28.8994 135.678 30.0183 135.678 31.3872C135.678 32.756 136.774 33.875 138.115 33.875H175.088C176.427 33.875 177.525 32.756 177.525 31.3872C177.525 30.0183 176.427 28.8994 175.088 28.8994Z" fill="#F3F9FF"/>
<path d="M175.088 39.1409H138.115C136.774 39.1409 135.678 40.2598 135.678 41.6287C135.678 42.9953 136.774 44.1143 138.115 44.1143H175.088C176.427 44.1143 177.525 42.9953 177.525 41.6287C177.525 40.2598 176.427 39.1409 175.088 39.1409Z" fill="#F3F9FF"/>
<path d="M175.088 49.3821H138.115C136.774 49.3821 135.678 50.501 135.678 51.8677C135.678 53.2365 136.774 54.3555 138.115 54.3555H175.088C176.427 54.3555 177.525 53.2365 177.525 51.8677C177.525 50.501 176.427 49.3821 175.088 49.3821Z" fill="#F3F9FF"/>
<path d="M78.8521 41.2979H99.2873V20.4362C88.0023 20.4362 78.8521 29.7751 78.8521 41.2979Z" fill="#3A4ACE"/>
<path d="M119.72 41.9694H99.2873H78.8521C78.8521 53.4899 88.0023 62.8311 99.2873 62.8311C110.572 62.8311 119.72 53.4899 119.72 41.9694Z" fill="#3A4ACE"/>
<path d="M95.7563 30.5726H84.6676C84.0368 30.5726 83.5186 31.0994 83.5186 31.7433C83.5186 32.3872 84.0368 32.9141 84.6676 32.9141H95.7563C96.387 32.9141 96.9053 32.3872 96.9053 31.7433C96.9053 31.0994 96.387 30.5726 95.7563 30.5726Z" fill="#6D89D0"/>
<path d="M87.1927 34.8333H84.6676C84.0368 34.8333 83.5186 35.3602 83.5186 36.0041C83.5186 36.648 84.0368 37.1748 84.6676 37.1748H87.1927C87.8235 37.1748 88.3395 36.648 88.3395 36.0041C88.3395 35.3602 87.8235 34.8333 87.1927 34.8333Z" fill="#6D89D0"/>
<path d="M112.221 47.0677H101.13C100.5 47.0677 99.9836 47.5945 99.9836 48.2384C99.9836 48.8823 100.5 49.4092 101.13 49.4092H112.221C112.852 49.4092 113.368 48.8823 113.368 48.2384C113.368 47.5945 112.852 47.0677 112.221 47.0677Z" fill="#A6C7F9"/>
<path d="M103.658 51.3304H101.13C100.5 51.3304 99.9836 51.8572 99.9836 52.5011C99.9836 53.145 100.5 53.6719 101.13 53.6719H103.658C104.289 53.6719 104.805 53.145 104.805 52.5011C104.805 51.8572 104.289 51.3304 103.658 51.3304Z" fill="#A6C7F9"/>
<path d="M52.8203 91.406V163.958H176.257V91.406H52.8203Z" fill="#AED3FF"/>
<path d="M56.8335 91.406V163.958H180.271V91.406H56.8335Z" fill="#739AF0"/>
<path d="M68.2732 125.44C68.2732 112.857 78.2658 102.656 90.5918 102.656C102.918 102.656 112.91 112.857 112.91 125.44C112.91 138.026 102.918 148.225 90.5918 148.225C78.2658 148.225 68.2732 138.026 68.2732 125.44Z" fill="#F3F9FF"/>
<path d="M129.419 117.687H166.393C167.733 117.687 168.83 116.568 168.83 115.201C168.83 113.832 167.733 112.713 166.393 112.713H129.419C128.08 112.713 126.982 113.832 126.982 115.201C126.982 116.568 128.08 117.687 129.419 117.687Z" fill="#F3F9FF"/>
<path d="M166.393 122.954H129.419C128.08 122.954 126.982 124.073 126.982 125.44C126.982 126.809 128.08 127.928 129.419 127.928H166.393C167.733 127.928 168.83 126.809 168.83 125.44C168.83 124.073 167.733 122.954 166.393 122.954Z" fill="#F3F9FF"/>
<path d="M166.393 133.194H129.419C128.08 133.194 126.982 134.313 126.982 135.682C126.982 137.051 128.08 138.17 129.419 138.17H166.393C167.733 138.17 168.83 137.051 168.83 135.682C168.83 134.313 167.733 133.194 166.393 133.194Z" fill="#F3F9FF"/>
<path d="M90.5919 125.812L70.1589 125.547C70.1567 125.634 70.1567 125.724 70.1567 125.812C70.1567 137.333 79.3069 146.674 90.5919 146.674C94.6256 146.674 98.388 145.478 101.555 143.416L90.5919 125.812Z" fill="#3A4ACE"/>
<path d="M91.3437 132.38H80.255C79.6221 132.38 79.106 132.907 79.106 133.551V133.553C79.106 134.197 79.6221 134.724 80.255 134.724H91.3437C91.9744 134.724 92.4905 134.197 92.4905 133.553V133.551C92.4905 132.907 91.9744 132.38 91.3437 132.38Z" fill="#A6C7F9"/>
<path d="M82.7802 136.641H80.255C79.6221 136.641 79.106 137.167 79.106 137.811C79.106 138.458 79.6221 138.984 80.255 138.984H82.7802C83.4109 138.984 83.927 138.458 83.927 137.811C83.927 137.167 83.4109 136.641 82.7802 136.641Z" fill="#A6C7F9"/>
<path d="M208.901 43.9301C208.901 43.9301 223.3 59.1047 223.99 64.8256C224.681 70.5487 217.14 79.498 217.14 79.498L208.901 43.9301Z" fill="#5577E8"/>
<path d="M202.746 201.344C202.746 201.344 202.254 209.41 200.726 209.528C200.523 209.541 192.972 209.541 192.972 209.541L183.334 209.485C183.334 209.485 183.396 207.114 186.214 206.612C189.031 206.112 193.748 204.09 195.455 200.288C197.25 196.289 202.746 201.344 202.746 201.344Z" fill="#163560"/>
<path d="M224.213 201.344C224.213 201.344 223.724 209.41 222.196 209.528C221.993 209.541 214.441 209.541 214.441 209.541L204.773 209.507C204.773 209.507 204.866 207.114 207.682 206.612C210.5 206.112 215.215 204.09 216.922 200.288C218.718 196.289 224.213 201.344 224.213 201.344Z" fill="#163560"/>
<path d="M192.07 114.838C192.07 114.838 194.591 131.298 203.994 160.515C213.4 189.734 214.682 202.387 214.682 202.387C214.682 202.387 217.225 202.763 219.911 202.763C221.611 202.763 224.769 202.096 224.769 202.096C224.769 202.096 224.855 170.167 220.522 155.474C216.188 140.781 219.587 102.505 219.587 102.505L192.07 114.838Z" fill="#233862"/>
<path d="M187.16 103.405C187.16 103.405 186.803 128.208 191.009 158.663C195.212 189.116 193.785 202.044 193.785 202.044C193.785 202.044 197.248 202.676 198.463 202.717C199.764 202.762 203.855 202.386 203.855 202.386C203.855 202.386 209.871 171.92 208.147 156.678C206.42 141.433 216.386 104.373 216.386 104.373L187.16 103.405Z" fill="#2B478B"/>
<path d="M206.652 45.3644L201.903 48.9531L195.04 47.4784C195.135 46.8413 195.587 44.1914 196 41.7936C196.026 41.6518 196.05 41.5099 196.075 41.3726C196.427 39.3328 196.732 37.5789 196.732 37.5789L203.143 34.3166L205.531 33.1009C205.525 33.1436 205.346 35.3658 205.322 35.69C204.874 41.4514 206.652 45.3644 206.652 45.3644Z" fill="#FC9490"/>
<path d="M195.521 43.5507C195.671 43.4854 204.857 40.7185 205.854 41.0562C206.853 41.3916 207.441 43.3639 207.441 43.3639L192.418 46.8311C192.418 46.8311 193.6 44.3748 195.521 43.5507Z" fill="#5577E8"/>
<path d="M220.255 106.467C218.698 113.719 192.786 114.579 186.106 107.996C185.345 107.246 185.31 103.756 185.595 99.0485C186.157 89.856 187.957 76.0233 188.025 68.9583C188.06 65.5451 188.519 62.0554 189.132 58.8854C190.433 52.1312 192.418 46.8291 192.418 46.8291C192.418 46.8291 205.075 42.6527 207.441 43.3642C218.852 46.7863 221.812 99.2174 220.255 106.467Z" fill="#0D5EFB"/>
<path d="M185.595 99.0479C186.157 89.8553 187.957 76.0226 188.025 68.9576C188.06 65.5445 188.519 62.0548 189.132 58.8848L196.745 57.5137C196.745 57.5137 204.188 88.5517 185.595 99.0479Z" fill="#5577E8"/>
<path d="M189.719 86.2339C189.719 86.2339 190.237 87.5015 189.148 88.3503C188.058 89.2013 187.35 90.5792 187.602 91.5856C187.851 92.5919 190.241 94.2332 191.068 93.9698C191.898 93.7042 193.585 92.378 193.404 91.8467C193.221 91.3176 194.538 87.1885 192.517 85.599C190.497 84.0095 189.719 86.2339 189.719 86.2339Z" fill="#FC9490"/>
<path d="M198.232 44.9696C198.232 44.9696 190.806 46.3879 184.891 55.2878C178.974 64.1899 175.082 70.8068 176.171 74.0151C177.26 77.2234 187.196 88.3477 188.907 88.3477C190.621 88.3477 193.384 87.0779 193.541 84.2163C193.541 84.2163 186.545 73.5153 187.924 71.9123C188.512 71.2279 197.003 64.1899 198.216 67.3689C200.223 72.6283 198.232 44.9696 198.232 44.9696Z" fill="#0D5EFB"/>
<path d="M204.841 35.7907C203.434 38.5419 198.187 40.9194 196 41.793C196.026 41.6511 196.05 41.5093 196.075 41.3719C196.427 39.3322 196.732 37.5783 196.732 37.5783L203.143 34.316C204.559 34.2935 205.421 34.6605 204.841 35.7907Z" fill="#FCA56B"/>
<path d="M194.668 37.7264C194.668 37.7264 204.156 40.7478 205.909 34.687C207.66 28.6262 210.066 24.9338 204.081 22.7477C198.097 20.5616 196.247 22.5181 195.18 24.398C194.112 26.2757 192.244 36.7853 194.668 37.7264Z" fill="#FC9490"/>
<path d="M195.551 23.8132C195.551 23.8132 196.155 30.8669 197.585 30.5607C199.014 30.2545 200.308 30.0271 200.101 32.1547C199.891 34.28 197.909 36.7341 202.313 37.1101C206.717 37.4883 213.047 25.8935 211.838 23.6984C208.347 17.3651 190.505 16.0863 195.551 23.8132Z" fill="#292C47"/>
<path d="M24.717 187.719L27.6061 200.138L31.9331 200.113L32.0919 187.719H24.717Z" fill="#FC9490"/>
<path d="M61.1143 188.248L69.3315 200.138L72.536 195.939L67.5893 186.613L61.1143 188.248Z" fill="#FC9490"/>
<path d="M39.7449 24.5049C38.2518 23.6381 36.461 23.5435 35.2083 23.6201C35.5325 23.2801 36.1655 23.1563 36.1655 23.1563C35.3892 23.037 33.6558 23.825 33.6558 23.825C22.856 19.5765 21.16 35.8093 21.3849 39.5804C21.6121 43.3515 17.7571 44.5853 12.1377 47.5549C1.41729 53.2262 0.475586 60.818 0.475586 60.818C0.559391 60.8676 0.64541 60.9261 0.738037 60.9914C1.26954 60.0706 2.36562 58.3437 3.28968 58.0826C3.2544 58.1659 2.198 60.4601 1.80324 61.7749C4.96577 64.2312 10.8828 69.6751 15.0069 73.5318C14.9893 72.7776 15.018 71.7081 15.287 71.143L15.7965 74.2748C18.0041 76.3461 19.5258 77.8027 19.5258 77.8027C19.2523 74.7543 33.0272 58.6702 40.2146 53.8544C41.9635 51.2247 42.5854 46.5801 42.6317 46.2131C42.3296 49.8964 41.7143 51.9632 41.1607 53.1249C47.2476 47.4086 43.7035 26.8013 39.7449 24.5049Z" fill="#292C47"/>
<path d="M39.7883 54.0927C39.8236 54.1085 36.3192 55.9682 33.6816 55.2319C31.2005 54.5408 29.5795 51.2582 29.6148 51.2492C30.6646 51.0376 30.9667 49.5629 30.9447 43.2296L31.421 43.3264L39.4046 44.9407C39.4046 44.9407 39.2237 47.5051 39.2193 49.9231C39.2127 51.9516 39.334 53.8766 39.7883 54.0927Z" fill="#EEA886"/>
<path d="M30.7598 27.1641C30.7598 27.1641 34.6986 22.8819 39.6431 26.9434C39.6431 26.9434 36.7651 26.4369 30.7598 27.1641Z" fill="#EEA886"/>
<path d="M39.4049 44.9405C39.4049 44.9405 39.2241 47.5048 39.2197 49.9229C34.7493 49.7945 32.3873 45.6316 31.4214 43.3262L39.4049 44.9405Z" fill="#EEA886"/>
<path d="M30.5963 42.4395C30.5963 42.4395 28.2542 38.6616 27.6918 35.4308C27.2904 33.1253 28.4417 24.579 36.8552 25.8105C36.8552 25.8105 39.2988 26.0559 41.5946 27.6386C43.4207 28.8994 46.0583 31.6169 43.1097 39.0758L42.3445 41.5952L30.5963 42.4395Z" fill="#163560"/>
<path d="M71.2329 192.68L66.9986 192.811L62.418 192.955C62.418 192.955 51.8343 180.926 45.8996 161.645C45.7607 161.197 45.6151 160.742 45.4607 160.285C42.2122 150.613 35.4769 138.475 31.9262 127.488C31.3617 125.737 30.8544 124.091 30.4001 122.531C30.2545 122.031 30.1112 121.54 29.9767 121.058C27.3611 111.78 26.6046 105.69 25.9055 99.1812L51.5344 99.3906C51.5344 99.3906 55.6717 143.831 71.2329 192.68Z" fill="#2B478B"/>
<path d="M47.9464 84.3578C47.8825 96.8059 49.735 102.148 49.735 102.148C49.735 102.148 38.7632 107.84 25.7205 103.65C25.5683 103.601 14.9229 101.12 14.9229 101.12C15.1412 100.618 17.0819 92.2265 17.2937 91.7649C20.0482 85.7266 22.1389 83.0812 22.4653 81.226C23.0718 77.7611 23.085 74.1746 22.7829 70.7952C21.9867 61.8436 19.6203 54.4139 19.6203 54.4139C23.1732 53.5876 26.5938 52.176 30.2923 50.7598C31.1435 51.8428 33.6511 52.9347 35.9072 52.8829C38.5051 52.8244 39.3167 51.7032 39.2219 50.4401C41.9896 52.0139 44.1906 53.5088 44.1906 53.5088C46.5438 57.6807 51.314 61.7332 51.6603 68.1318C51.7463 69.7055 47.9486 84.0088 47.9464 84.3578Z" fill="#E7F1FD"/>
<path d="M25.9055 85.745C24.7852 87.3637 22.6371 97.2024 17.2935 98.4385C20.048 91.4276 22.1387 88.3521 22.4651 86.1975C23.0716 82.172 23.0848 78.0091 22.7827 74.0804C24.5713 70.8788 25.9055 68.686 25.9055 68.686C26.0467 68.1681 28.7483 59.6375 29.615 67.2631C30.4795 74.8886 27.1582 83.9348 25.9055 85.745Z" fill="#F2564B"/>
<path d="M40.8981 47.2281C40.8981 47.2281 30.3254 47.4059 30.3188 40.6832C30.3122 33.9604 28.9427 29.4554 35.6912 29.0591C42.4419 28.6606 43.7563 31.225 44.2922 33.4674C44.8303 35.7098 43.6482 47.0097 40.8981 47.2281Z" fill="#EEA886"/>
<path d="M43.9786 29.7306C42.3466 27.7111 41.1138 28.1501 40.4213 28.7558C38.1365 25.2706 30.9138 30.3115 30.9138 30.3115C30.2081 35.1363 26.8008 37.8988 26.8008 37.8988C26.8008 37.8988 28.7261 39.1145 33.17 37.9483C36.6655 37.0297 39.2017 31.9505 40.1258 29.8275C40.7543 30.3971 42.0798 31.7164 42.4767 33.0064C43.0038 34.7198 43.242 38.2433 44.2477 38.1239C44.2477 38.1239 46.4288 32.7633 43.9786 29.7306Z" fill="#292C47"/>
<path d="M27.4599 199.444C27.4599 199.444 27.8084 201.905 26.9086 204.537C26.9086 204.537 26.2006 207.831 29.3786 207.891C32.5566 207.952 33.3373 207.648 32.9756 205.627C32.6161 203.607 31.9324 200.113 31.9324 200.113L27.4599 199.444Z" fill="#FC9490"/>
<path d="M33.2761 209.508C33.2761 209.508 33.2739 209.51 33.2673 209.515H26.6908C26.6842 209.51 26.682 209.508 26.682 209.508C26.3225 207.786 26.9092 204.539 26.9092 204.539C30.5084 208.053 32.7601 204.451 32.7601 204.451C33.3445 205.953 33.2761 209.508 33.2761 209.508Z" fill="#C45446"/>
<path d="M80.1954 206.111C80.1954 206.111 74.3357 199.319 72.5361 195.939L68.1804 198.22L77.9172 207.557L80.1976 207.25L80.1954 206.111Z" fill="#FC9490"/>
<path d="M83.7881 209.496H75.659C74.9422 208.839 74.2608 207.51 73.4227 205.772C72.9442 204.775 71.8723 204.226 70.7696 203.924V209.496H69.0891L67.5321 203.57C66.4934 201.585 67.2741 199.765 68.0018 198.196C68.8509 198.194 71.3144 198.82 75.6413 203.897C77.0638 205.565 78.6341 206.159 80.1955 206.11C80.2153 206.123 80.2374 206.137 80.2594 206.146C82.7229 207.299 83.5278 208.717 83.7881 209.496Z" fill="#C45446"/>
<path d="M83.3938 58.3859C83.3938 58.3859 76.4534 62.3484 73.9767 63.4899C73.0946 63.8951 71.4979 64.6539 69.8659 65.4329C68.8801 65.9012 67.8832 66.3785 67.0209 66.795C65.5632 67.4929 63.8297 67.1102 62.7822 65.8606C59.0242 61.3826 49.2984 51.6722 39.255 50.4564L39.2219 50.4407C39.2219 50.4407 39.2219 50.4452 39.2264 50.4519C39.2219 50.4519 39.2175 50.4519 39.2131 50.4497L39.2683 50.56C39.8329 51.9941 45.3397 66.0362 45.5095 68.9991C45.6882 72.1196 46.2285 120.05 46.2285 120.05C46.2285 120.05 45.869 122.254 50.0063 121.336C54.1436 120.417 55.2243 119.501 55.2243 119.501C55.2243 119.501 51.2656 89.9328 52.344 79.6506C52.5557 77.6311 52.3661 75.3639 51.9228 73.0224C58.0406 76.8048 65.2522 78.4866 65.2522 78.4866C65.2522 78.4866 67.9406 77.2888 72.122 74.6457C73.8753 73.5335 75.9109 71.7616 77.9134 69.8862C80.3327 67.6235 84.4965 62.1526 84.4965 62.1526L83.3938 58.3859Z" fill="#708CD5"/>
<path d="M66.9985 192.811L62.4179 192.955C62.4179 192.955 51.8342 180.926 45.8995 161.645C45.7606 161.197 45.615 160.742 45.4606 160.285C42.2121 150.613 35.4768 138.475 31.9261 127.488C31.3616 125.737 30.8543 124.091 30.4 122.531C30.2544 122.031 30.1111 121.54 29.9766 121.058L33.75 118.134C33.75 118.134 45.0813 136.865 48.5901 154.494C51.6379 169.806 63.8404 188.229 66.9985 192.811Z" fill="#233862"/>
<path d="M34.145 156.136C34.2089 164.707 33.7855 184.416 32.6916 192.575H28.6337C26.3908 192.575 25.2705 192.544 25.2705 192.544C22.5291 178.355 20.5774 166.619 19.1549 156.503C17.9905 148.202 16.9539 141.087 16.1556 134.961C15.355 128.795 14.797 123.634 14.5963 119.271C14.5655 118.585 14.5434 117.916 14.5302 117.267C14.5169 116.617 14.5147 115.982 14.5192 115.367L36.6635 113.163C36.3856 128.185 34.1097 151.154 34.145 156.136Z" fill="#2B478B"/>
<path d="M28.6338 192.575C26.3909 192.575 25.2705 192.544 25.2705 192.544C22.5292 178.355 20.5775 166.619 19.155 156.503C17.9906 148.202 16.954 141.087 16.1557 134.961C15.3551 128.795 14.7971 123.634 14.5964 119.271L22.7233 124.152C22.7233 124.152 17.5362 126.019 19.5145 140.16C21.4949 154.299 25.8792 190.574 28.6338 192.575Z" fill="#233862"/>
<path d="M29.6795 119.134C29.6795 119.134 28.1203 124.886 22.7237 124.152C17.3271 123.416 9.65234 120.111 9.65234 120.111C9.65234 120.111 11.9592 112.672 14.8262 102.899C18.2975 91.0675 22.5958 75.8141 24.6203 66.1938C25.1893 63.4966 25.5775 61.2452 25.723 59.6331L30.2926 50.7603C30.2926 50.7603 36.8757 66.0609 37.2352 69.9176C37.5947 73.7743 29.6795 119.134 29.6795 119.134Z" fill="#708CD5"/>
<path d="M48.9519 74.222C46.3561 74.5688 45.3593 75.9782 45.0395 77.8806C44.8653 78.905 44.347 79.9204 43.9081 80.6364C41.3212 80.7782 35.1593 81.1204 29.9833 81.4536L29.5554 88.3857C33.8074 87.8454 39.0342 86.7444 45.0483 84.6416C45.5092 84.5606 46.0871 84.2679 46.8104 83.6645C50.5375 80.5485 52.6525 75.3297 52.6591 74.5823C52.6657 73.8348 51.5498 73.8731 48.9519 74.222Z" fill="#EEA886"/>
<path d="M29.4408 77.9977C29.1982 84.2409 27.7603 96.3603 14.9293 102.849C14.894 102.865 14.861 102.883 14.8257 102.898C18.297 91.0672 22.5953 75.8139 24.6198 66.1935C26.9774 69.7891 29.5709 74.5598 29.4408 77.9977Z" fill="#385DBD"/>
<path d="M30.2922 50.7603C30.2922 50.7603 19.3159 51.5551 16.6783 57.5551C14.0384 63.5529 13.2004 83.5095 16.557 89.3857C16.557 89.3857 21.1817 90.7298 29.3571 89.1696C29.4586 89.1493 29.5578 89.1313 29.6592 89.111C29.6592 89.111 32.2682 82.5909 29.9283 81.3054C29.9283 81.3054 23.0343 81.6723 23.7532 79.3466C24.4722 77.0209 30.2922 50.7603 30.2922 50.7603Z" fill="#708CD5"/>
<path d="M90.8337 53.6789C84.9298 52.9044 83.439 58.3866 83.439 58.3866L84.5417 62.1533C86.3611 62.4099 87.9534 61.9259 89.4222 59.7825C90.8888 57.6369 91.2924 58.4609 92.2253 56.8647C93.4912 54.7011 91.5107 53.895 90.8337 53.6789Z" fill="#EEA886"/>
<path d="M73.9759 63.4907C73.0937 63.896 71.497 64.6547 69.865 65.4337C70.7383 67.0164 71.83 69.8915 72.1211 74.6465C73.8744 73.5343 76.146 71.6836 78.0845 69.7407C81.1963 66.6224 84.4956 62.1534 84.4956 62.1534L83.3929 58.3867C83.3929 58.3867 76.4525 62.3492 73.9759 63.4907Z" fill="#EEA886"/>
<path d="M240.246 210.512H5.83138C5.70548 210.512 5.60303 210.284 5.60303 210.005C5.60303 209.726 5.70548 209.499 5.83138 209.499H240.246C240.372 209.499 240.476 209.726 240.476 210.005C240.476 210.284 240.372 210.512 240.246 210.512Z" fill="#202F4E"/>
</svg>
