<svg width="241" height="150" viewBox="0 0 241 150" fill="none" xmlns="http://www.w3.org/2000/svg">
<path d="M112.986 4.48473C112.986 5.22652 112.467 5.82715 111.827 5.82715C111.186 5.82715 110.667 5.22652 110.667 4.48473C110.667 3.74396 111.186 3.14284 111.827 3.14284C112.467 3.14284 112.986 3.74396 112.986 4.48473Z" fill="#A1A6DB"/>
<path d="M119.46 50.5644C119.295 50.6474 119.103 50.5596 119.031 50.3678L117.895 47.3263L115.268 48.6423C115.102 48.7253 114.91 48.637 114.839 48.4456L113.702 45.4047L111.076 46.7207C110.909 46.8037 110.718 46.7159 110.646 46.524L109.509 43.4826L106.883 44.7986C106.717 44.8811 106.525 44.7933 106.454 44.6019C106.382 44.41 106.458 44.1882 106.623 44.1051L109.55 42.6393C109.715 42.5563 109.907 42.6446 109.978 42.836L111.116 45.8774L113.743 44.5615C113.908 44.4784 114.1 44.5667 114.171 44.7581L115.308 47.799L117.935 46.483C118.1 46.4 118.292 46.4883 118.364 46.6797L119.63 50.0681C119.702 50.2595 119.626 50.4813 119.46 50.5644Z" fill="#87D8EA"/>
<path d="M122.73 44.4863L125.341 45.8732L125.073 42.5626L122.73 44.4863ZM126.015 46.6471C125.991 46.7065 125.955 46.7586 125.907 46.7975C125.812 46.8758 125.688 46.889 125.583 46.8327L121.944 44.9001C121.838 44.8438 121.766 44.7266 121.755 44.5925C121.744 44.4579 121.796 44.3265 121.892 44.2487L125.156 41.5679C125.251 41.4896 125.375 41.4759 125.481 41.5322C125.587 41.5884 125.659 41.7062 125.669 41.8403L126.044 46.4542C126.049 46.5209 126.039 46.5877 126.015 46.6471Z" fill="#F46B76"/>
<path d="M171.213 123.664L169.991 122.924L170.632 121.51C170.713 121.325 170.654 121.097 170.495 121C170.332 120.904 170.137 120.975 170.055 121.16L169.415 122.574L168.193 121.834C168.034 121.737 167.834 121.809 167.752 121.993C167.671 122.179 167.73 122.406 167.889 122.503L169.11 123.243L168.475 124.657C168.388 124.842 168.452 125.07 168.611 125.167C168.77 125.264 168.97 125.192 169.051 125.008L169.692 123.593L170.913 124.333C171.072 124.43 171.267 124.359 171.354 124.174C171.435 123.989 171.372 123.761 171.213 123.664Z" fill="#87D8EA"/>
<path d="M206.115 149.873H5.19944C2.34707 149.873 0.034668 147.196 0.034668 143.894V140.904H211.278V143.894C211.278 147.196 208.967 149.873 206.115 149.873Z" fill="#5577E8"/>
<path d="M196.3 0.386337H15.0114C12.1591 0.386337 9.84668 3.06343 9.84668 6.36615V140.904H201.468V6.36615C201.468 3.06343 199.152 0.386337 196.3 0.386337Z" fill="#263238"/>
<path d="M17.0767 132.533V8.75819H194.232V132.533H17.0767Z" fill="white"/>
<path d="M236.741 28.8242H163.326C161.508 28.8242 160.034 29.9792 160.034 31.4039V53.867C160.034 55.2917 161.508 56.4467 163.326 56.4467H236.741C238.56 56.4467 240.034 55.2917 240.034 53.867V31.4039C240.034 29.9792 238.56 28.8242 236.741 28.8242Z" fill="#5577E8"/>
<path d="M236.742 60.5098H163.327C161.509 60.5098 160.035 61.6648 160.035 63.0895V85.5525C160.035 86.9773 161.509 88.1322 163.327 88.1322H236.742C238.561 88.1322 240.035 86.9773 240.035 85.5525V63.0895C240.035 61.6648 238.561 60.5098 236.742 60.5098Z" fill="#5577E8"/>
<path d="M178.447 43.9302V40.7348H177.1C177.001 40.3417 176.865 39.9622 176.695 39.6033L177.647 38.501L175.697 36.2437L174.745 37.346C174.433 37.1478 174.104 36.9905 173.762 36.877V35.3232H171.007V36.8828C170.665 36.9964 170.336 37.1537 170.024 37.3519L169.072 36.2496L167.147 38.501L168.1 39.6033C167.929 39.9622 167.793 40.3417 167.694 40.7348H166.347V43.9302H167.654C167.752 44.3256 167.888 44.7071 168.059 45.0677L167.147 46.1699L169.097 48.4272L170.05 47.3249C170.361 47.5231 170.691 47.6804 171.032 47.794V49.3535H173.787V47.794C174.129 47.6804 174.459 47.5231 174.77 47.3249L175.722 48.4272L177.672 46.1699L176.72 45.0677C176.891 44.7071 177.027 44.3256 177.125 43.9302H178.447ZM172.369 45.9999C171.742 45.9964 171.129 45.7774 170.609 45.3707C170.089 44.964 169.685 44.3878 169.449 43.7151C169.212 43.0425 169.153 42.3036 169.279 41.592C169.405 40.8804 169.71 40.2282 170.157 39.7178C170.604 39.2075 171.171 38.862 171.787 38.7251C172.403 38.5882 173.041 38.6661 173.619 38.9489C174.197 39.2317 174.689 39.7067 175.034 40.3137C175.379 40.9208 175.56 41.6325 175.555 42.3589C175.55 43.3277 175.213 44.2547 174.619 44.937C174.025 45.6193 173.221 46.0015 172.384 45.9999H172.369Z" fill="white"/>
<path d="M178.447 75.6148V72.4194H177.1C177.001 72.0263 176.865 71.6468 176.695 71.2879L177.647 70.1856L175.697 67.9283L174.745 69.0306C174.433 68.8324 174.104 68.6751 173.762 68.5615V67.0078H171.007V68.5674C170.665 68.6809 170.336 68.8383 170.024 69.0364L169.072 67.9342L167.147 70.1856L168.1 71.2879C167.929 71.6468 167.793 72.0263 167.694 72.4194H166.347V75.6148H167.654C167.752 76.0102 167.888 76.3917 168.059 76.7522L167.147 77.8545L169.097 80.1118L170.05 79.0095C170.361 79.2077 170.691 79.365 171.032 79.4786V81.0381H173.787V79.4786C174.129 79.365 174.459 79.2077 174.77 79.0095L175.722 80.1118L177.672 77.8545L176.72 76.7522C176.891 76.3917 177.027 76.0102 177.125 75.6148H178.447ZM172.369 77.6845C171.742 77.681 171.129 77.462 170.609 77.0553C170.089 76.6485 169.685 76.0724 169.449 75.3997C169.212 74.7271 169.153 73.9882 169.279 73.2766C169.405 72.565 169.71 71.9127 170.157 71.4024C170.604 70.892 171.171 70.5466 171.787 70.4097C172.403 70.2728 173.041 70.3507 173.619 70.6335C174.197 70.9163 174.689 71.3913 175.034 71.9983C175.379 72.6053 175.56 73.3171 175.555 74.0435C175.55 75.0123 175.213 75.9392 174.619 76.6215C174.025 77.3039 173.221 77.686 172.384 77.6845H172.369Z" fill="white"/>
<path d="M185.888 39.7504C185.883 39.8649 185.85 39.9753 185.791 40.0677C185.732 40.1602 185.652 40.2308 185.559 40.2707C185.466 40.3106 185.365 40.3181 185.268 40.2923C185.172 40.2665 185.084 40.2085 185.016 40.1254C184.947 40.0424 184.902 39.938 184.884 39.8251C184.866 39.7122 184.878 39.5959 184.917 39.4905C184.956 39.385 185.021 39.2951 185.103 39.2319C185.186 39.1687 185.283 39.1349 185.382 39.1348C185.451 39.1347 185.519 39.1507 185.582 39.182C185.645 39.2133 185.702 39.2591 185.749 39.3167C185.797 39.3743 185.833 39.4425 185.857 39.517C185.881 39.5916 185.892 39.671 185.888 39.7504Z" fill="white"/>
<path d="M185.888 71.434C185.883 71.5485 185.85 71.6589 185.791 71.7513C185.732 71.8438 185.652 71.9144 185.559 71.9543C185.466 71.9942 185.365 72.0017 185.268 71.9759C185.172 71.9501 185.084 71.8921 185.016 71.809C184.947 71.726 184.902 71.6216 184.884 71.5087C184.866 71.3958 184.878 71.2795 184.917 71.174C184.956 71.0686 185.021 70.9787 185.103 70.9155C185.186 70.8523 185.283 70.8185 185.382 70.8184C185.451 70.8183 185.519 70.8343 185.582 70.8656C185.645 70.8969 185.702 70.9427 185.749 71.0003C185.797 71.0579 185.833 71.126 185.857 71.2006C185.881 71.2752 185.892 71.3546 185.888 71.434Z" fill="white"/>
<path d="M193.02 39.7494C193.014 39.8618 192.981 39.9702 192.924 40.0614C192.867 40.1527 192.789 40.2231 192.698 40.2641C192.608 40.3052 192.509 40.3151 192.414 40.2929C192.318 40.2706 192.23 40.217 192.161 40.1385C192.091 40.06 192.042 39.96 192.02 39.8503C191.998 39.7406 192.004 39.6259 192.037 39.5199C192.07 39.4139 192.129 39.3212 192.206 39.2527C192.283 39.1842 192.376 39.143 192.473 39.1338C192.545 39.127 192.617 39.1381 192.685 39.1664C192.753 39.1946 192.815 39.2394 192.867 39.2978C192.919 39.3561 192.959 39.4265 192.985 39.5044C193.012 39.5823 193.023 39.6659 193.02 39.7494Z" fill="white"/>
<path d="M193.02 71.434C193.014 71.5464 192.981 71.6547 192.924 71.746C192.867 71.8373 192.789 71.9076 192.698 71.9487C192.608 71.9897 192.509 71.9997 192.414 71.9774C192.318 71.9552 192.23 71.9016 192.161 71.8231C192.091 71.7446 192.042 71.6445 192.02 71.5348C191.998 71.4251 192.004 71.3104 192.037 71.2045C192.07 71.0985 192.129 71.0058 192.206 70.9373C192.283 70.8688 192.376 70.8275 192.473 70.8184C192.545 70.8115 192.617 70.8227 192.685 70.8509C192.753 70.8792 192.815 70.924 192.867 70.9823C192.919 71.0406 192.959 71.1111 192.985 71.189C193.012 71.2669 193.023 71.3504 193.02 71.434Z" fill="white"/>
<path d="M200.136 39.7492C200.136 39.871 200.105 39.99 200.047 40.0912C199.988 40.1925 199.905 40.2714 199.808 40.318C199.711 40.3646 199.604 40.3768 199.501 40.353C199.398 40.3292 199.303 40.2706 199.229 40.1845C199.154 40.0984 199.103 39.9887 199.083 39.8693C199.062 39.7499 199.073 39.6261 199.113 39.5136C199.153 39.4011 199.222 39.305 199.309 39.2373C199.397 39.1697 199.499 39.1336 199.605 39.1336C199.675 39.1294 199.746 39.1424 199.812 39.1719C199.878 39.2013 199.939 39.2465 199.989 39.3045C200.039 39.3626 200.078 39.4321 200.103 39.5087C200.129 39.5853 200.14 39.6673 200.136 39.7492Z" fill="white"/>
<path d="M200.136 71.4348C200.136 71.5565 200.105 71.6755 200.047 71.7768C199.988 71.878 199.905 71.9569 199.808 72.0035C199.711 72.0501 199.604 72.0623 199.501 72.0385C199.398 72.0148 199.303 71.9562 199.229 71.8701C199.154 71.784 199.103 71.6743 199.083 71.5549C199.062 71.4354 199.073 71.3117 199.113 71.1992C199.153 71.0867 199.222 70.9905 199.309 70.9229C199.397 70.8552 199.499 70.8191 199.605 70.8191C199.675 70.8149 199.746 70.828 199.812 70.8574C199.878 70.8869 199.939 70.9321 199.989 70.9901C200.039 71.0481 200.078 71.1177 200.103 71.1943C200.129 71.2709 200.14 71.3528 200.136 71.4348Z" fill="white"/>
<path d="M207.252 39.7492C207.252 39.871 207.221 39.99 207.162 40.0912C207.104 40.1925 207.021 40.2714 206.924 40.318C206.827 40.3646 206.72 40.3768 206.617 40.353C206.513 40.3292 206.419 40.2706 206.344 40.1845C206.27 40.0984 206.219 39.9887 206.199 39.8693C206.178 39.7499 206.189 39.6261 206.229 39.5136C206.269 39.4011 206.337 39.305 206.425 39.2373C206.512 39.1697 206.615 39.1336 206.72 39.1336C206.791 39.1294 206.862 39.1424 206.928 39.1719C206.994 39.2013 207.054 39.2465 207.104 39.3045C207.155 39.3626 207.194 39.4321 207.219 39.5087C207.244 39.5853 207.256 39.6673 207.252 39.7492Z" fill="white"/>
<path d="M207.252 71.4348C207.252 71.5565 207.22 71.6755 207.162 71.7768C207.104 71.878 207.021 71.9569 206.923 72.0035C206.826 72.0501 206.719 72.0623 206.616 72.0385C206.513 72.0148 206.418 71.9562 206.344 71.8701C206.269 71.784 206.219 71.6743 206.198 71.5549C206.178 71.4354 206.188 71.3117 206.228 71.1992C206.269 71.0867 206.337 70.9905 206.424 70.9229C206.512 70.8552 206.615 70.8191 206.72 70.8191C206.791 70.8149 206.861 70.828 206.928 70.8574C206.994 70.8869 207.054 70.9321 207.104 70.9901C207.154 71.0481 207.193 71.1177 207.219 71.1943C207.244 71.2709 207.255 71.3528 207.252 71.4348Z" fill="white"/>
<path d="M214.363 39.7494C214.358 39.8639 214.324 39.9743 214.266 40.0668C214.207 40.1593 214.126 40.2298 214.033 40.2697C213.94 40.3097 213.84 40.3172 213.743 40.2913C213.646 40.2655 213.559 40.2075 213.49 40.1244C213.422 40.0414 213.376 39.937 213.359 39.8241C213.341 39.7113 213.352 39.5949 213.391 39.4895C213.43 39.384 213.495 39.2941 213.578 39.2309C213.661 39.1677 213.757 39.1339 213.856 39.1338C213.925 39.1337 213.993 39.1498 214.056 39.1811C214.119 39.2123 214.176 39.2582 214.224 39.3157C214.271 39.3733 214.308 39.4415 214.332 39.516C214.356 39.5906 214.366 39.67 214.363 39.7494Z" fill="white"/>
<path d="M214.363 71.435C214.358 71.5495 214.324 71.6598 214.266 71.7523C214.207 71.8448 214.126 71.9154 214.033 71.9553C213.94 71.9952 213.84 72.0027 213.743 71.9769C213.646 71.9511 213.559 71.893 213.49 71.81C213.422 71.7269 213.376 71.6225 213.359 71.5097C213.341 71.3968 213.352 71.2805 213.391 71.175C213.43 71.0696 213.495 70.9797 213.578 70.9165C213.661 70.8533 213.757 70.8195 213.856 70.8193C213.925 70.8192 213.993 70.8353 214.056 70.8666C214.119 70.8979 214.176 70.9437 214.224 71.0013C214.271 71.0589 214.308 71.127 214.332 71.2016C214.356 71.2761 214.366 71.3555 214.363 71.435Z" fill="white"/>
<path style="mix-blend-mode:multiply" d="M205.251 44.4521H184.845V45.5427H205.251V44.4521Z" fill="url(#paint0_linear_116_5066)"/>
<path style="mix-blend-mode:multiply" d="M205.251 76.1367H184.845V77.2272H205.251V76.1367Z" fill="url(#paint1_linear_116_5066)"/>
<path style="mix-blend-mode:multiply" d="M214.819 47.7168H184.845V48.8073H214.819V47.7168Z" fill="url(#paint2_linear_116_5066)"/>
<path style="mix-blend-mode:multiply" d="M214.819 79.4023H184.845V80.4929H214.819V79.4023Z" fill="url(#paint3_linear_116_5066)"/>
<path d="M77.6545 23.1348C70.2129 30.2088 59.9032 35.7668 48.5663 38.7959L48.4545 64.7104C48.4033 76.5676 52.9502 87.2952 61.9691 96.5949C67.8951 102.705 74.1258 106.496 77.2871 108.198C77.4232 108.128 77.5725 108.045 77.7193 107.968V23.1944C77.6978 23.1762 77.6753 23.1555 77.6545 23.1348Z" fill="#296ACC"/>
<path d="M77.7197 23.1945V107.968C81.0074 106.195 86.9827 102.534 92.7054 96.7376C101.804 87.5207 106.443 76.8373 106.494 64.98L106.606 39.0656C95.328 35.9406 85.0946 30.3073 77.7197 23.1945Z" fill="#2E77E6"/>
<path d="M79.0521 71.2089V76.8991C79.0521 77.6557 78.4571 78.2854 77.7255 78.2854C76.982 78.2854 76.3867 77.6557 76.3867 76.8991V71.1959C75.2585 70.6673 74.4651 69.4858 74.4651 68.1254C74.4651 66.2623 75.9278 64.7594 77.7255 64.7594C79.523 64.7594 80.9739 66.2623 80.9739 68.1254C80.9739 69.4987 80.1926 70.6803 79.0521 71.2089ZM64.5469 60.5462V80.6227C64.5469 82.8589 90.8922 82.8589 90.8922 80.6227V60.5462H64.5469Z" fill="white"/>
<path d="M88.5861 59.1162H85.9192V57.7636C85.9192 53.0813 82.2408 49.2697 77.7207 49.2697C73.1995 49.2697 69.5214 53.0813 69.5214 57.7636V59.1162H66.8545V57.7636C66.8545 51.5577 71.7288 46.5075 77.7207 46.5075C83.7115 46.5075 88.5861 51.5577 88.5861 57.7636V59.1162Z" fill="white"/>
<defs>
<linearGradient id="paint0_linear_116_5066" x1="5101.55" y1="251.115" x2="5923.73" y2="251.115" gradientUnits="userSpaceOnUse">
<stop stop-color="#008A7C"/>
<stop offset="0.26" stop-color="#009286"/>
<stop offset="1" stop-color="#01A79E"/>
</linearGradient>
<linearGradient id="paint1_linear_116_5066" x1="5101.55" y1="282.8" x2="5923.73" y2="282.8" gradientUnits="userSpaceOnUse">
<stop stop-color="#008A7C"/>
<stop offset="0.26" stop-color="#009286"/>
<stop offset="1" stop-color="#01A79E"/>
</linearGradient>
<linearGradient id="paint2_linear_116_5066" x1="7406.76" y1="260.448" x2="9180.31" y2="260.448" gradientUnits="userSpaceOnUse">
<stop stop-color="#008A7C"/>
<stop offset="0.26" stop-color="#009286"/>
<stop offset="1" stop-color="#01A79E"/>
</linearGradient>
<linearGradient id="paint3_linear_116_5066" x1="7406.76" y1="292.133" x2="9180.31" y2="292.133" gradientUnits="userSpaceOnUse">
<stop stop-color="#008A7C"/>
<stop offset="0.26" stop-color="#009286"/>
<stop offset="1" stop-color="#01A79E"/>
</linearGradient>
</defs>
</svg>
