<svg width="249" height="199" viewBox="0 0 249 199" fill="none" xmlns="http://www.w3.org/2000/svg">
<path d="M237.249 11.0837V8.20587L235.777 8.07202C235.579 7.11287 235.192 6.20274 234.639 5.39493L235.576 4.25717L233.568 2.24935L232.43 3.18633C231.622 2.6328 230.712 2.246 229.753 2.04857L229.619 0.576172H226.741L226.608 2.04857C225.652 2.2588 224.745 2.64459 223.931 3.18633L222.793 2.24935L220.785 4.25717L221.722 5.39493C221.19 6.20716 220.826 7.1173 220.651 8.07202L219.179 8.20587V11.0837L220.651 11.2176C220.826 12.1516 221.191 13.0399 221.722 13.8278L220.785 15.0324L222.793 17.0403L223.931 16.1033C224.748 16.6243 225.656 16.9875 226.608 17.1741L226.741 18.6465H229.619L229.753 17.1741C230.708 16.9988 231.618 16.6348 232.43 16.1033L233.568 17.0403L235.576 15.0324L234.639 13.8278C235.192 13.0445 235.579 12.1562 235.777 11.2176L237.249 11.0837ZM228.214 13.4931C227.446 13.4931 226.696 13.2655 226.057 12.8389C225.419 12.4124 224.921 11.8061 224.628 11.0968C224.334 10.3875 224.257 9.60704 224.407 8.85404C224.556 8.10105 224.926 7.40939 225.469 6.86651C226.012 6.32363 226.704 5.95393 227.457 5.80415C228.21 5.65437 228.99 5.73125 229.699 6.02505C230.409 6.31885 231.015 6.81639 231.441 7.45474C231.868 8.0931 232.096 8.8436 232.096 9.61134C232.096 10.6409 231.687 11.6282 230.959 12.3562C230.231 13.0841 229.243 13.4931 228.214 13.4931Z" fill="#E0E0E0"/>
<path d="M248.894 19.1822V16.9067H247.756C247.589 16.1698 247.295 15.4676 246.886 14.832L247.622 13.895L246.016 12.2887L245.146 12.958C244.492 12.5529 243.764 12.2801 243.004 12.1549V10.9502H240.729V12.1549C239.969 12.2801 239.242 12.5529 238.587 12.958L237.717 12.2218L236.111 13.8281L236.847 14.765C236.439 15.4007 236.144 16.1028 235.977 16.8398H234.839V19.1153L235.977 19.2492C236.168 19.9781 236.461 20.6766 236.847 21.3239L236.111 22.194L237.717 23.8002L238.587 23.064C239.252 23.4621 239.975 23.7555 240.729 23.9341V25.0718H243.004V24.001C243.759 23.8224 244.481 23.529 245.146 23.1309L246.016 23.8671L247.622 22.2609L246.886 21.3908C247.272 20.7435 247.565 20.0451 247.756 19.3161L248.894 19.1822ZM241.8 21.1231C240.989 21.106 240.215 20.7762 239.642 20.2025C239.068 19.6288 238.738 18.8556 238.721 18.0445C238.721 17.228 239.045 16.4449 239.623 15.8675C240.2 15.2902 240.983 14.9658 241.8 14.9658C242.616 14.9658 243.399 15.2902 243.977 15.8675C244.554 16.4449 244.878 17.228 244.878 18.0445C244.861 18.8556 244.531 19.6288 243.958 20.2025C243.384 20.7762 242.611 21.106 241.8 21.1231Z" fill="#E0E0E0"/>
<path d="M237.249 25.541V23.667H236.245C236.142 23.0367 235.889 22.4401 235.509 21.9269L236.178 21.1238L234.84 19.7852L234.036 20.4545C233.514 20.0901 232.921 19.8393 232.296 19.7183V18.6475H230.422L230.288 19.6514C229.671 19.7981 229.083 20.0469 228.548 20.3876L227.812 19.7183L226.474 21.0568L227.076 21.86C226.724 22.3889 226.474 22.9792 226.34 23.6001H225.403V25.541L226.34 25.6748C226.486 26.2918 226.735 26.88 227.076 27.4149L226.474 28.1511L227.812 29.4897L228.548 28.8873C229.083 29.228 229.671 29.4768 230.288 29.6235L230.422 30.5605H232.296V29.6235C232.921 29.5026 233.514 29.2518 234.036 28.8873L234.84 29.4897L236.178 28.1511L235.509 27.4149C235.877 26.8948 236.128 26.3012 236.245 25.6748L237.249 25.541ZM231.292 27.2141C230.612 27.1967 229.965 26.914 229.49 26.4264C229.015 25.9388 228.749 25.2848 228.749 24.604C228.749 23.9295 229.017 23.2826 229.494 22.8056C229.971 22.3287 230.618 22.0608 231.292 22.0608C231.967 22.0608 232.614 22.3287 233.091 22.8056C233.568 23.2826 233.836 23.9295 233.836 24.604C233.836 25.2848 233.57 25.9388 233.095 26.4264C232.62 26.914 231.973 27.1967 231.292 27.2141Z" fill="#E0E0E0"/>
<g filter="url(#filter0_d_116_5108)">
<path d="M237.784 20.5872V155.312C237.751 156.905 237.107 158.425 235.987 159.558C234.866 160.691 233.354 161.351 231.761 161.402H37.9401C34.7276 161.402 32.3182 158.524 32.3182 155.312V20.5872C32.3004 19.8377 32.4326 19.0923 32.7071 18.3947C32.9817 17.6971 33.3929 17.0614 33.9168 16.5251C34.4406 15.9888 35.0664 15.5627 35.7573 15.2718C36.4483 14.981 37.1904 14.8313 37.9401 14.8315H231.761C233.318 14.8131 234.82 15.4052 235.946 16.4811C237.072 17.5569 237.732 19.0309 237.784 20.5872Z" fill="#5577E8"/>
</g>
<g opacity="0.1" filter="url(#filter1_d_116_5108)">
<path d="M237.784 37.3857V155.311C237.751 156.905 237.108 158.425 235.987 159.558C234.866 160.691 233.354 161.351 231.761 161.402H37.9402C34.7277 161.402 32.3184 158.524 32.3184 155.311V109.399C49.3848 76.6051 90.0094 71.3178 137.595 90.459C204.99 117.631 233.702 80.7546 237.784 37.3857Z" fill="white"/>
</g>
<path opacity="0.2" d="M184.845 146.008H86.529C85.6415 146.008 84.7903 145.655 84.1627 145.028C83.5352 144.4 83.1826 143.549 83.1826 142.661C83.1826 141.774 83.5352 140.923 84.1627 140.295C84.7903 139.668 85.6415 139.315 86.529 139.315H184.845C185.29 139.306 185.732 139.386 186.146 139.55C186.56 139.715 186.937 139.96 187.254 140.271C187.572 140.583 187.825 140.955 187.997 141.365C188.169 141.776 188.258 142.216 188.258 142.661C188.258 143.107 188.169 143.547 187.997 143.958C187.825 144.368 187.572 144.74 187.254 145.052C186.937 145.363 186.56 145.608 186.146 145.773C185.732 145.937 185.29 146.017 184.845 146.008Z" fill="black"/>
<path d="M86.5291 145.338C85.8191 145.338 85.1382 145.056 84.6361 144.553C84.1341 144.051 83.8521 143.37 83.8521 142.66C83.8521 141.95 84.1341 141.27 84.6361 140.767C85.1382 140.265 85.8191 139.983 86.5291 139.983H144.689C145.399 139.983 146.08 140.265 146.582 140.767C147.084 141.27 147.366 141.95 147.366 142.66C147.366 143.37 147.084 144.051 146.582 144.553C146.08 145.056 145.399 145.338 144.689 145.338H86.5291Z" fill="#5577E8"/>
<path opacity="0.7" d="M86.5291 145.338C85.8191 145.338 85.1382 145.056 84.6361 144.553C84.1341 144.051 83.8521 143.37 83.8521 142.66C83.8521 141.95 84.1341 141.27 84.6361 140.767C85.1382 140.265 85.8191 139.983 86.5291 139.983H144.689C145.399 139.983 146.08 140.265 146.582 140.767C147.084 141.27 147.366 141.95 147.366 142.66C147.366 143.37 147.084 144.051 146.582 144.553C146.08 145.056 145.399 145.338 144.689 145.338H86.5291Z" fill="white"/>
<path opacity="0.2" d="M91.622 13.8252H55.9768C53.4319 13.8252 51.3689 16.0258 51.3689 18.7404V56.7793C51.3689 59.4938 53.4319 61.6944 55.9768 61.6944H91.622C94.1669 61.6944 96.2299 59.4938 96.2299 56.7793V18.7404C96.2299 16.0258 94.1669 13.8252 91.622 13.8252Z" fill="black"/>
<path d="M98.1035 7.60059H60.3566C57.6583 7.60059 55.4709 9.78798 55.4709 12.4863V50.2332C55.4709 52.9315 57.6583 55.1189 60.3566 55.1189H98.1035C100.802 55.1189 102.989 52.9315 102.989 50.2332V12.4863C102.989 9.78798 100.802 7.60059 98.1035 7.60059Z" fill="#5577E8"/>
<path opacity="0.3" d="M98.1035 7.60059H60.3566C57.6583 7.60059 55.4709 9.78798 55.4709 12.4863V50.2332C55.4709 52.9315 57.6583 55.1189 60.3566 55.1189H98.1035C100.802 55.1189 102.989 52.9315 102.989 50.2332V12.4863C102.989 9.78798 100.802 7.60059 98.1035 7.60059Z" fill="white"/>
<path d="M82.8447 25.8718V22.994L81.3723 22.8601C81.1857 21.9087 80.8225 21.0007 80.3015 20.183L81.2385 19.0453L79.2306 17.0374L78.0929 17.9744C77.2752 17.4534 76.3672 17.0902 75.4158 16.9036L75.282 15.3643H72.4041L72.2702 16.9036C71.3155 17.0789 70.4054 17.4429 69.5932 17.9744L68.4554 17.0374L66.4476 19.0453L67.3846 20.183C66.8428 20.9972 66.457 21.905 66.2468 22.8601L64.7744 22.994V25.8718L66.2468 26.0057C66.4442 26.9648 66.831 27.875 67.3846 28.6828L66.4476 29.8205L68.4554 31.8283L69.5932 30.8914C70.401 31.4449 71.3111 31.8317 72.2702 32.0291L72.4041 33.5015H75.282L75.4158 32.0291C76.3709 31.8189 77.2787 31.4331 78.0929 30.8914L79.2306 31.8283L81.2385 29.8205L80.3015 28.6828C80.833 27.8705 81.197 26.9604 81.3723 26.0057L82.8447 25.8718ZM73.8096 28.3481C73.023 28.3614 72.2505 28.1394 71.591 27.7106C70.9315 27.2819 70.415 26.6659 70.1079 25.9417C69.8008 25.2175 69.7169 24.4181 69.8672 23.6459C70.0174 22.8738 70.3948 22.1641 70.951 21.6078C71.5073 21.0516 72.217 20.6742 72.9891 20.524C73.7613 20.3737 74.5607 20.4576 75.2849 20.7647C76.0091 21.0718 76.6251 21.5882 77.0538 22.2478C77.4826 22.9073 77.7046 23.6798 77.6913 24.4664C77.6913 25.4959 77.2824 26.4832 76.5544 27.2112C75.8264 27.9392 74.8391 28.3481 73.8096 28.3481Z" fill="white"/>
<path d="M94.5567 33.9698V31.7612L93.352 31.6274C93.203 30.8848 92.9072 30.1794 92.482 29.5526L93.2182 28.6156L91.6788 27.0763L90.7419 27.8125C90.1151 27.3873 89.4097 27.0915 88.6671 26.9425L88.5333 25.8047H86.3247L86.1908 26.9425C85.4482 27.0915 84.7428 27.3873 84.1161 27.8125L83.246 27.0763L81.6398 28.6156L82.376 29.5526C81.9507 30.1794 81.6549 30.8848 81.5059 31.6274L80.3682 31.7612V33.9698L81.5059 34.1037C81.6549 34.8463 81.9507 35.5516 82.376 36.1784L81.6398 37.0485L83.246 38.6547L84.1161 37.9185C84.7428 38.3438 85.4482 38.6396 86.1908 38.7886L86.3247 39.9263H88.5333L88.6671 38.7886C89.4097 38.6396 90.1151 38.3438 90.7419 37.9185L91.6788 38.6547L93.2182 37.0485L92.482 36.1784C92.9072 35.5516 93.203 34.8463 93.352 34.1037L94.5567 33.9698ZM87.4624 35.9107C86.8509 35.924 86.2492 35.7548 85.7342 35.4247C85.2192 35.0946 84.8142 34.6186 84.5709 34.0573C84.3276 33.4961 84.257 32.875 84.3681 32.2735C84.4792 31.672 84.767 31.1172 85.1948 30.6799C85.6226 30.2426 86.1709 29.9427 86.7698 29.8184C87.3688 29.694 87.9912 29.751 88.5577 29.9819C89.1241 30.2128 89.6089 30.6073 89.9503 31.1149C90.2916 31.6225 90.474 32.2203 90.4741 32.832C90.4831 33.2331 90.4117 33.632 90.2644 34.0051C90.117 34.3783 89.8966 34.7183 89.616 35.0051C89.3355 35.2918 89.0005 35.5197 88.6306 35.6752C88.2608 35.8307 87.8636 35.9108 87.4624 35.9107Z" fill="white"/>
<path d="M82.8446 40.3945V38.5205L81.9076 38.3867C81.7609 37.7696 81.5121 37.1815 81.1714 36.6466L81.7737 35.9104L80.4352 34.5718L79.699 35.1742C79.17 34.8222 78.5798 34.5725 77.9589 34.438V33.501H76.018V34.438C75.401 34.5846 74.8128 34.8335 74.2779 35.1742L73.5417 34.5718L72.2032 35.9104L72.8055 36.6466C72.4648 37.1815 72.216 37.7696 72.0693 38.3867L71.1323 38.5205V40.3945H72.0693C72.2039 41.0154 72.4536 41.6056 72.8055 42.1346L72.2032 42.9377L73.5417 44.2763L74.2779 43.607C74.8128 43.9477 75.401 44.1965 76.018 44.3432V45.3471H77.9589V44.3432C78.5798 44.2086 79.17 43.9589 79.699 43.607L80.4352 44.2763L81.7737 42.9377L81.1714 42.1346C81.5233 41.6056 81.773 41.0154 81.9076 40.3945H82.8446ZM76.955 42.0007C76.6154 42.0097 76.2775 41.9505 75.9612 41.8267C75.6448 41.7029 75.3565 41.517 75.1132 41.2799C74.8699 41.0429 74.6766 40.7595 74.5446 40.4465C74.4126 40.1335 74.3447 39.7972 74.3448 39.4575C74.2845 39.0843 74.3059 38.7025 74.4076 38.3384C74.5094 37.9744 74.689 37.6368 74.934 37.3489C75.179 37.0611 75.4837 36.8299 75.8268 36.6714C76.17 36.5128 76.5435 36.4307 76.9215 36.4307C77.2995 36.4307 77.673 36.5128 78.0162 36.6714C78.3593 36.8299 78.664 37.0611 78.909 37.3489C79.1541 37.6368 79.3336 37.9744 79.4354 38.3384C79.5371 38.7025 79.5585 39.0843 79.4982 39.4575C79.4982 40.132 79.2303 40.7789 78.7533 41.2558C78.2764 41.7328 77.6295 42.0007 76.955 42.0007Z" fill="white"/>
<path opacity="0.2" d="M100.112 7.60059H62.3647C59.6664 7.60059 57.479 9.78798 57.479 12.4863V50.2332C57.479 52.9315 59.6664 55.1189 62.3647 55.1189H100.112C102.81 55.1189 104.997 52.9315 104.997 50.2332V12.4863C104.997 9.78798 102.81 7.60059 100.112 7.60059Z" fill="white"/>
<path opacity="0.2" d="M189.714 78.2031H153.827C151.242 78.2031 149.146 80.3353 149.146 82.9655V119.495C149.146 122.125 151.242 124.257 153.827 124.257H189.714C192.299 124.257 194.395 122.125 194.395 119.495V82.9655C194.395 80.3353 192.299 78.2031 189.714 78.2031Z" fill="black"/>
<path d="M194.529 75.3916H159.727C157.214 75.3916 155.176 77.4292 155.176 79.9426V114.765C155.176 117.278 157.214 119.316 159.727 119.316H194.529C197.043 119.316 199.08 117.278 199.08 114.765V79.9426C199.08 77.4292 197.043 75.3916 194.529 75.3916Z" fill="#5577E8"/>
<path opacity="0.2" d="M194.529 75.3916H159.727C157.214 75.3916 155.176 77.4292 155.176 79.9426V114.765C155.176 117.278 157.214 119.316 159.727 119.316H194.529C197.043 119.316 199.08 117.278 199.08 114.765V79.9426C199.08 77.4292 197.043 75.3916 194.529 75.3916Z" fill="white"/>
<path d="M178.802 104.372C178.802 104.798 178.632 105.206 178.331 105.508C178.03 105.809 177.621 105.978 177.195 105.978C176.769 105.978 176.361 105.809 176.06 105.508C175.758 105.206 175.589 104.798 175.589 104.372C175.589 103.946 175.758 103.537 176.06 103.236C176.361 102.935 176.769 102.766 177.195 102.766C177.621 102.766 178.03 102.935 178.331 103.236C178.632 103.537 178.802 103.946 178.802 104.372Z" fill="white"/>
<path d="M177.061 88.5771C172.89 88.5771 168.889 90.2342 165.94 93.1837C162.99 96.1333 161.333 100.134 161.333 104.305H173.916C173.896 103.89 173.964 103.475 174.116 103.088C174.268 102.701 174.5 102.35 174.797 102.06C175.094 101.769 175.45 101.544 175.84 101.401C176.23 101.257 176.646 101.198 177.061 101.226L177.998 101.36L183.955 94.5337L179.738 102.632C180.095 103.116 180.283 103.704 180.274 104.305H192.856C192.838 100.128 191.166 96.1273 188.206 93.1797C185.246 90.232 181.239 88.5771 177.061 88.5771Z" fill="white"/>
<path opacity="0.2" d="M196.403 75.3916H161.601C159.087 75.3916 157.05 77.4292 157.05 79.9426V114.765C157.05 117.278 159.087 119.316 161.601 119.316H196.403C198.916 119.316 200.954 117.278 200.954 114.765V79.9426C200.954 77.4292 198.916 75.3916 196.403 75.3916Z" fill="white"/>
<path opacity="0.2" d="M197.847 34.5078H166.654C164.41 34.5078 162.59 36.3298 162.59 38.5772V69.8315C162.59 72.079 164.41 73.9009 166.654 73.9009H197.847C200.092 73.9009 201.911 72.079 201.911 69.8315V38.5772C201.911 36.3298 200.092 34.5078 197.847 34.5078Z" fill="black"/>
<path d="M202.848 30.4258H172.196C170.015 30.4258 168.247 32.1937 168.247 34.3745V65.0204C168.247 67.2013 170.015 68.9692 172.196 68.9692H202.848C205.029 68.9692 206.797 67.2013 206.797 65.0204V34.3745C206.797 32.1937 205.029 30.4258 202.848 30.4258Z" fill="#5577E8"/>
<path opacity="0.1" d="M202.848 30.4258H172.196C170.015 30.4258 168.247 32.1937 168.247 34.3745V65.0204C168.247 67.2013 170.015 68.9692 172.196 68.9692H202.848C205.029 68.9692 206.797 67.2013 206.797 65.0204V34.3745C206.797 32.1937 205.029 30.4258 202.848 30.4258Z" fill="white"/>
<path d="M198.297 40.1974C198.307 40.0279 198.281 39.8582 198.22 39.6995C198.16 39.5409 198.066 39.3967 197.946 39.2767C197.826 39.1566 197.682 39.0633 197.523 39.0028C197.365 38.9423 197.195 38.9161 197.025 38.9258H178.152C177.982 38.9161 177.813 38.9423 177.654 39.0028C177.495 39.0633 177.351 39.1566 177.231 39.2767C177.111 39.3967 177.018 39.5409 176.957 39.6995C176.897 39.8582 176.871 40.0279 176.88 40.1974V44.3469C176.871 44.5164 176.897 44.6861 176.957 44.8448C177.018 45.0035 177.111 45.1476 177.231 45.2676C177.351 45.3877 177.495 45.4811 177.654 45.5415C177.813 45.602 177.982 45.6282 178.152 45.6185H197.025C197.195 45.6282 197.365 45.602 197.523 45.5415C197.682 45.4811 197.826 45.3877 197.946 45.2676C198.066 45.1476 198.16 45.0035 198.22 44.8448C198.281 44.6861 198.307 44.5164 198.297 44.3469V40.1974ZM192.073 42.4729H191.002V41.3352H192.073V42.4729ZM194.951 43.0084C194.661 42.9913 194.388 42.8639 194.189 42.6523C193.99 42.4408 193.879 42.1611 193.88 41.8706C193.88 41.5866 193.993 41.3142 194.193 41.1134C194.394 40.9126 194.667 40.7998 194.951 40.7998C195.235 40.7998 195.507 40.9126 195.708 41.1134C195.909 41.3142 196.022 41.5866 196.022 41.8706C196.022 42.1611 195.911 42.4408 195.712 42.6523C195.513 42.8639 195.241 42.9913 194.951 43.0084Z" fill="white"/>
<path d="M198.297 47.5597C198.307 47.3902 198.281 47.2205 198.22 47.0618C198.16 46.9032 198.066 46.7591 197.946 46.639C197.826 46.5189 197.682 46.4256 197.523 46.3651C197.365 46.3046 197.195 46.2784 197.025 46.2881H178.152C177.982 46.2784 177.813 46.3046 177.654 46.3651C177.495 46.4256 177.351 46.5189 177.231 46.639C177.111 46.7591 177.018 46.9032 176.957 47.0618C176.897 47.2205 176.871 47.3902 176.88 47.5597V51.7092C176.871 51.8787 176.897 52.0484 176.957 52.2071C177.018 52.3658 177.111 52.5099 177.231 52.63C177.351 52.75 177.495 52.8434 177.654 52.9038C177.813 52.9643 177.982 52.9905 178.152 52.9808H197.025C197.195 52.9905 197.365 52.9643 197.523 52.9038C197.682 52.8434 197.826 52.75 197.946 52.63C198.066 52.5099 198.16 52.3658 198.22 52.2071C198.281 52.0484 198.307 51.8787 198.297 51.7092V47.5597ZM192.073 50.2368H191.002V49.166H192.073V50.2368ZM194.951 50.7722C194.739 50.7722 194.532 50.7094 194.356 50.5918C194.18 50.4741 194.042 50.3069 193.961 50.1112C193.88 49.9155 193.859 49.7002 193.9 49.4925C193.942 49.2848 194.044 49.094 194.193 48.9442C194.343 48.7944 194.534 48.6925 194.742 48.6511C194.95 48.6098 195.165 48.631 195.36 48.7121C195.556 48.7931 195.723 48.9304 195.841 49.1065C195.959 49.2826 196.022 49.4896 196.022 49.7014C196.022 49.9854 195.909 50.2578 195.708 50.4586C195.507 50.6594 195.235 50.7722 194.951 50.7722Z" fill="white"/>
<path d="M198.297 54.921C198.307 54.7515 198.281 54.5818 198.22 54.4232C198.16 54.2645 198.066 54.1204 197.946 54.0003C197.826 53.8802 197.682 53.7869 197.523 53.7264C197.365 53.666 197.195 53.6397 197.025 53.6494H178.152C177.982 53.6397 177.813 53.666 177.654 53.7264C177.495 53.7869 177.351 53.8802 177.231 54.0003C177.111 54.1204 177.018 54.2645 176.957 54.4232C176.897 54.5818 176.871 54.7515 176.88 54.921V59.0705C176.871 59.2401 176.897 59.4097 176.957 59.5684C177.018 59.7271 177.111 59.8712 177.231 59.9913C177.351 60.1114 177.495 60.2047 177.654 60.2652C177.813 60.3256 177.982 60.3519 178.152 60.3422H197.025C197.195 60.3519 197.365 60.3256 197.523 60.2652C197.682 60.2047 197.826 60.1114 197.946 59.9913C198.066 59.8712 198.16 59.7271 198.22 59.5684C198.281 59.4097 198.307 59.2401 198.297 59.0705V54.921ZM192.073 57.9997H191.002V56.9289H192.073V57.9997ZM194.951 58.5351C194.739 58.5351 194.532 58.4723 194.356 58.3546C194.18 58.237 194.042 58.0697 193.961 57.8741C193.88 57.6784 193.859 57.4631 193.9 57.2554C193.942 57.0476 194.044 56.8569 194.193 56.7071C194.343 56.5573 194.534 56.4553 194.742 56.414C194.95 56.3727 195.165 56.3939 195.36 56.475C195.556 56.556 195.723 56.6933 195.841 56.8694C195.959 57.0455 196.022 57.2525 196.022 57.4643C196.022 57.7483 195.909 58.0207 195.708 58.2215C195.507 58.4223 195.235 58.5351 194.951 58.5351Z" fill="white"/>
<path opacity="0.2" d="M204.521 30.4258H173.869C171.688 30.4258 169.92 32.1937 169.92 34.3745V65.0204C169.92 67.2013 171.688 68.9692 173.869 68.9692H204.521C206.702 68.9692 208.47 67.2013 208.47 65.0204V34.3745C208.47 32.1937 206.702 30.4258 204.521 30.4258Z" fill="white"/>
<path opacity="0.2" d="M132.78 74.6836H94.2384C91.4868 74.6836 89.2561 76.985 89.2561 79.8239V119.605C89.2561 122.444 91.4868 124.746 94.2384 124.746H132.78C135.531 124.746 137.762 122.444 137.762 119.605V79.8239C137.762 76.985 135.531 74.6836 132.78 74.6836Z" fill="black"/>
<path d="M137.026 70.668H99.2795C96.5812 70.668 94.3938 72.8554 94.3938 75.5537V113.301C94.3938 115.999 96.5812 118.186 99.2795 118.186H137.026C139.725 118.186 141.912 115.999 141.912 113.301V75.5537C141.912 72.8554 139.725 70.668 137.026 70.668Z" fill="#5577E8"/>
<path opacity="0.5" d="M137.026 70.668H99.2795C96.5812 70.668 94.3938 72.8554 94.3938 75.5537V113.301C94.3938 115.999 96.5812 118.186 99.2795 118.186H137.026C139.725 118.186 141.912 115.999 141.912 113.301V75.5537C141.912 72.8554 139.725 70.668 137.026 70.668Z" fill="white"/>
<path d="M104.968 107.478C104.285 106.767 103.904 105.82 103.904 104.834C103.904 103.848 104.285 102.901 104.968 102.19L113.669 93.5568C113.857 93.3541 114.084 93.1924 114.338 93.0817C114.591 92.9711 114.865 92.9141 115.141 92.9141C115.417 92.9141 115.691 92.9711 115.944 93.0817C116.198 93.1924 116.425 93.3541 116.613 93.5568L118.889 95.8323C119.092 96.0203 119.253 96.2481 119.364 96.5015C119.475 96.7548 119.532 97.0283 119.532 97.3047C119.532 97.5812 119.475 97.8547 119.364 98.108C119.253 98.3614 119.092 98.5892 118.889 98.7771L110.255 107.478C109.545 108.161 108.597 108.542 107.612 108.542C106.626 108.542 105.679 108.161 104.968 107.478Z" fill="white"/>
<path d="M120.964 93.2236L119.291 91.5504L129.062 81.7121L131.204 81.3105L130.735 83.4522L120.964 93.2236Z" fill="white"/>
<path d="M120.026 95.431L117.015 92.4193C116.892 92.2942 116.823 92.126 116.823 91.9508C116.823 91.7756 116.892 91.6074 117.015 91.4823C117.14 91.3597 117.308 91.291 117.483 91.291C117.658 91.291 117.826 91.3597 117.952 91.4823L120.963 94.4941C121.086 94.6192 121.155 94.7874 121.155 94.9625C121.155 95.1377 121.086 95.3059 120.963 95.431C120.838 95.5537 120.67 95.6224 120.495 95.6224C120.32 95.6224 120.151 95.5537 120.026 95.431Z" fill="white"/>
<path d="M115.944 89.675L111.795 85.5255C112.598 83.4508 111.059 80.9076 109.319 80.2383V83.4508C109.319 83.8058 109.178 84.1463 108.927 84.3973C108.676 84.6483 108.335 84.7893 107.98 84.7893C107.619 84.7897 107.271 84.6509 107.009 84.4016C106.747 84.1524 106.592 83.8118 106.575 83.4508V80.3052C105.799 80.63 105.131 81.1662 104.646 81.8526C104.161 82.5389 103.878 83.3478 103.831 84.187C103.856 85.1701 104.236 86.1109 104.9 86.8363C105.564 87.5618 106.468 88.0232 107.445 88.1357C108.126 88.2475 108.825 88.1543 109.452 87.868L113.602 92.0175L115.944 89.675Z" fill="white"/>
<path d="M129.665 105.403V108.549C130.439 108.242 131.11 107.72 131.596 107.044C132.083 106.368 132.365 105.566 132.409 104.734C132.419 103.748 132.073 102.791 131.433 102.041C130.794 101.29 129.904 100.797 128.928 100.651C128.306 100.495 127.649 100.542 127.055 100.785L122.704 96.502L120.362 98.8444L124.645 103.128C123.374 105.671 125.314 107.88 127.055 108.549V105.403C127.055 105.048 127.196 104.708 127.447 104.457C127.698 104.206 128.038 104.065 128.393 104.065C128.566 104.064 128.737 104.099 128.896 104.168C129.054 104.236 129.198 104.335 129.317 104.461C129.436 104.586 129.528 104.734 129.588 104.896C129.648 105.058 129.674 105.231 129.665 105.403Z" fill="white"/>
<path opacity="0.2" d="M139.033 70.668H101.287C98.5883 70.668 96.4009 72.8554 96.4009 75.5537V113.301C96.4009 115.999 98.5883 118.186 101.287 118.186H139.033C141.732 118.186 143.919 115.999 143.919 113.301V75.5537C143.919 72.8554 141.732 70.668 139.033 70.668Z" fill="white"/>
<path opacity="0.2" d="M170.037 9.3418H123.375C120.038 9.3418 117.333 11.7996 117.333 14.8314V57.2534C117.333 60.2852 120.038 62.743 123.375 62.743H170.037C173.373 62.743 176.078 60.2852 176.078 57.2534V14.8314C176.078 11.7996 173.373 9.3418 170.037 9.3418Z" fill="black"/>
<path d="M126.82 57.5303L172.33 57.5303C175.583 57.5303 178.219 54.8934 178.219 51.6407V6.14357C178.219 2.89083 175.583 0.253979 172.33 0.253979L126.82 0.253979C123.567 0.253979 120.93 2.89083 120.93 6.14357V51.6407C120.93 54.8934 123.567 57.5303 126.82 57.5303Z" fill="#5577E8"/>
<path opacity="0.5" d="M126.82 57.5303L172.33 57.5303C175.583 57.5303 178.219 54.8934 178.219 51.6407V6.14357C178.219 2.89083 175.583 0.253979 172.33 0.253979L126.82 0.253979C123.567 0.253979 120.93 2.89083 120.93 6.14357V51.6407C120.93 54.8934 123.567 57.5303 126.82 57.5303Z" fill="white"/>
<path d="M149.575 11.082L132.041 17.9755C132.041 17.9755 134.249 42.0693 149.575 46.5534C164.902 42.0693 167.11 17.9755 167.11 17.9755L149.575 11.082ZM149.107 34.4396C148.993 34.5798 148.85 34.6941 148.689 34.7748C148.527 34.8556 148.35 34.9011 148.17 34.9081C147.971 34.9085 147.776 34.8598 147.601 34.7664C147.426 34.673 147.276 34.5377 147.166 34.3727L141.009 25.9399C140.82 25.6713 140.743 25.3403 140.793 25.016C140.843 24.6917 141.016 24.3992 141.276 24.1998C141.539 24.031 141.856 23.9649 142.164 24.0143C142.473 24.0637 142.752 24.225 142.95 24.4675L148.17 31.6287L156.67 20.4518C156.857 20.1959 157.138 20.0242 157.451 19.9741C157.765 19.924 158.085 19.9995 158.343 20.1841C158.608 20.3954 158.783 20.6995 158.833 21.0349C158.883 21.3703 158.803 21.7121 158.611 21.9912L149.107 34.4396Z" fill="white"/>
<path opacity="0.2" d="M129.229 57.5303L174.74 57.5303C177.993 57.5303 180.629 54.8934 180.629 51.6407V6.14357C180.629 2.89083 177.993 0.253979 174.74 0.253979L129.229 0.253979C125.977 0.253979 123.34 2.89083 123.34 6.14357V51.6407C123.34 54.8934 125.977 57.5303 129.229 57.5303Z" fill="white"/>
<g filter="url(#filter2_d_116_5108)">
<path d="M230.422 149.355H173.4V187.859H230.422V149.355Z" fill="#5577E8"/>
<path opacity="0.7" d="M230.422 149.355H173.4V187.859H230.422V149.355Z" fill="white"/>
<path d="M229.284 152.3H174.47V186.553H229.284V152.3Z" fill="#263238"/>
<path d="M221.988 157.588H176.947V158.592H221.988V157.588Z" fill="#E0E0E0"/>
<path d="M215.296 160.465H176.947V161.469H215.296V160.465Z" fill="#E0E0E0"/>
<path d="M221.988 163.277H176.947V164.281H221.988V163.277Z" fill="#E0E0E0"/>
<path d="M215.296 166.154H176.947V167.158H215.296V166.154Z" fill="#E0E0E0"/>
<path d="M181.832 168.966H176.947V169.97H181.832V168.966Z" fill="#E0E0E0"/>
<path d="M201.91 171.843H176.947V172.847H201.91V171.843Z" fill="#E0E0E0"/>
<path d="M215.296 174.654H176.947V175.658H215.296V174.654Z" fill="#E0E0E0"/>
<path d="M181.832 177.532H176.947V178.536H181.832V177.532Z" fill="#E0E0E0"/>
<path d="M181.832 180.342H176.947V181.346H181.832V180.342Z" fill="#E0E0E0"/>
</g>
<path d="M65.9156 75.334H8.8938V113.837H65.9156V75.334Z" fill="#5577E8"/>
<path opacity="0.7" d="M65.9156 75.334H8.8938V113.837H65.9156V75.334Z" fill="white"/>
<g filter="url(#filter3_d_116_5108)">
<path d="M64.7781 78.2793H9.96484V112.533H64.7781V78.2793Z" fill="#263238"/>
</g>
<path d="M57.4823 83.5664H12.4404V84.5703H57.4823V83.5664Z" fill="#E0E0E0"/>
<path d="M50.7896 86.4443H12.4404V87.4482H50.7896V86.4443Z" fill="#E0E0E0"/>
<path d="M57.4823 89.2559H12.4404V90.2598H57.4823V89.2559Z" fill="#E0E0E0"/>
<path d="M50.7896 92.1338H12.4404V93.1377H50.7896V92.1338Z" fill="#E0E0E0"/>
<path d="M17.3261 94.9443H12.4404V95.9482H17.3261V94.9443Z" fill="#E0E0E0"/>
<path d="M37.4042 97.8213H12.4404V98.8252H37.4042V97.8213Z" fill="#E0E0E0"/>
<path d="M50.7896 100.633H12.4404V101.637H50.7896V100.633Z" fill="#E0E0E0"/>
<path d="M17.3261 103.511H12.4404V104.515H17.3261V103.511Z" fill="#E0E0E0"/>
<path d="M17.3261 106.321H12.4404V107.325H17.3261V106.321Z" fill="#E0E0E0"/>
<defs>
<filter id="filter0_d_116_5108" x="23.3041" y="7.62098" width="223.493" height="164.596" filterUnits="userSpaceOnUse" color-interpolation-filters="sRGB">
<feFlood flood-opacity="0" result="BackgroundImageFix"/>
<feColorMatrix in="SourceAlpha" type="matrix" values="0 0 0 0 0 0 0 0 0 0 0 0 0 0 0 0 0 0 127 0" result="hardAlpha"/>
<feOffset dy="1.80252"/>
<feGaussianBlur stdDeviation="4.50629"/>
<feComposite in2="hardAlpha" operator="out"/>
<feColorMatrix type="matrix" values="0 0 0 0 0 0 0 0 0 0 0 0 0 0 0 0 0 0 0.1 0"/>
<feBlend mode="normal" in2="BackgroundImageFix" result="effect1_dropShadow_116_5108"/>
<feBlend mode="normal" in="SourceGraphic" in2="effect1_dropShadow_116_5108" result="shape"/>
</filter>
<filter id="filter1_d_116_5108" x="23.3058" y="30.1757" width="223.491" height="142.041" filterUnits="userSpaceOnUse" color-interpolation-filters="sRGB">
<feFlood flood-opacity="0" result="BackgroundImageFix"/>
<feColorMatrix in="SourceAlpha" type="matrix" values="0 0 0 0 0 0 0 0 0 0 0 0 0 0 0 0 0 0 127 0" result="hardAlpha"/>
<feOffset dy="1.80252"/>
<feGaussianBlur stdDeviation="4.50629"/>
<feComposite in2="hardAlpha" operator="out"/>
<feColorMatrix type="matrix" values="0 0 0 0 0 0 0 0 0 0 0 0 0 0 0 0 0 0 0.1 0"/>
<feBlend mode="normal" in2="BackgroundImageFix" result="effect1_dropShadow_116_5108"/>
<feBlend mode="normal" in="SourceGraphic" in2="effect1_dropShadow_116_5108" result="shape"/>
</filter>
<filter id="filter2_d_116_5108" x="164.388" y="142.145" width="75.0469" height="56.5281" filterUnits="userSpaceOnUse" color-interpolation-filters="sRGB">
<feFlood flood-opacity="0" result="BackgroundImageFix"/>
<feColorMatrix in="SourceAlpha" type="matrix" values="0 0 0 0 0 0 0 0 0 0 0 0 0 0 0 0 0 0 127 0" result="hardAlpha"/>
<feOffset dy="1.80252"/>
<feGaussianBlur stdDeviation="4.50629"/>
<feComposite in2="hardAlpha" operator="out"/>
<feColorMatrix type="matrix" values="0 0 0 0 0 0 0 0 0 0 0 0 0 0 0 0 0 0 0.1 0"/>
<feBlend mode="normal" in2="BackgroundImageFix" result="effect1_dropShadow_116_5108"/>
<feBlend mode="normal" in="SourceGraphic" in2="effect1_dropShadow_116_5108" result="shape"/>
</filter>
<filter id="filter3_d_116_5108" x="0.952256" y="71.0692" width="72.8384" height="52.2781" filterUnits="userSpaceOnUse" color-interpolation-filters="sRGB">
<feFlood flood-opacity="0" result="BackgroundImageFix"/>
<feColorMatrix in="SourceAlpha" type="matrix" values="0 0 0 0 0 0 0 0 0 0 0 0 0 0 0 0 0 0 127 0" result="hardAlpha"/>
<feOffset dy="1.80252"/>
<feGaussianBlur stdDeviation="4.50629"/>
<feComposite in2="hardAlpha" operator="out"/>
<feColorMatrix type="matrix" values="0 0 0 0 0 0 0 0 0 0 0 0 0 0 0 0 0 0 0.1 0"/>
<feBlend mode="normal" in2="BackgroundImageFix" result="effect1_dropShadow_116_5108"/>
<feBlend mode="normal" in="SourceGraphic" in2="effect1_dropShadow_116_5108" result="shape"/>
</filter>
</defs>
</svg>
