<svg width="116" height="33" viewBox="0 0 116 33" fill="none" xmlns="http://www.w3.org/2000/svg">
<path d="M25.7919 5.17754L21.5486 19.8775H20.8226L16.5792 5.17754C15.8533 2.69004 13.5751 0.977539 10.9715 0.977539H0.795044V32.9775H10.984V14.065H11.7101L17.5431 32.9775H24.8281L30.6486 14.065H31.3746V32.9775H41.5637V0.977539H31.3871C28.7961 0.977539 26.518 2.69004 25.7919 5.17754ZM82.2068 32.9775H92.4585V23.515H102.773C108.168 23.515 112.762 20.465 114.539 16.1775H82.2068V32.9775ZM64.0445 4.35254L56.8722 19.8901H56.1462V0.977539H45.9572V32.9775H54.6066C56.8848 32.9775 58.9498 31.6525 59.9012 29.6026L67.0736 14.0775H67.7998V32.9775H77.9887V0.977539H69.3392C67.061 0.977539 64.9959 2.30254 64.0445 4.35254Z" fill="#006848"/>
<path d="M103.786 0.977539C106.728 0.977539 109.394 2.10254 111.409 3.95254C113.663 6.00254 115.077 8.95257 115.077 12.2401C115.077 12.915 115.002 13.5775 114.889 14.2275H95.9632C89.5543 14.2275 84.1219 10.0275 82.2944 4.22754C82.2693 4.16504 82.2568 4.09004 82.2318 4.01504C82.1817 3.84004 82.1442 3.65254 82.0941 3.47754C81.9063 2.66504 81.7811 1.84004 81.7311 0.977539H103.786Z" fill="url(#paint0_linear_328_2095)"/>
<defs>
<linearGradient id="paint0_linear_328_2095" x1="115.077" y1="42.4171" x2="81.9352" y2="42.4171" gradientUnits="userSpaceOnUse">
<stop stop-color="#1E5CD8"/>
<stop offset="1" stop-color="#02AFFF"/>
</linearGradient>
</defs>
</svg>
