<svg width="21" height="21" viewBox="0 0 21 21" fill="none" xmlns="http://www.w3.org/2000/svg">
<path d="M4.09609 16.0531C4.94609 15.4031 5.89609 14.8906 6.94609 14.5156C7.99609 14.1406 9.09609 13.9531 10.2461 13.9531C11.3961 13.9531 12.4961 14.1406 13.5461 14.5156C14.5961 14.8906 15.5461 15.4031 16.3961 16.0531C16.9794 15.3698 17.4336 14.5948 17.7586 13.7281C18.0836 12.8615 18.2461 11.9365 18.2461 10.9531C18.2461 8.73646 17.4669 6.84896 15.9086 5.29063C14.3503 3.73229 12.4628 2.95312 10.2461 2.95312C8.02943 2.95312 6.14193 3.73229 4.58359 5.29063C3.02526 6.84896 2.24609 8.73646 2.24609 10.9531C2.24609 11.9365 2.40859 12.8615 2.73359 13.7281C3.05859 14.5948 3.51276 15.3698 4.09609 16.0531ZM10.2461 11.9531C9.26276 11.9531 8.43359 11.6156 7.75859 10.9406C7.08359 10.2656 6.74609 9.43646 6.74609 8.45312C6.74609 7.46979 7.08359 6.64063 7.75859 5.96563C8.43359 5.29063 9.26276 4.95312 10.2461 4.95312C11.2294 4.95312 12.0586 5.29063 12.7336 5.96563C13.4086 6.64063 13.7461 7.46979 13.7461 8.45312C13.7461 9.43646 13.4086 10.2656 12.7336 10.9406C12.0586 11.6156 11.2294 11.9531 10.2461 11.9531ZM10.2461 20.9531C8.86276 20.9531 7.56276 20.6906 6.34609 20.1656C5.12943 19.6406 4.07109 18.9281 3.17109 18.0281C2.27109 17.1281 1.55859 16.0698 1.03359 14.8531C0.508594 13.6365 0.246094 12.3365 0.246094 10.9531C0.246094 9.56979 0.508594 8.26979 1.03359 7.05312C1.55859 5.83646 2.27109 4.77813 3.17109 3.87812C4.07109 2.97812 5.12943 2.26562 6.34609 1.74063C7.56276 1.21562 8.86276 0.953125 10.2461 0.953125C11.6294 0.953125 12.9294 1.21562 14.1461 1.74063C15.3628 2.26562 16.4211 2.97812 17.3211 3.87812C18.2211 4.77813 18.9336 5.83646 19.4586 7.05312C19.9836 8.26979 20.2461 9.56979 20.2461 10.9531C20.2461 12.3365 19.9836 13.6365 19.4586 14.8531C18.9336 16.0698 18.2211 17.1281 17.3211 18.0281C16.4211 18.9281 15.3628 19.6406 14.1461 20.1656C12.9294 20.6906 11.6294 20.9531 10.2461 20.9531ZM10.2461 18.9531C11.1294 18.9531 11.9628 18.824 12.7461 18.5656C13.5294 18.3073 14.2461 17.9365 14.8961 17.4531C14.2461 16.9698 13.5294 16.599 12.7461 16.3406C11.9628 16.0823 11.1294 15.9531 10.2461 15.9531C9.36276 15.9531 8.52943 16.0823 7.74609 16.3406C6.96276 16.599 6.24609 16.9698 5.59609 17.4531C6.24609 17.9365 6.96276 18.3073 7.74609 18.5656C8.52943 18.824 9.36276 18.9531 10.2461 18.9531ZM10.2461 9.95312C10.6794 9.95312 11.0378 9.81146 11.3211 9.52812C11.6044 9.24479 11.7461 8.88646 11.7461 8.45312C11.7461 8.01979 11.6044 7.66146 11.3211 7.37813C11.0378 7.09479 10.6794 6.95312 10.2461 6.95312C9.81276 6.95312 9.45443 7.09479 9.17109 7.37813C8.88776 7.66146 8.74609 8.01979 8.74609 8.45312C8.74609 8.88646 8.88776 9.24479 9.17109 9.52812C9.45443 9.81146 9.81276 9.95312 10.2461 9.95312Z" fill="#5577E8"/>
</svg>
