<svg width="48" height="48" viewBox="0 0 48 48" fill="none" xmlns="http://www.w3.org/2000/svg">
<path d="M4.84612 48C3.50382 48 2.36055 47.5279 1.4163 46.5837C0.4721 45.6394 0 44.4962 0 43.1539V4.84612C0 3.50382 0.4721 2.36055 1.4163 1.4163C2.36055 0.472098 3.50382 0 4.84612 0H43.1539C44.4962 0 45.6394 0.472098 46.5837 1.4163C47.5279 2.36055 48 3.50382 48 4.84612V43.1539C48 44.4962 47.5279 45.6394 46.5837 46.5837C45.6394 47.5279 44.4962 48 43.1539 48H4.84612ZM4.84612 45H43.1539C43.6923 45 44.1346 44.8269 44.4808 44.4808C44.8269 44.1346 45 43.6923 45 43.1539V9H3V43.1539C3 43.6923 3.17307 44.1346 3.51922 44.4808C3.86537 44.8269 4.30767 45 4.84612 45ZM9 22.5V19.5H39V22.5H9ZM9 34.5V31.5H27V34.5H9Z" fill="#5577E8"/>
</svg>
