<svg width="55" height="43" viewBox="0 0 55 43" fill="none" xmlns="http://www.w3.org/2000/svg">
<path d="M22.7417 35.25H46.7417V18.1731H22.7417V35.25ZM5.08782 42.75C3.70707 42.75 2.5542 42.2875 1.6292 41.3625C0.704199 40.4375 0.241699 39.2846 0.241699 37.9039V5.59612C0.241699 4.21537 0.704199 3.0625 1.6292 2.1375C2.5542 1.2125 3.70707 0.75 5.08782 0.75H49.3956C50.7763 0.75 51.9292 1.2125 52.8542 2.1375C53.7792 3.0625 54.2417 4.21537 54.2417 5.59612V37.9039C54.2417 39.2846 53.7792 40.4375 52.8542 41.3625C51.9292 42.2875 50.7763 42.75 49.3956 42.75H5.08782ZM5.08782 39.75H49.3956C49.8571 39.75 50.2801 39.5577 50.6648 39.1731C51.0494 38.7884 51.2417 38.3654 51.2417 37.9039V5.59612C51.2417 5.13462 51.0494 4.71155 50.6648 4.3269C50.2801 3.9423 49.8571 3.75 49.3956 3.75H5.08782C4.62632 3.75 4.20325 3.9423 3.8186 4.3269C3.434 4.71155 3.2417 5.13462 3.2417 5.59612V37.9039C3.2417 38.3654 3.434 38.7884 3.8186 39.1731C4.20325 39.5577 4.62632 39.75 5.08782 39.75Z" fill="#5577E8"/>
</svg>
