<svg width="48" height="50" viewBox="0 0 48 50" fill="none" xmlns="http://www.w3.org/2000/svg">
<path d="M38.3083 49.3078C35.8333 49.3078 33.7145 48.4265 31.952 46.6639C30.1895 44.9014 29.3083 42.7827 29.3083 40.3077C29.3083 37.8327 30.1895 35.7139 31.952 33.9514C33.7145 32.1889 35.8333 31.3077 38.3083 31.3077C40.7833 31.3077 42.902 32.1889 44.6645 33.9514C46.4271 35.7139 47.3084 37.8327 47.3084 40.3077C47.3084 42.7827 46.4271 44.9014 44.6645 46.6639C42.902 48.4265 40.7833 49.3078 38.3083 49.3078ZM38.3083 46.3077C39.9583 46.3077 41.3708 45.7202 42.5458 44.5452C43.7208 43.3702 44.3083 41.9577 44.3083 40.3077C44.3083 38.6577 43.7208 37.2452 42.5458 36.0702C41.3708 34.8952 39.9583 34.3077 38.3083 34.3077C36.6583 34.3077 35.2458 34.8952 34.0708 36.0702C32.8958 37.2452 32.3083 38.6577 32.3083 40.3077C32.3083 41.9577 32.8958 43.3702 34.0708 44.5452C35.2458 45.7202 36.6583 46.3077 38.3083 46.3077ZM9.69294 40.3078C7.21794 40.3078 5.0992 39.4265 3.3367 37.6639C1.57415 35.9014 0.692871 33.7827 0.692871 31.3077C0.692871 28.8327 1.57415 26.7139 3.3367 24.9514C5.0992 23.1889 7.21794 22.3077 9.69294 22.3077C12.1679 22.3077 14.2867 23.1889 16.0492 24.9514C17.8117 26.7139 18.6929 28.8327 18.6929 31.3077C18.6929 33.7827 17.8117 35.9014 16.0492 37.6639C14.2867 39.4265 12.1679 40.3078 9.69294 40.3078ZM9.69294 37.3077C11.3429 37.3077 12.7554 36.7202 13.9304 35.5452C15.1054 34.3702 15.6929 32.9577 15.6929 31.3077C15.6929 29.6577 15.1054 28.2452 13.9304 27.0702C12.7554 25.8952 11.3429 25.3077 9.69294 25.3077C8.04294 25.3077 6.63045 25.8952 5.45545 27.0702C4.28045 28.2452 3.69295 29.6577 3.69295 31.3077C3.69295 32.9577 4.28045 34.3702 5.45545 35.5452C6.63045 36.7202 8.04294 37.3077 9.69294 37.3077ZM21.0006 18.1539C18.5256 18.1539 16.4069 17.2726 14.6444 15.5101C12.8819 13.7476 12.0006 11.6289 12.0006 9.15389C12.0006 6.67884 12.8819 4.56006 14.6444 2.79756C16.4069 1.03506 18.5256 0.153809 21.0006 0.153809C23.4756 0.153809 25.5944 1.03506 27.3569 2.79756C29.1194 4.56006 30.0006 6.67884 30.0006 9.15389C30.0006 11.6289 29.1194 13.7476 27.3569 15.5101C25.5944 17.2726 23.4756 18.1539 21.0006 18.1539ZM21.0006 15.1539C22.6506 15.1539 24.0631 14.5664 25.2381 13.3914C26.4131 12.2164 27.0006 10.8039 27.0006 9.15389C27.0006 7.50389 26.4131 6.09139 25.2381 4.91639C24.0631 3.74139 22.6506 3.15389 21.0006 3.15389C19.3506 3.15389 17.9381 3.74139 16.7631 4.91639C15.5881 6.09139 15.0006 7.50389 15.0006 9.15389C15.0006 10.8039 15.5881 12.2164 16.7631 13.3914C17.9381 14.5664 19.3506 15.1539 21.0006 15.1539Z" fill="#5577E8"/>
</svg>
